<svg width="145" height="154" viewBox="0 0 145 154" fill="none" xmlns="http://www.w3.org/2000/svg">
<g clip-path="url(#clip0_118_209)">
<path d="M98.06 153.29L107.78 137.23V0L98.06 9.19V153.29Z" fill="#231F20"/>
<path d="M61.44 9.19H98.06L107.78 0H79.25L62.65 9.19" fill="#231F20"/>
<path d="M52.94 71.95L42.58 0L35.43 9.19L49.09 96.87L52.94 71.95Z" fill="#231F20"/>
<path d="M0 9.19L13.23 0H42.58L35.43 9.19H0Z" fill="#231F20"/>
<path d="M22.06 153.29L34.02 133.53L34.29 122.63L22.06 43.4V153.29Z" fill="#231F20"/>
<path d="M59 153.29L76 133.82V45.47L59 153.29Z" fill="#231F20"/>
<path d="M33.13 118.1L39.53 152.45H59.24" stroke="#231F20" stroke-width="0.5" stroke-miterlimit="10"/>
<path d="M106.04 60.75H122.93C128.99 60.75 133.2 59.46 135.57 56.87C137.94 54.28 139.13 50.54 139.13 45.65C139.13 41.11 137.94 37.57 135.57 35.02C133.2 32.47 129.07 31.19 123.18 31.19H106.04V60.75ZM106.04 122H125.84C132.53 122 137.24 120.53 139.98 117.59C142.72 114.65 144.09 110.7 144.09 105.73C144.09 101.12 142.73 97.42 140.02 94.62C137.31 91.82 132.55 90.42 125.75 90.42H106.04V122Z" fill="#231F20"/>
<path d="M98.06 9.19H76V153.29H98.06V9.19Z" fill="#F1F0F0"/>
<path d="M22.06 9.19H0V153.29H22.06V9.19Z" fill="#F1F0F0"/>
<path d="M62.58 9.19H84.64L60.8 152.83H41.03L62.58 9.19Z" fill="#F1F0F0"/>
<path d="M35.68 9.19H13.62L37.46 152.83H57.23L35.68 9.19Z" fill="#F1F0F0"/>
</g>
<defs>
<clipPath id="clip0_118_209">
<rect width="144.1" height="153.29" fill="white"/>
</clipPath>
</defs>
</svg>
