<svg data-name="Layer 2" xmlns="http://www.w3.org/2000/svg" viewBox="0 0 815.03 206.5"><g data-name="Horizontal - Colored"><g data-name="Bottom Layers"><g fill="#231f20" stroke="#ee2a7b" stroke-miterlimit="10" stroke-width="3"><path d="M483.31 38.68h35.86l13 133.48-30.96 7.03-1.43-35.32h-39.41l-15.42 39.76-36.99-.26 75.34-144.7Zm-12.3 81.89h27.73l-.63-17.53c-.63-13.68-1.25-26.51-1.46-41.05h-.83c-5.84 14.32-10.84 27.37-16.89 41.05l-7.92 17.53ZM341.1 38.68h31.49c36.28 0 60.47 17.75 60.47 56.23 0 53.02-45.67 87.32-75.06 85.16-29.39-2.15-42.99-7.41-42.99-7.41L341.1 38.67Zm16.26 114.39c23.14 0 44.83-17.96 44.83-56.23 0-24.16-14.18-33.35-30.23-33.35h-5.63l-17.51 89.58h8.55Z"/><path d="m630.94 42.68 30.14-1.16-10.79 56.91h44.62l10.63-56.02 29.61 2.57-27.11 139.19h-30.03l11.47-58.8h-44.41l-11.26 58.8h-30.03l27.16-141.48Z" stroke-linecap="round"/></g><g fill="none" stroke="#fff" stroke-linecap="round" stroke-linejoin="round"><path d="M483.31 38.68h35.86l13 133.48-30.96 7.03-1.43-35.32h-39.41l-15.42 39.76-36.99-.26 75.34-144.7Zm-12.3 81.89h27.73l-.63-17.53c-.63-13.68-1.25-26.51-1.46-41.05h-.83c-5.84 14.32-10.84 27.37-16.89 41.05l-7.92 17.53ZM341.1 38.68h31.49c36.28 0 60.47 17.75 60.47 56.23 0 53.02-45.67 87.32-75.06 85.16-29.39-2.15-42.99-7.41-42.99-7.41L341.1 38.67Zm16.26 114.39c23.14 0 44.83-17.96 44.83-56.23 0-24.16-14.18-33.35-30.23-33.35h-5.63l-17.51 89.58h8.55ZM630.94 42.68l30.14-1.16-10.79 56.91h44.62l10.63-56.02 29.61 2.57-27.11 139.19h-30.03l11.47-58.8h-44.41l-11.26 58.8h-30.03l27.16-141.48Z"/></g><path fill="#4453a4" d="M703.85 99.46H659.37l-30.85-.82-5.2 27.12h52.07l52.54-1-23.57-26.12"/><path d="M623.32 127.26a1.498 1.498 0 0 1-1.48-1.78l5.21-27.12c.14-.71.75-1.22 1.47-1.22h.04l30.85.82h43.61c.08-.16.19-.31.33-.43.62-.56 1.56-.51 2.12.11l23.57 26.12c.39.44.5 1.06.26 1.6-.23.54-.76.89-1.35.9l-52.54 1h-52.1Zm1.82-3h50.26l49.22-.94-20.26-22.45c-.16.06-.33.09-.5.09h-44.48l-29.61-.79-4.62 24.09Z" fill="#ee2a7b"/><path fill="#fff" d="M623.32 126.26h-.61l5.4-28.13 31.27.83h44.47v1h-44.48l-30.44-.81-5.01 26.11h51.47l51.44-.98-22.84-25.31.74-.67 24.31 26.94-53.64 1.02h-52.08z"/><path d="M321.65 101.63c6.52.79 2.04 32.19.93 38.41-24.6-23.71-51.55-11.29-55.79-2.74-11.16 22.48 39.98 36.27 40.62 36.42 41.62 9.44 232.47 37.78 268.73-32.85 3.71-7.22-1.79-13.89-11.88-20.31l-13.35-7.72c-12.56-7.91-19.2-16-22.76-32.27C511.13 2.76 698.42 17.2 723.28 20.53c15.28 2.05 34.2 9.3 44.66 16.43 11.06 7.55 17.12 24.21 16.62 30.57-4.28 54.44-69.18 59.86-69.18 59.86s3.41-16.26 4.99-25.96c0 0-1.03 3.89 17.07-7.83 4.36-2.82 11.42-12.64 11.63-20.5.22-8.56-2.96-18.84-18-26.08-7.15-3.45-174.39-15.48-172.44 29.91.31 7.26 5.77 10.48 16.68 17.53l12.77 8.12c12.98 8.34 22.68 16.93 18.74 32.93-24.93 101.32-268.11 63.72-299.42 57.72-84.93-10.35-70.52-57.1-69.73-58.89 13.01-29.4 55.12-32.72 83.97-32.72Z" fill="#231f20"/><path d="M321.65 101.63c6.52.79 2.04 32.19.93 38.41-24.6-23.71-51.55-11.29-55.79-2.74-11.16 22.48 39.98 36.27 40.62 36.42 41.62 9.44 232.47 37.78 268.73-32.85 3.71-7.22-1.79-13.89-11.88-20.31l-13.35-7.72c-12.56-7.91-19.2-16-22.76-32.27C511.13 2.76 698.42 17.2 723.28 20.53c15.28 2.05 34.2 9.3 44.66 16.43 11.06 7.55 17.12 24.21 16.62 30.57-4.28 54.44-69.18 59.86-69.18 59.86s3.41-16.26 4.99-25.96c0 0-1.03 3.89 17.07-7.83 4.36-2.82 11.42-12.64 11.63-20.5.22-8.56-2.96-18.84-18-26.08-7.15-3.45-174.39-15.48-172.44 29.91.31 7.26 5.77 10.48 16.68 17.53l12.77 8.12c12.98 8.34 22.68 16.93 18.74 32.93-24.93 101.32-268.11 63.72-299.42 57.72-84.93-10.35-70.52-57.1-69.73-58.89 13.01-29.4 55.12-32.72 83.97-32.72Z" fill="none" stroke="#ee2a7b" stroke-linecap="round" stroke-linejoin="round" stroke-width="3"/><path d="M321.65 101.63c6.52.79 2.04 32.19.93 38.41-24.6-23.71-51.55-11.29-55.79-2.74-11.16 22.48 39.98 36.27 40.62 36.42 41.62 9.44 232.47 37.78 268.73-32.85 3.71-7.22-1.79-13.89-11.88-20.31l-13.35-7.72c-12.56-7.91-19.2-16-22.76-32.27C511.13 2.76 698.42 17.2 723.28 20.53c15.28 2.05 34.2 9.3 44.66 16.43 11.06 7.55 17.12 24.21 16.62 30.57-4.28 54.44-69.18 59.86-69.18 59.86s3.41-16.26 4.99-25.96c0 0-1.03 3.89 17.07-7.83 4.36-2.82 11.42-12.64 11.63-20.5.22-8.56-2.96-18.84-18-26.08-7.15-3.45-174.39-15.48-172.44 29.91.31 7.26 5.77 10.48 16.68 17.53l12.77 8.12c12.98 8.34 22.68 16.93 18.74 32.93-24.93 101.32-268.11 63.72-299.42 57.72-84.93-10.35-70.52-57.1-69.73-58.89 13.01-29.4 55.12-32.72 83.97-32.72Z" fill="none" stroke="#fff" stroke-linecap="round" stroke-linejoin="round"/></g><g data-name="Top Layer"><g stroke="#ee2a7b" stroke-miterlimit="10" stroke-width="3"><path d="M489.42 38.68h35.55l12.88 133.48-30.69 7.03-1.42-35.32h-39.07l-15.28 39.76-36.67-.26 74.69-144.7Zm-12.2 81.89h27.49l-.62-17.53c-.62-13.68-1.24-26.51-1.45-41.05h-.83c-5.79 14.32-10.75 27.37-16.74 41.05l-7.85 17.53ZM348.45 38.68h31.21c35.97 0 59.94 17.75 59.94 56.23 0 53.02-45.27 87.32-74.41 85.16-29.13-2.15-42.62-7.41-42.62-7.41l25.87-133.99Zm16.12 114.39c22.94 0 44.44-17.96 44.44-56.23 0-24.16-14.06-33.35-29.97-33.35h-5.58l-17.36 89.58h8.48Z" fill="#f0512c"/><path d="M328.62 99.9c-.02.08-4.92 28.27-6.04 34.49-24.68-23.71-44.77-7.37-49.02 1.18-11.2 22.48 40.12 36.27 40.77 36.42 41.77 9.44 233.3 37.78 269.69-32.85 3.72-7.22-3.42-13.74-13.55-20.15l-10.01-6.78c-12.61-7.91-21.03-17.1-24.6-33.36-17.08-77.81 170.88-63.37 195.82-60.04 15.34 2.05 34.32 9.3 44.82 16.43 11.1 7.55 17.18 24.21 16.68 30.57-4.3 54.44-69.43 59.86-69.43 59.86s3.43-16.26 5.01-25.96c0 0-1.04 3.89 17.13-7.83 4.38-2.82 11.46-12.64 11.67-20.5.22-8.56-2.97-18.84-18.06-26.08-7.17-3.45-175.01-15.48-173.05 29.91.31 7.26 5.79 10.48 16.74 17.53l12.82 8.12c13.02 8.34 22.76 16.93 18.81 32.93-25.02 101.32-269.06 63.72-300.49 57.72-85.24-10.35-70.77-57.1-69.98-58.89 13.05-29.4 55.32-32.72 84.27-32.72Z" fill="#4453a4"/><path d="m635.78 42.68 29.87-1.16-10.69 56.84-5.18 27.01h44.03l5.38-26.94 10.53-56.02 29.36 2.57-26.87 139.19h-29.77l11.37-58.8h-44.03l-11.16 58.8h-29.77l26.92-141.48Z" fill="#f0512c"/></g><g fill="none" stroke="#fff"><path d="M489.42 38.68h35.55l12.88 133.48-30.69 7.03-1.42-35.32h-39.07l-15.28 39.76-36.67-.26 74.69-144.7Zm-12.2 81.89h27.49l-.62-17.53c-.62-13.68-1.24-26.51-1.45-41.05h-.83c-5.79 14.32-10.75 27.37-16.74 41.05l-7.85 17.53ZM348.45 38.68h31.21c35.97 0 59.94 17.75 59.94 56.23 0 53.02-45.27 87.32-74.41 85.16-29.13-2.15-42.62-7.41-42.62-7.41l25.87-133.99Zm16.12 114.39c22.94 0 44.44-17.96 44.44-56.23 0-24.16-14.06-33.35-29.97-33.35h-5.58l-17.36 89.58h8.48Z"/><path d="M328.62 99.9c-.02.08-4.92 28.27-6.04 34.49-24.68-23.71-44.77-7.37-49.02 1.18-11.2 22.48 40.12 36.27 40.77 36.42 41.77 9.44 233.3 37.78 269.69-32.85 3.72-7.22-3.42-13.74-13.55-20.15l-10.01-6.78c-12.61-7.91-21.03-17.1-24.6-33.36-17.08-77.81 170.88-63.37 195.82-60.04 15.34 2.05 34.32 9.3 44.82 16.43 11.1 7.55 17.18 24.21 16.68 30.57-4.3 54.44-69.43 59.86-69.43 59.86s3.43-16.26 5.01-25.96c0 0-1.04 3.89 17.13-7.83 4.38-2.82 11.46-12.64 11.67-20.5.22-8.56-2.97-18.84-18.06-26.08-7.17-3.45-175.01-15.48-173.05 29.91.31 7.26 5.79 10.48 16.74 17.53l12.82 8.12c13.02 8.34 22.76 16.93 18.81 32.93-25.02 101.32-269.06 63.72-300.49 57.72-85.24-10.35-70.77-57.1-69.98-58.89 13.05-29.4 55.32-32.72 84.27-32.72Z"/><path d="m635.78 42.68 29.87-1.16-10.69 56.84-5.18 27.01h44.03l5.38-26.94 10.53-56.02 29.36 2.57-26.87 139.19h-29.77l11.37-58.8h-44.03l-11.16 58.8h-29.77l26.92-141.48Z"/></g></g><path fill="#4453a4" d="m332.07 28.19 9.42-26.68 188.81 1.4 7.48 24.25-205.71 1.03z"/><path fill="none" stroke="#ee2a7b" stroke-miterlimit="10" stroke-width="3" d="m332.07 28.19 9.42-26.68 188.81 1.4 7.48 24.25-205.71 1.03z"/><path fill="none" stroke="#fff" stroke-miterlimit="10" d="m332.07 28.19 9.42-26.68 188.81 1.4 7.48 24.25-205.71 1.03z"/><g data-name="Left Foot" fill="none" stroke="#4454a5" stroke-linecap="round" stroke-miterlimit="10" stroke-width="4"><path d="m776.67 192.86 2.17-1.02M773.54 191.5l3.3 1.52M772.56 193.39l4.28-.37M774.92 187.28l1.92 5.74"/></g><ellipse data-name="Back Wing" cx="764.14" cy="162.78" rx="25.05" ry="9.57" transform="rotate(-53.42 764.19 162.766)" fill="#4453a4"/><path d="M791.86 155.59c4.65 9.2 7.27 32.9-1.93 37.55-.73.37-2.08 1.52-2.32.73-1.71-5.59-2.76.09-4.25-.26-9.31-2.19-21.12-13.87-24.81-21.17-4.65-9.2-3.04-24.53 6.16-29.18 9.2-4.65 22.5 3.14 27.15 12.34Z" fill="#f0512c"/><ellipse cx="794.11" cy="159.99" rx="9.57" ry="25.05" transform="rotate(-53.42 794.17 159.98)" fill="#4453a4"/><g data-name="Right Foot"><path fill="none" stroke="#4454a5" stroke-linecap="round" stroke-miterlimit="10" stroke-width="4" d="m792.23 186.4 3.25 5.1M796.37 187.98l-.89 3.52M798.46 188.41l-2.98 3.09M795.46 191.27l-2.15 1.04"/><path d="m796.17 187.44-1.1 1.99s.27-2.21.9-2.39.2.39.2.39ZM798.37 187.88l-1.79 1.41s1.11-1.93 1.76-1.85.03.44.03.44Z" fill="#231f20" opacity=".2"/></g><path data-name="Head" d="M778.93 140.55c0-8.17-10.85-14.79-14.79-14.79-8.17 0-13.14 7.99-14.79 14.79 0 8.17 6.62 14.79 14.79 14.79s14.79-6.62 14.79-14.79Z" fill="#f0512c"/><path d="M759.51 145.67c-.59-1.74-3.6-.2-5.34.38s-7.87-.07-7.28 1.67 7.56 3.17 9.3 2.58 3.91-2.89 3.32-4.64Z" fill="#211e1e"/><path data-name="Beak" d="M759.61 145.39c0 2.67-5.44 1.95-8.44 1.95s-12.09 3.74-12.09 1.07 10.01-7.85 13-7.85 7.53 2.16 7.53 4.83Z" fill="#353030"/><circle cx="761.47" cy="137.88" r="2.67" fill="#231f20"/><path d="M761.47 137.17s-1.96-.27-1.07-.89 2.77-.27 2.59.89c-.89-.6-1.52 0-1.52 0ZM739.55 147.65c7.12-7.1 14.59-7.32 14.41-6.16-8.09-.53-15.18 6.93-14.41 6.16Z" fill="#fff"/><path d="M747.12 148.14h4.3s8.12.7 8.2-2.18c-1.16 1.48-2.04 1.27-4.16 1.47-5.98-.52-8.34.71-8.34.71Z" fill="#231f20" opacity=".52"/><path d="M764.14 137.74s-.01 3.33-2.56 3.26-2.82-2.72-2.77-3.26 5.34 0 5.34 0Z" fill="#231f20" opacity=".2"/><path d="M757.03 153.53s4.85 2.21 8.11 0c-3.01 3.92-8.56 1.82-8.56 1.82l.45-1.82Z" fill="#231f20" opacity=".18"/><path d="M756.64 157.14c-1.93 12.11 6.33 21.05 6.33 21.05s-.99.8-2.41 1.85c-7.42 2.65-4.69-21.83-4.69-21.83l.77-1.07ZM771.19 152.95s1.37-.24 2.89-1.63c1.12 3.4 4.86 10.69 21.86 21.16 0 2.87.16 6.9.16 6.9s-9.93-1.76-24.9-26.43Z" fill="#231f20" opacity=".2"/></g><g data-name="Icon Logo&amp;apos;s"><ellipse data-name="Back Wing" cx="64.49" cy="96.63" rx="64.45" ry="24.62" transform="rotate(-53.42 64.498 96.636)" fill="#4453a4"/><path d="M45.19 82.13c-4.96 31.15 16.3 54.16 16.3 54.16s-2.56 2.06-6.2 4.76c-19.1 6.81-12.06-56.17-12.06-56.17l1.97-2.75Z" fill="#231f20" opacity=".2"/><g data-name="Body"><path data-name="Body-base" d="M135.82 78.15c11.97 23.67 18.7 84.66-4.98 96.62-1.87.94-5.35 3.9-5.98 1.87-4.41-14.39-7.09.23-10.94-.67-23.97-5.63-54.34-35.7-63.84-54.49-11.97-23.67-7.81-63.12 15.86-75.09 23.67-11.97 57.9 8.09 69.87 31.76Z" fill="#f0512c"/></g><ellipse data-name="WIng" cx="141.63" cy="89.46" rx="24.62" ry="64.45" transform="rotate(-53.42 141.642 89.463)" fill="#4453a4"/><path d="M82.62 71.35s3.53-.61 7.43-4.21c2.87 8.75 12.5 27.51 56.24 54.44 0 7.38.41 17.77.41 17.77s-25.55-4.52-64.08-68Z" fill="#231f20" opacity=".2"/><g fill="none" stroke="#4454a5" stroke-linecap="round" stroke-miterlimit="10" stroke-width="4"><path d="m96.74 174.05 5.57-2.63M88.68 170.54l8.5 3.93M86.16 175.42l11.02-.95M92.23 159.7l4.95 14.77"/></g><g data-name="Head"><path data-name="Head" d="M102.55 39.45c0-21.02-27.91-38.07-38.07-38.07-21.02 0-33.81 20.55-38.07 38.07 0 21.02 17.04 38.07 38.07 38.07s38.07-17.04 38.07-38.07Z" fill="#f0512c"/><path data-name="Beak" d="M52.58 52.61c-1.51-4.49-9.26-.52-13.75.99s-20.25-.18-18.73 4.31c1.51 4.49 19.45 8.15 23.93 6.63 4.49-1.51 10.06-7.44 8.55-11.93Z" fill="#211e1e"/><path d="M64.49 32.2s-.03 8.58-6.6 8.39c-6.57-.19-7.26-7-7.14-8.39s13.74 0 13.74 0Z" fill="#231f20" opacity=".2"/><path d="M20.68 58.97h11.06s20.9 1.79 21.09-5.6c-2.99 3.82-5.24 3.26-10.7 3.79-15.4-1.34-21.46 1.82-21.46 1.82Z" fill="#231f20" opacity=".52"/><path data-name="Beak" d="M52.84 51.88c0 6.87-14.01 5.01-21.71 5.01S0 66.51 0 59.65s25.75-20.2 33.45-20.2 19.38 5.57 19.38 12.44Z" fill="#353030"/><circle cx="57.62" cy="32.57" r="6.87" fill="#231f20"/><path d="M57.62 30.74s-5.04-.7-2.74-2.3 7.12-.69 6.65 2.3c-2.29-1.54-3.91 0-3.91 0ZM1.22 57.71c18.33-18.26 37.53-18.84 37.07-15.85C17.48 40.5-.77 59.69 1.22 57.71Z" fill="#fff"/><path d="M46.2 72.84s12.48 5.68 20.87 0c-7.75 10.1-22.02 4.67-22.02 4.67l1.15-4.67Z" fill="#231f20" opacity=".18"/></g><path fill="none" stroke="#4454a5" stroke-linecap="round" stroke-miterlimit="10" stroke-width="4" d="m136.77 157.43 8.38 13.13M147.44 161.48l-2.29 9.08M152.82 162.58l-7.67 7.98M145.1 169.95l-5.55 2.69"/><path d="m146.91 160.09-2.84 5.13s.69-5.68 2.32-6.14.52 1.01.52 1.01ZM152.59 161.23l-4.62 3.62s2.85-4.96 4.53-4.75.08 1.13.08 1.13Z" fill="#231f20" opacity=".2"/></g></svg>