<svg xmlns="http://www.w3.org/2000/svg" viewBox="0 0 709 637" xml:space="preserve"><path fill="#FEFEFE" d="M1.317 254.22C1 171.016 1.024 88.032.91 5.05c-.004-3.317.516-4.15 4.04-4.15 233.62.112 467.242.113 700.863-.008 3.779-.002 4.27.987 4.269 4.421-.093 209.293-.096 418.585.02 627.878.002 3.927-.608 4.931-4.791 4.929C490.52 637.984 275.729 638 60.469 638c-2.162-1.758-3.985-2.065-6.222-.245-5.935.245-11.623.245-17.78.245-2.397-1.535-2.164-4.06-3.393-6.493-1.26 2.046-.392 4.353-1.844 6.235-9.052.258-17.878.119-26.694.338-2.884.071-3.65-.449-3.63-3.538C1.07 608.077 1 581.61 1 555.143V323.47c9.8-2.955 19.426-6.237 29.563-7.191 2.253-.212 3.635-1.218 4.777-3.033 3.066-4.867 2.408-10.222 2.106-15.512-.107-1.89-1.753-2.082-3.276-2.415-5.127-1.122-5.423-1.584-2.326-5.936 5.61-7.885 8.26-16.488 7.847-26.195-.52-12.22-9.636-18.641-21.258-14.675-5.62 1.917-11.112 4.2-17.116 5.708z"/><path fill="#111" d="M1 254.454c5.216-2.447 10.481-4.32 15.638-6.456 13.375-5.54 23.83 1.066 24.419 15.565.414 10.192-2.613 19.29-8.876 27.324-.683.877-1.387 1.737-2.128 2.663.558.348.801.634 1.025.62 9.42-.596 7.714-.706 7.904 7.754.07 3.082.603 6.164-1.124 9.205-2.214 3.898-3.686 6.641-9.678 6.546-7.037-.111-14.123 3.174-21.198 4.945-1.727.432-3.457 1.36-5.634.35C1 322.25 1 321.5 1 320.375c.302-.81.604-1.246 1.232-1.904 5.996-2.03 11.786-3.427 17.66-4.27 5.03-.722 8.311-2.743 8.609-8.566.787-.842 1.448-1.121 2.583-1.105 1.673.002 1.956 1.303 2.775 1.928.033-.902.17-1.877-.223-2.66-.222-.441-.75.233-1.464.5-1.228.273-2.225.003-3.315.898-5.1 2.131-10.226 2.863-15.196 4.18-1.816.48-3.762.71-4.827-1.352-.934-1.809.284-3.19 1.36-4.456 5.717-6.728 11.22-13.555 14.983-21.682 2.812-6.073 3.994-12.287 3.472-18.898-.439-5.564-3.325-8.373-8.958-8.65-3.023-.148-5.966.196-8.812 1.331-5.21 2.08-5.84 3.83-3.28 8.66 1.127 2.125 2.251 2.745 4.74 1.781 6.9-2.671 10.818-.36 9.727 6.412-1.975 12.268-6.94 23.175-18.374 30.263-.635-.037-.885-.092-1.464-.346-.741-.88-.708-1.637-.678-2.751 1.274-3.333 3.619-5.52 5.543-7.998 4.241-5.46 7.033-11.523 8.294-18.346-1.658-.543-2.215.787-3.084 1.362-3.238 2.146-5.7 1.231-7.44-1.923-1.437-2.608-2.842-5.265-3.647-8.513C1 260.97 1 257.94 1 254.454z"/><path fill="#F8F8F8" d="M29.6 304.99c.196.362.099.509.07.668-1.482 8.358-1.488 8.327-10.277 10.194-5.506 1.17-10.99 2.45-16.864 3.845-.572.019-.762-.126-1.24-.484C1 318.556 1 318.111 1 317.333c2.264-4.915.208-9.874 1.395-14.961 5.783-1.715 8.26-6.557 10.944-10.763 3.194-5.004 5.969-10.382 7.258-16.288.661-3.027 1.838-6.656-1.358-8.72-3.355-2.166-6.288.035-8.82 2.417-.333.314-.756.533-1.292.902-2.492-3.081-3.164-6.968-5.053-10.233-.69-1.192-.635-2.202.891-2.712.311-.104.593-.297.887-.45 6.491-3.391 13.326-6.517 20.106-1.591 6.911 5.022 5.068 12.697 3.383 19.298-2.931 11.485-9.652 21.004-17.819 29.51-1.033 1.077-3.249 1.976-1.921 3.972 1.084 1.63 2.62.317 4.033-.03 4.827-1.187 9.696-2.202 14.963-3.383.524.094.633.288 1.003.69z"/><path fill="#F8F8F8" d="M1 264.469c2.706 1.867 3.681 5.256 5.11 8.308 1.583 3.38 3.198 3.128 5.532.868 1.47-1.425 2.456-3.565 5.524-3.95-1.061 11.832-6.396 21.071-14.893 29.105-.432.382-.603.555-1.023.463C1 287.646 1 276.292 1 264.47z"/><path fill="#0D0D0D" d="M31.417 638c-.445-2.27-.492-4.538-.493-6.808 0-1.217.271-2.333 1.794-2.372 1.4-.036 2.003.865 2.182 2.131.294 2.09.577 4.18.982 6.66-1.27.389-2.66.389-4.465.389zM2.578 301.992c.318 5.247 1.595 10.56-1.208 15.345-.37-5.026-.37-9.716-.37-14.87.261-.627.523-.787 1.164-.688.38.258.444.231.414.213z"/><path fill="#222" d="M54.428 638c1.07-3.742 2.85-5.027 5.426-.328-1.568.328-3.283.328-5.426.328z"/><path fill="#8D8D8D" d="M2.427 301.665c-.14.374-.398.376-1.041.357C1 301.25 1 300.5 1 299.375c.168-.367.337-.359.758-.358.352.754.451 1.515.669 2.648zM1 319.25c.156-.06.312.13.808.465.074.318-.192.49-.633.474C1 320 1 319.5 1 319.25z"/><path fill="#0D0D0D" d="M229.232 388c0-43.642.065-86.784-.102-129.925-.016-4.22 1.167-5.147 5.238-5.141 86.117.12 172.233.12 258.35-.003 4.06-.005 5.256.879 5.243 5.115-.158 50.97-.157 101.94 0 152.91.012 4.202-1.118 5.148-5.213 5.142-86.116-.125-172.233-.123-258.349-.004-4.037.006-5.488-.82-5.272-5.113.377-7.476.105-14.985.105-22.981z"/><path fill="#0B0B0B" d="M353 455.028c47.656 0 94.812.076 141.967-.121 4.532-.02 5.354 1.23 5.341 5.484-.156 50.488-.149 100.977-.008 151.465.011 3.992-.702 5.265-5.043 5.257-85.98-.15-171.96-.142-257.941-.017-4.15.006-5.19-1.06-5.177-5.203.151-50.655.14-101.31.014-151.965-.01-3.832.822-5.018 4.874-5 38.49.168 76.982.1 115.973.1z"/><path fill="#070707" d="M496.197 153c0 18.494-.09 36.488.076 54.48.033 3.653-.56 5.087-4.76 5.08-86.299-.14-172.597-.138-258.896-.002-4.143.006-4.774-1.353-4.765-5.038.111-50.648.139-101.297-.039-151.944-.015-4.344 1.273-5.05 5.262-5.044 85.966.118 171.933.134 257.9-.032 4.597-.008 5.343 1.34 5.32 5.536-.178 32.154-.098 64.31-.098 96.964z"/><path fill="#0B0B0B" d="M683.766 147c0 21.333-.076 42.167.075 63 .025 3.4-.759 4.517-4.353 4.507-43.332-.124-86.665-.12-129.998-.004-3.392.009-4.105-1.062-4.1-4.25.095-51.167.095-102.333.001-153.5-.006-3.184.703-4.258 4.096-4.25 43.333.116 86.666.12 129.999-.003 3.587-.01 4.369 1.096 4.354 4.501-.129 29.833-.074 59.666-.074 90z"/><path fill="#0A0A0A" d="M589 417.73c-12.994 0-25.49-.114-37.981.076-3.317.05-4.136-.927-4.13-4.193.105-51.476.116-102.951-.016-154.426-.01-3.691 1.196-4.25 4.51-4.242 43.145.11 86.291.116 129.437-.01 3.485-.01 4.398.844 4.39 4.363-.121 51.31-.132 102.618.014 153.927.01 3.895-1.164 4.603-4.768 4.586-30.318-.143-60.637-.081-91.456-.081z"/><path fill="#0D0D0D" d="M549.448 495c0-11.658.127-22.818-.076-33.972-.061-3.359 1.027-4.096 4.234-4.088 43.298.105 86.597.11 129.895-.005 3.408-.009 4.475.75 4.466 4.34-.123 50.958-.128 101.918.007 152.876.01 3.796-1.022 4.684-4.723 4.673-42.965-.132-85.93-.136-128.896.003-3.885.012-5.017-.91-5.001-4.922.158-39.468.095-78.937.094-118.905z"/><path fill="#040404" d="M190.969 199.966c0 11.496 0 11.496-11.152 11.496-40.637 0-81.274-.068-121.91.102-4.177.018-5.17-1.075-5.158-5.188.148-50.63.153-101.26-.01-151.89-.013-4.115 1.293-4.765 4.987-4.755 42.802.122 85.605.13 128.406-.01 3.843-.012 4.947.868 4.934 4.856-.15 48.298-.097 96.597-.097 145.39z"/><path fill="#090909" d="M195.007 611.842c.383 3.129-.41 4.234-3.426 4.227-43.826-.098-87.652-.09-131.478-.01-2.667.005-3.325-.793-3.321-3.373.069-51.825.085-103.65-.024-155.474-.008-3.415 1.696-3.194 4.003-3.192 43.326.03 86.652.098 129.978-.095 4.278-.02 4.322 1.751 4.317 4.959-.07 50.825-.049 101.65-.05 152.958z"/><path fill="#070707" d="M54.13 319.391c.081-21.284.133-42.254-.014-63.223-.022-3.201.757-4.208 4.11-4.2 43.44.116 86.882.13 130.323-.018 3.677-.013 3.91 1.466 3.906 4.365-.072 52.263-.066 104.526-.2 157.244-.422.58-.672.77-1.068 1.158-42.484.183-84.772.235-127.06.281-9.942.011-9.933.002-9.944-9.708-.03-26.472-.069-52.945-.059-79.889-.423-2.201-.363-3.945.006-6.01z"/><path fill="#111" d="M31.15 559.745c-3.15 2.655-6.357 1.833-9.554.957-3.804-1.042-7.34-3.184-11.509-2.725-.879.097-1.956-.274-1.94-1.13.041-2.343 1.846-4.758-2.002-6.428-.87-.378.116-5.615.676-8.532.57-2.966 1.682-5.156 5.741-5.16 6.555-.005 12.625-10.076 10.214-16.066-.767-1.906-2.172-2.464-4.002-1.93-1.96.573-3.38-.1-4.05-1.856-1.412-3.704-.981-7.553-.045-11.246.324-1.279 1.832-2.646 3.48-2.355 5.23.923 7.072-2.742 8.727-6.395 2.13-4.7 2.625-9.631.674-14.556-2.005-5.062-5.455-5.93-8.954-1.797-3.24 3.828-4.998 3.053-7.2-.802-1.373-2.405-3.05-5.016-5.287-6.45-2.693-1.727-1.488-3.384-.797-5.014.484-1.142 1.776-1.93 2.668-2.911 6.506-7.158 15.419-4.37 23.163-4.784 6.027-.323 9.312 5.91 11.704 11.078 5.624 12.15 6.303 24.643 1.477 37.268-.407 1.065-1.115 1.892-.358 3.176 8.16 13.848 5.067 26.707-4.006 39.71 3.749.001 7.06.49 10.103 2.062 6.782 3.506 7.671 9.916 1.853 14.747-2.027 1.684-4.381 2.977-6.602 4.424-4.16 2.708-7.715 1.253-11.04-1.648-3.014-2.629-3.56-5.846-2.093-9.847.183-.913.207-1.48.61-2.222.45-.488.715-.76 1.207-1.206.668-.53 1.161-.818 1.82-1.35.538-.313.842-.477 1.232-.82.122-.119.203-.265.105-.14-.097.124-.412.376-.606.5-.898.315-1.353.887-2.147 1.453-.51.417-.792.667-1.242 1.15-.637.601-1.188.697-2.02.845zM24.597 4.758c1.858-2.844 2.987-2.626 5.624-.74 4.35 3.11 5.018 6.865 5.164 11.706.405 13.39 1.864 26.767 1.784 40.143-.03 4.983-3.085 9.983-4.969 14.895-.417 1.088-2.005 1.002-3.163 1.126-3.311.355-6.62.744-9.936 1.045-5.935.537-6.987-.179-7.132-6.317-.375-15.825-.483-31.656-.746-47.484-.038-2.28 1.974-4.346.173-6.93-.777-1.115 1.279-2.027 2.457-2.57 3.46-1.597 6.947-3.134 10.744-4.874z"/><path fill="#222" d="M53.854 319.054c1.813 1.705 1.208 3.575.59 5.649-2.494 3.81-4.632 7.449-6.956 10.964-2.841 4.297-7.208 4.41-10.097.177-3.205-4.697-2.843-9.634-.574-14.671 1.217-2.7 3.454-4.634 4.889-7.237 1.358-2.464 4.718-1.987 7.198-.575 2.208 1.257 3.824 3.158 4.95 5.693z"/><path fill="#0D0D0D" d="M40.032 44.519c-.808-4.867 1.176-8.144 4.634-10.607 2.461-1.753 2.886-6.049 7.739-5.011 3.565.763 6.31 2.087 8.056 4.996 1.665 2.775.144 5.338-1.456 7.792-2.388 3.66-5.933 5.83-9.84 7.112-3.8 1.246-7.239.221-9.133-4.282z"/><path fill="#8D8D8D" d="M31.223 559.94c.052-.463.444-.825 1.103-1.27.502.03.734.143 1.253.517-.052.752-.389 1.241-.992 1.864-.52-.248-.773-.629-1.364-1.11z"/><path fill="#222" d="M191.3 414.91c-.156-.36.067-.594.595-.829.062.253-.112.571-.595.83z"/><path fill="#F4F4F4" d="M33.861 271.365c.959-7.768.288-14.659-5.751-20.125 4.653.239 7.705 3.431 8.915 9.131 1.643 7.747-.37 14.905-3.986 21.622-1.335 2.478-2.11 5.5-5.69 7.995 2.825-6.627 5.01-12.287 6.512-18.623zM28.077 300.215c-3.414.632-6.263 2.268-9.836 1.577 3.08-4.62 7.43-2.279 11.174-2.536-.043.159-.036.388-.14.462-.242.172-.537.27-1.198.497zM31.598 304.137c.986-1.12 1.816-1.89 3.11-3.093.18 3.326 1.367 6.221-1.403 9.23-.322-1.882-.563-3.288-1.065-4.971-.44-.459-.618-.639-.642-1.166z"/><path fill="#8D8D8D" d="M31.47 303.76c.322.235.36.44.453.956-.474.344-1.004.38-1.798.449-.425-.115-.587-.264-.931-.688.543-.432 1.268-.59 2.276-.717z"/><path fill="#F4F4F4" d="M27.176 289.797c.758.444.846 1.032-.031 1.086-.83.052-.994-.375.031-1.086z"/><path fill="#FDFDFD" d="M377.063 339.087c-2.84-1.014-5.3-1.93-9.128-3.354l120.993-41.865v81.895c-37.38-12.264-74.431-24.42-111.865-36.676z"/><path fill="#FCFCFC" d="M239.3 374.675c-.083-25.75-.083-51.037-.083-77.1l115.306 37.977c-4.253 2.844-8.928 3.925-13.36 5.465-21.484 7.464-43.013 14.801-64.521 22.196-10.677 3.67-21.338 7.385-32.021 11.036-1.68.574-3.341 1.5-5.322.426z"/><path fill="#FAFAFA" d="M359.219 324.907v8.223c-12.674-4.178-24.787-8.162-36.895-12.164-26.154-8.643-52.312-17.276-78.443-25.993-1.558-.52-4.514-.453-4.16-2.473.345-1.973 3.083-.783 4.689-.793 36.622-.218 73.245-.286 109.867-.556 3.747-.028 5.2.66 5.05 4.81-.343 9.476-.108 18.973-.108 28.946z"/><path fill="#FBFBFB" d="M425.581 311.653c-18.828 6.547-37.295 12.94-56.548 19.604V310.25c0-4.826.262-9.671-.084-14.472-.272-3.765.903-4.696 4.653-4.684 32.284.1 64.569-.028 96.853-.086 3.936-.007 7.872-.001 12.058.991-18.857 6.5-37.714 12.999-56.932 19.653z"/><path fill="#F8F8F8" d="M324.758 287.61c-27.787.103-55.099.14-82.408.404-2.797.027-3.264-.726-3.205-3.18.142-5.826.303-11.672-.047-17.48-.23-3.813.966-4.689 4.692-4.668 29.142.163 58.285.09 87.428.09 8.16 0 16.322.118 24.478-.064 2.85-.063 3.688.818 3.588 3.625-.203 5.654-.238 11.33.009 16.98.14 3.205-.749 4.25-4.085 4.195-9.988-.169-19.982.036-30.45.097zM385.002 262.776c33.465 0 66.43.068 99.394-.09 3.863-.019 5.18.88 4.902 4.867-.37 5.302-.186 10.651-.05 15.975.062 2.393-.336 3.514-3.181 3.515-37.96.019-75.92.15-113.878.317-2.25.01-3.291-.426-3.219-2.989.174-6.155.147-12.32.01-18.477-.052-2.327.566-3.268 3.038-3.164 4.155.175 8.323.047 12.984.046z"/><path fill="#F5F5F5" d="M252.014 381.082c34.485.173 68.473.42 102.46.416 4.005 0 5.054 1.138 4.841 4.977-.322 5.813-.213 11.662-.027 17.487.084 2.634-.718 3.365-3.353 3.359-37.82-.082-75.64-.08-113.46-.006-2.66.005-3.41-.87-3.344-3.446.16-6.327.223-12.667-.021-18.989-.12-3.117.826-4.164 3.914-3.877 2.809.26 5.66.07 8.99.08z"/><path fill="#FAFAFA" d="M463.998 377.986c-30.451-.115-60.403-.293-90.355-.258-3.64.004-4.822-.78-4.715-4.629.296-10.628.102-21.27.102-32.764l112.167 36.926-.086.726-17.113-.001z"/><path fill="#FCFCFC" d="M254.854 374.757c23.293-8.047 46.132-16.197 69.132-23.868 11.612-3.873 22.925-8.69 35.223-11.714 0 12.096-.062 23.912.036 35.727.032 3.864-2.7 2.607-4.525 2.601-23.327-.073-46.653-.255-69.98-.363-11.328-.052-22.657-.009-34.606-.009 1.467-1.582 2.858-2.007 4.72-2.374z"/><path fill="#F5F5F5" d="M421 381.917c21.648.051 42.797.19 63.945.063 3.499-.02 4.537.865 4.352 4.37-.307 5.813-.18 11.655-.038 17.48.06 2.43-.387 3.503-3.204 3.496-37.968-.092-75.935-.093-113.902 0-2.87.008-3.23-1.151-3.177-3.544.133-5.992.22-11.996-.027-17.98-.134-3.223.748-4.223 4.093-4.17 15.817.246 31.638.215 47.958.285z"/><path fill="#FCFCFC" d="M392.075 527.943c24.537-8.459 48.7-16.79 72.86-25.126 8-2.76 16.011-5.49 23.98-8.337 2.029-.725 2.977-.76 2.97 1.87-.064 26.126-.039 52.253-.039 78.951l-120.533-39.715c7.503-2.767 13.944-5.142 20.762-7.643zM265.658 567.739a6186.2 6186.2 0 0 0-23.463 8.256v-4.059c0-23.314.11-46.63-.097-69.943-.04-4.462 1.019-4.58 4.865-3.303 36.85 12.236 73.77 24.261 111.986 36.779-31.75 10.993-62.329 21.581-93.291 32.27z"/><path fill="#FEFEFE" d="M243.793 491.576c38.91-.371 77.604-.471 116.759-.472.619.199.778.297 1.074.64.2 12.946.263 25.645.243 38.808-.195.637-.306.811-.643 1.199-13.434-4.112-26.648-8.422-39.85-12.767-25.646-8.44-51.286-16.902-77.17-25.623-.57-.622-.7-1.037-.413-1.785z"/><path fill="#F4F4F4" d="M491.87 598.96c0 9.317 0 9.317-8.853 9.317-35.33 0-70.66-.081-105.988.106-4.228.023-5.383-1.09-5.113-5.219.38-5.808.333-11.672.01-17.487-.207-3.7.788-4.729 4.611-4.69 30.662.318 61.325.384 91.988.534 6.666.032 13.333.198 19.997.09 2.565-.04 3.525.68 3.403 3.358-.204 4.49-.055 8.997-.055 13.99z"/><path fill="#F8F8F8" d="M320 580.956c12.991.028 25.484.178 37.972 0 3.355-.049 4.206.994 4.08 4.195-.241 6.153-.395 12.345.041 18.477.308 4.325-1.551 4.718-5.102 4.701-25.647-.122-51.296-.065-76.945-.065-11.325 0-22.651-.097-33.974.064-3.001.043-4.083-.695-3.961-3.867.249-6.486.275-12.996-.006-19.48-.152-3.536.976-4.438 4.448-4.403 24.315.245 48.631.277 73.447.378z"/><path fill="#FCFCFC" d="M436 490.747c16.956-.002 33.412-.002 49.868-.002l.22.76-114.057 39.48v-32.5c0-7.536 0-7.531 7.542-7.555 18.642-.058 37.284-.12 56.427-.183z"/><path fill="#FBFBFB" d="M331.276 549.227c10.218-3.561 20.061-7.005 30.7-10.727v30.21c0 8.318-.001 8.305-8.26 8.304-32.92-.006-65.84-.003-98.761-.003l-.345-1.38c25.43-8.763 50.86-17.524 76.666-26.404z"/><path fill="#FCFCFC" d="M433.077 559.899a23231.462 23231.462 0 0 1 49.668 16.532c-2.186 1.654-3.865 1.103-5.406 1.097-33.609-.13-67.216-.38-100.824-.375-3.824 0-4.664-1.052-4.576-4.702.258-10.636.092-21.282.092-32.582a36854.494 36854.494 0 0 0 61.046 20.03z"/><path fill="#F5F5F5" d="M243.698 491.036c.304.666.298 1.064.28 1.759-2.158.376-1.74-1.142-1.741-2.437-.01-6.988.176-13.986-.145-20.96-.17-3.695.802-4.764 4.627-4.73 22.463.196 44.929.096 67.393.096 14.311 0 28.626.191 42.93-.115 4.336-.092 5.377 1.269 5.026 5.287a73.368 73.368 0 0 0 0 12.466c.314 3.737-.847 4.685-4.611 4.676-32.782-.075-65.564.082-98.345.173-4.327.012-8.656-.041-12.979.09-2.047.061-4.365.262-2.435 3.695z"/><path fill="#F8F8F8" d="M463 464.772c8.831 0 17.163.082 25.492-.049 2.552-.04 3.536.652 3.423 3.347-.202 4.824-.236 9.67.007 14.49.155 3.061-.784 4.053-3.894 3.974-6.992-.178-13.994.029-20.991.056-30.158.119-60.316.154-90.471.436-3.775.036-4.927-.913-4.625-4.66.348-4.304.338-8.677.003-12.983-.287-3.684.753-4.733 4.583-4.71 28.657.181 57.315.099 86.473.099z"/><path fill="#F5F5F5" d="M361.824 491.736c-.309.173-.507.024-.733-.361.212-.078.503.015.733.361zM361.295 532.065c-.236-.391-.096-.634.308-.94.117.274.052.658-.308.94z"/><path fill="#FCFCFC" d="M378.894 165.222c-3.184-1.151-5.987-2.196-8.813-3.174-.955-.33-2.064-.523-2.16-1.718-.108-1.37 1.19-1.417 2.07-1.72 16.954-5.853 33.91-11.7 50.876-17.516 14.452-4.954 28.92-9.862 43.377-14.8 6.755-2.306 13.525-4.574 20.242-6.985 2.61-.937 3.434-.419 3.424 2.487-.09 26.653-.053 53.307-.053 80.762-36.473-12.496-72.532-24.85-108.963-37.336z"/><path fill="#FDFDFD" d="M248.445 196.588c-3.704.95-6.678 3.15-10.602 2.833V130.43c0-9.464.05-9.614 8.974-6.591 23.735 8.039 47.413 16.242 71.13 24.333 9.888 3.373 19.824 6.607 29.72 9.96 1.53.519 3.277.73 4.661 2.661a110292.398 110292.398 0 0 0-103.883 35.795z"/><path fill="#F5F5F5" d="M469 60.107c5.493 0 10.492.118 15.48-.049 2.547-.085 3.473.62 3.451 3.325-.12 14.982-.138 29.966.01 44.948.03 3.059-1.206 3.493-3.83 3.492-37.622-.006-75.246.04-112.869.197-2.935.012-3.567-.933-3.543-3.68.125-14.649.177-29.3-.027-43.948-.05-3.546.992-4.378 4.439-4.364 32.129.133 64.259.079 96.888.079z"/><path fill="#F6F6F6" d="M357.996 100.976c0 10.995 0 10.996-10.594 11.006-34.803.03-69.606-.005-104.408.182-3.938.02-5.39-.607-5.29-5.003.324-14.314.219-28.64.046-42.959-.039-3.235.782-4.18 4.11-4.17 37.3.121 74.6.131 111.9-.01 3.627-.013 4.37 1.115 4.313 4.49-.198 11.987-.077 23.978-.077 36.464z"/><path fill="#FDFDFD" d="M270 115.804c28-.03 55.5.047 82.998-.2 4.292-.038 5.197 1.198 5.083 5.254a563.625 563.625 0 0 0-.004 31.994c.13 4.51-1.15 4.932-5.028 3.52-14.52-5.286-29.112-10.376-43.71-15.445-22.441-7.792-44.914-15.496-67.35-23.302-.795-.276-2.062-.136-2.43-1.82l30.441-.001z"/><path fill="#FBFBFB" d="M357.985 197.876c.86 5.07-1.065 6.16-5.582 6.136-36.977-.194-73.956-.11-111.233-.82 1.964-.777 3.9-1.633 5.896-2.317A48105.851 48105.851 0 0 1 314 177.998c13.197-4.5 26.467-8.796 39.575-13.54 4.175-1.51 4.565-.273 4.483 3.452-.217 9.823-.073 19.654-.073 29.966z"/><path fill="#FCFCFC" d="M472.894 115.51c2.634-.002 4.784-.002 6.933-.002l.311 1.083c-6.491 2.404-12.94 4.931-19.482 7.19-23.063 7.961-46.157 15.833-69.24 23.734-6.912 2.365-13.845 4.667-20.733 7.095-2.165.764-2.959.37-2.941-2.066.083-11.324.161-22.651-.034-33.972-.066-3.766 2.313-2.86 4.28-2.866 33.474-.083 66.948-.136 100.906-.197z"/><path fill="#FBFBFB" d="M458.999 203.903c-29.161 0-57.823-.093-86.484.104-4.069.028-4.912-1.207-4.828-4.989.243-10.961.086-21.931.086-33.735l109.259 37.7-.077.92H459z"/><path fill="#FCFCFC" d="M564.427 71.594a364.927 364.927 0 0 0-6.73-5.724c-.99-.818-2.734-1.409-2.155-2.926.573-1.502 2.355-.805 3.598-.806 36.62-.032 73.24-.026 110.809-.026-3.6 3.421-6.572 6.354-9.658 9.162-14.635 13.316-29.33 26.566-43.92 39.933-1.795 1.644-2.806 1.912-4.84.175-15.543-13.267-31.223-26.373-47.104-39.788z"/><path fill="#FDFDFD" d="M646.763 88.77c9.27-8.53 18.314-16.789 27.99-25.625v101.81c-7.76-6.59-15.263-12.956-22.756-19.333-10.743-9.142-21.429-18.352-32.258-27.391-2.233-1.864-2.208-2.768-.023-4.71 9.048-8.037 17.897-16.3 27.047-24.752z"/><path fill="#FBFBFB" d="M562.932 75.017a6173.692 6173.692 0 0 1 29.524 25.12c5.552 4.754 10.954 9.692 16.641 14.277 2.347 1.892.716 2.615-.438 3.692-7.286 6.794-14.54 13.623-21.887 20.35-9.558 8.755-19.19 17.43-28.8 26.128-.592.536-1.262.985-2.398 1.862V69.67c2.47 1.808 4.76 3.484 7.358 5.347z"/><path fill="#FCFCFC" d="M570.097 167.956c-3.309.002-6.136.002-9.903.002 5.299-4.937 10.015-9.413 14.82-13.793 12.162-11.083 24.368-22.12 36.544-33.188 1.327-1.207 2.215-2.695 4.424-.802 17.79 15.242 35.69 30.355 53.542 45.523.18.153.171.527.678 2.255-33.508 0-66.566 0-100.105.003z"/><path fill="#F6F6F6" d="M600.996 171.666c23.467-.244 46.437-.368 69.4-.815 4.042-.078 4.95 1.11 4.827 4.921-.28 8.646-.214 17.31-.022 25.961.07 3.116-.578 4.255-4.03 4.243-37.282-.135-74.566-.124-111.85-.014-3.227.01-4.294-.777-4.204-4.119.232-8.649.203-17.31.01-25.962-.068-3.07.862-3.952 3.927-3.941 13.814.046 27.628-.154 41.942-.274z"/><path fill="#FBFBFB" d="M651.04 345.968c-11.16-9.435-22.04-18.653-33.193-28.102l58.56-53.463v103.056a25072.218 25072.218 0 0 0-25.367-21.49z"/><path fill="#FDFDFD" d="M559.975 268.767c-1.14-1.338-3.008-1.543-3.118-3.694h113.069c-12.588 11.51-24.864 22.736-37.138 33.962-5.268 4.819-10.586 9.585-15.767 14.496-1.658 1.572-2.524 1.597-4.4-.016-17.364-14.933-34.88-29.692-52.646-44.748z"/><path fill="#FAFAFA" d="M559.307 273.498c9.328 7.814 18.394 15.35 27.407 22.95 8.344 7.038 16.63 14.145 25.306 21.532l-54.444 49.689c-1.464-1.14-1.195-2.03-1.196-2.813-.015-29.799-.032-59.597.056-89.396.004-1.127-1.525-5.351 2.871-1.962z"/><path fill="#FCFCFC" d="M594.423 339.419c6.27-5.7 12.431-11.007 18.214-16.7 1.972-1.942 2.924-1.73 4.781-.148 8.97 7.648 18.07 15.145 27.088 22.737 8.498 7.152 16.954 14.355 25.422 21.542.471.4 1.137.711.724 2.338H561.587c10.85-9.835 21.714-19.682 32.836-29.77z"/><path fill="#F8F8F8" d="M638 373.188c11.833-.085 23.169-.017 34.494-.33 3.604-.1 4.45 1.039 4.365 4.47a588.707 588.707 0 0 0-.002 27.995c.071 3.142-.903 3.882-3.932 3.874-37.496-.098-74.994-.11-112.49.014-3.34.011-4.226-.927-4.15-4.182.211-8.994.225-18-.005-26.994-.085-3.366 1.021-4.098 4.232-4.114 25.663-.133 51.326-.46 77.489-.733z"/><path fill="#FCFCFC" d="M565.809 608.435c13.404-17.097 26.936-33.728 40.45-50.374 3.877-4.774 7.762-9.544 11.524-14.408 2.157-2.79 3.797-3.325 6.298-.127 7.27 9.292 14.83 18.358 22.238 27.542 1.033 1.28 1.863 3.317 3.82 1.821 1.977-1.514.188-2.912-.806-4.134-7.853-9.657-15.644-19.367-23.652-28.894-2.051-2.44-1.782-3.687.248-6.126 9.993-12.004 19.616-24.315 29.44-36.46 7.61-9.408 15.324-18.73 24.043-29.373 0 41.035 0 80.681.095 120.798-.126.562-.348.655-.93.71-2.632-2.3-3.976-5.733-7.852-5.975-4.466-.278-7.531 2.08-9.978 5.44-2.49 3.417-3.445 7.258-1.735 11.233 1.778 4.135 6.336 5.333 10.494 3.235 4.341-2.19 6.03-6.394 8.42-10.526.801-.313 1.274-.237 1.703.366-.107 5.254-.191 10.135-.444 15.434-1.112 1.239-2.251 1.366-3.438 1.368-10.976.019-21.952.022-32.927-.01-1.311-.003-3.053.25-3.549-1.164-.534-1.524 1.187-2.176 2.22-2.886 3.875-2.666 6.74-5.963 6.962-10.91.256-5.7-3.719-8.678-9.093-6.889-7.446 2.479-10.786 10.127-7.563 17.316 1.825 4.07 1.647 4.473-2.843 4.52-6.817.069-13.636.132-20.844-.133-.614-.218-.837-.353-1.237-.828.354-2.684 2.669-2.923 4.228-4.035 5.32-3.794 8.785-8.636 8.6-15.436-.179-6.595-6.182-10.383-12.32-7.893-11.308 4.587-13.535 16.199-5.164 27.027-.275.584-.492.765-1.126 1.08-10.616.4-20.817.2-31.017.232-1.455.005-3.004.2-4.265-1.541z"/><path fill="#FAFAFA" d="M559.375 493c0-7.83-.031-15.159.031-22.488.01-1.223-.71-2.9.897-3.555 1.517-.618 2.451.743 3.263 1.753 14.46 17.989 28.893 36.001 43.34 54.001 3.012 3.754 5.844 7.686 9.17 11.143 2.06 2.142 2.21 3.379.287 5.72-14.348 17.467-28.558 35.049-42.778 52.621-4.369 5.399-8.634 10.882-14.21 16.102V493z"/><path fill="#FEFEFE" d="M666.871 466.767h7.535c-3.905 7.085-9.366 12.364-13.981 18.243-10.37 13.212-21 26.22-31.527 39.309-.521.647-1.06 1.283-1.62 1.896-6.893 7.537-6.788 7.45-13.323-.668-13.344-16.574-26.83-33.033-40.216-49.574-2.187-2.703-4.152-5.586-6.826-9.206h99.958z"/><path fill="#3A3A3A" d="M565.384 608.13c1.44 1.76 3.301.809 4.793.822 10.283.09 20.567.038 31.317.02 1.797-1.079 3.23-1.33 5.171-.283 8.84.263 17.297.263 26.627.263-4.797-3.571-5.234-7.947-3.835-12.615 1.497-4.995 5.345-7.97 9.873-9.866 5.767-2.415 11.326 1.712 10.884 8.055-.466 6.694-4.589 10.985-11.462 14.48 13.935 0 26.63 0 39.795.015.134 2.568-1.872 1.914-3.392 1.915-35.848.028-71.697.032-107.545-.013-1.49-.002-4.442.865-2.226-2.792zM679.773 593.208c-.503.077-.84-.194-1.453-.297-1.312-.83-1.346-2.004-.582-3.623.55-.256.802-.154 1.46-.086 1.212 1.134.875 2.405.575 4.006z"/><path fill="#FAFAFA" d="M77.487 101.954c1.142 1.055 2.326 2.008 3.213.74 6.526-9.328 16.658-10.965 26.695-12.232 13.433-1.697 26.94-1.865 40.192 1.601 4.835 1.265 9.31 3.177 12.017 8.089 1.66 3.014 4.406 1.453 5.429-.673 3.88-8.07 7.055-16.452 9.89-24.952.752-2.258-.335-3.603-2.254-4.88-7.018-4.67-15.235-5.547-23.078-7.618-1.675-.442-3.628-.077-4.942-1.609.362-1.865 1.787-1.266 2.765-1.27 10.499-.049 21 .073 31.496-.1 2.945-.049 3.6.968 3.596 3.716-.071 45.495-.07 90.991 0 136.487.003 2.702-.578 3.738-3.543 3.73-37.663-.096-75.326-.093-112.989-.003-2.77.006-3.26-1.002-3.258-3.468.06-45.663.073-91.325-.023-136.987-.006-3.067 1.185-3.499 3.808-3.459 8.83.134 17.664.052 26.96.064 1.025.262 1.54.563 1.585 1.469-7.114 1.01-13.746 3.13-20.277 5.476-3.64 1.308-6.004 4.255-8.4 7.366-2.97 3.858-1.095 6.954.071 10.436a771.729 771.729 0 0 1 5.453 16.99c.608 1.966.86 4.15 4.154 2.558.392-.895.653-1.27 1.44-1.471z"/><path fill="#F5F5F5" d="M77.9 101.656c-.423.614-.79.867-1.342 1.25-2.273-6.688-4.26-13.537-6.484-20.31-1.888-5.751-.55-9.49 4.945-12.385 6.595-3.473 13.739-4.902 21.538-5.526 1.322.576 2.25 3.086 3.284-.348 19.759-2.305 39.31-1.951 58.137 3.543 17.546 5.12 14.44 3.732 8.996 17.394-1.391 3.49-2.954 6.912-4.482 10.468-11.434-9.003-24.852-9.98-38.346-10.263-11.55-.243-22.88 1.586-33.838 5.298-5.44 1.843-10.426 4.444-12.408 10.88z"/><path fill="#222" d="M126.26 59.732c-5.939.232-11.644.232-17.35.232l.008-.967c5.39 0 10.78 0 16.638.019.625.173.781.328.704.716z"/><path fill="#8D8D8D" d="M130.816 59.31c4.474-.33 8.652-.824 12.791.627-3.83 1.85-7.759-.438-12.047-.038-.64-.147-.846-.273-.744-.588zM99.76 64.02c-.614 1.47 2.596 4.22-.933 4.548-2.217.205-1.485-1.9-1.689-3.586.506-1.188 1.443-.99 2.623-.962zM95.308 60.948c-.614-.54-.817-.993-1.201-1.627 3.215-.18 6.612-.18 10.01-.18l.104.515c-2.834.459-5.668.918-8.913 1.292z"/><path fill="#3A3A3A" d="M130.704 59.046c.422.075.338.454.38.643-1.375.228-2.793.267-4.634.29-.424-.015-.451-.48-.438-.712 1.432-.253 2.851-.274 4.692-.22z"/><path fill="#F8F8F8" d="M186.638 567.874c.216 11.954.04 23.613.162 35.268.034 3.231-.784 4.228-4.151 4.217-37.32-.124-74.641-.13-111.962.009-3.497.013-3.982-1.224-3.976-4.261.083-44.985.095-89.97-.018-134.954-.009-3.374.658-4.48 4.285-4.466 37.153.145 74.308.14 111.461.008 3.58-.013 4.385 1.08 4.364 4.491-.144 23.158-.089 46.317-.055 69.476.003 2.354.347 4.63-3.32 4.035-.704-.115-1.588 1.063-2.433 1.572-1.043.627-2.064 1.266-1.48 2.704.447 1.103 1.49 1.229 2.518 1.175 1.476-.076 2.948-.213 4.716-.347 0 5.82 0 11.474.085 17.58-3.491 2.28-6.926.31-10.758-.142-1.723-2.997-.378-5.772-.173-8.526 1.39-18.64-4.87-33.834-19.781-45.403-16.36-12.693-43.896-10.722-59.896 6.682-21.252 23.116-17.75 60.515 6.83 77.471 14.725 10.16 36.61 9.772 51.117-.736 8.285-6.001 13.946-13.632 17.851-22.848.71-1.676 1.188-3.485 2.899-5.015 3.986.775 7.887.22 11.715 2.01z"/><path fill="#222" d="M175.579 564.004c4-.55 7.482-.257 11.047 1.16.355.506.417 1.344.385 2.594-1.92-1.541-3.828.872-5.807.293-1.844-.54-3.912-.316-5.789-1.907-.932-.787-.893-1.486.164-2.14z"/><path fill="#FAFAFA" d="M68.06 261.778c37.15 0 73.807.103 110.462-.126 4.758-.03 5.569 1.436 5.553 5.781-.155 44.654-.14 89.308-.013 133.962.01 3.774-.751 5.007-4.82 4.987-36.988-.175-73.978-.146-110.967-.029-3.324.01-4.504-.58-4.494-4.244.136-45.487.115-90.974.026-136.462-.006-2.932.522-4.496 4.254-3.869z"/><path fill="#FEFEFE" d="M33.53 538.383c-4.55 6.752-9.296 12.673-17.662 14.003-2.373.378-5.369 1.025-6.414-1.4-1.436-3.335 1.788-9.402 4.6-10.093 7.513-1.845 13.98-11.31 13.062-19.08-.478-4.042-2.87-6.295-6.743-6.799-1.71-.222-3.084-.384-2.733-2.443.282-1.654-.572-3.72 1.688-4.777 10.57-4.943 14.26-11.56 12.715-22.651-1.395-10.011-6.351-12.72-15.369-8.423-.531.253-.941 1.263-1.642.642A18.45 18.45 0 0 1 10 470.07c-.853-2.282 1.9-2.765 3.29-3.62 4.86-2.986 12.002-1.99 16.6 2.414 8.589 8.227 11.734 18.361 9.572 29.987-.949 5.098-3.518 9.305-8.835 11.155-1.254.436-2.638.902-2.563 2.6.053 1.202 1.096 1.442 2.048 1.833 7.857 3.228 9.567 6.74 7.484 15.033-.78 3.106-2.333 5.845-4.067 8.912z"/><path fill="#F4F4F4" d="M21.861 554.696c10.858-6.182 17.533-14.91 19.691-27.043.882-4.957-.416-9.373-2.377-13.802 5.856 5.25 6.737 12.023 5.432 19.02-1.915 10.269-7.88 18.09-16.205 24.223-3.178 2.34-5.533.494-7.93-1.377.365-.276.73-.552 1.39-1.021zM46.025 560.753c1.218 4.382-.92 6.625-4.312 7.944-2.111.821-4.35.764-5.696-1.438-1.325-2.168-.337-4.22 1.14-5.848 2.54-2.8 5.502-3.422 8.868-.658zM36.526 555.834c.846-.928.336-2.746 1.967-2.517.333.046.77.548.86.913.295 1.203-.544 1.644-1.829 1.954-.55.018-.782.008-.998-.35zM50.076 558.379c1.498 1.757 2.775 3.526.387 5.89-.365-1.987-.693-3.77-.59-5.773.429-.221-.037-.102.203-.117zM38.434 513.395c-1.06-.603-2.45-.766-1.907-2.105.321-.792 1.255-1.525 1.96-1.023 1.03.731.721 2.013-.053 3.128z"/><path fill="#8D8D8D" d="M33.931 467.28c-1.17-.45-1.987-1.048-2.653-2.17 1.103-.053 2.055.417 3.217 1.134.07.462-.07.676-.564 1.037zM33.822 558.034c.435-.887.99-1.435 1.834-2.036.435.159.58.37.542.92-.546.807-.91 1.275-1.545 1.884-.418-.048-.565-.238-.831-.768zM38.015 470.806c.906.459 1.51 1.235.888 1.943-.763.869-.894-.382-1.517-.966-.023-.489.14-.663.63-.977zM39.675 474.332c.06.473-.049.763-.157 1.053-.364-.41-.56-.82.157-1.053z"/><path fill="#8D8D8D" d="M37.205 469.483c.557.065.772.359 1.063.917-.105.412-.285.559-.767.887-.521.01-.696-.201-.903-.641.035-.44.15-.688.607-1.163z"/><path fill="#8D8D8D" d="M36.787 470.165c-.577.156-.809-.06-1.05-.584.01-.477.108-.73.456-1.302.522-.055.794.21 1.21.725-.02.458-.183.665-.616 1.16z"/><path fill="#8D8D8D" d="M35.165 467.347c.564-.217.822-.045 1.142.425.027.434-.083.68-.425 1.254-.554.217-.805.017-1.086-.495-.02-.452.059-.68.37-1.184z"/><path fill="#8D8D8D" d="M34.903 468.015c-.53.208-.813.051-1.19-.382.045-.368.227-.532.7-.918.478-.134.645-.019.888.24 0 .332-.095.55-.398 1.06zM31.068 464.935c-.349-.07-.575-.253-.8-.436.27-.07.542-.14.988-.061.174.15-.065.383-.188.497z"/><path fill="#F4F4F4" d="M50.285 558.303c-.21.289-.436.607-.663.924-.426-.307-.49-.587.377-.842.317-.02.27-.054.286-.082z"/><path fill="#8D8D8D" d="M32.896 558.828c-.175-.56.04-.8.575-1.048.367.109.503.303.775.83.136.334-.18.704-.281.771-.323-.06-.546-.186-1.07-.553z"/><path fill="#F4F4F4" d="M36.259 557.126c-.252-.088-.261-.306-.291-.853-.022-.328.235-.613.405-.701.17-.088.5.277.668.458-.068.442-.304.704-.782 1.096z"/><path fill="#F5F5F5" d="M30.33 17.282c-4.156-1.607-3.443 1.232-3.41 3.134.23 13.642.197 27.3.963 40.914.304 5.414-1.261 6.996-6.442 7.502-4.685.458-6.257-.233-6.175-5.34.23-14.303-.047-28.618-.353-42.923-.07-3.221.428-4.984 4.108-4.813 1.96.092 3.948-.498 5.929-.734 1.66-.197 3.808-.197 3.67-2.4-.154-2.416-2.34-1.71-3.934-1.622-.816.044-1.63.107-3.123.207 2.251-2.359 4.487-4.044 6.988-3.203 4.083 1.373 2.069 5.393 2.848 8.697-.157.535-.418.631-1.068.58z"/><path fill="#F4F4F4" d="M31.66 25.798c.101 11.068 1.738 21.838 1.277 32.599l-2.061.01c0-10.509 0-21.017.021-31.997.207-.62.393-.77.762-.612z"/><path fill="#8D8D8D" d="M31.95 25.69c-.107.413-.577.374-.804.31-1.137-1.293-.776-2.74-.944-4.451.252-.806.663-1.003 1.492-.761.322 1.64.342 3.064.255 4.901z"/><path fill="#3A3A3A" d="M32.045 20.67c-.462.298-.875.26-1.578.377-.387-.93-.484-2.014-.554-3.505.288-.367.548-.327 1.199-.344 1.277.879.921 2.046.933 3.472z"/><path fill="#8D8D8D" d="M20.11 11.003c.429.185.52.416.611.647l-1.253.018c.101-.206.203-.412.642-.665z"/><path fill="#F4F4F4" d="M39.606 331.958c-.767-3.363-.542-6.312.59-9.14.56-1.396 1.483-2.775 3.196-2.708 1.532.06 2.01 1.519 2.555 2.723 1.798 3.972.252 7.592-1.86 10.685-1.486 2.175-3.449 1.287-4.481-1.56zM52.36 41.14c-.586.658-.947.995-1.302 1.339-1.64 1.588-3.12 3.666-5.874 2.356-1.432-.68-1.642-2.082-1.273-3.406.758-2.719 2.504-4.882 5.307-5.27 3.458-.48 4.348 1.58 3.142 4.98z"/><path fill="#0D0D0D" d="M335.14 272.704c3.64.055 6.799.149 9.957.128 2-.012 3.014.644 3.097 2.86.09 2.362-1.193 2.833-3.055 2.897-.83.029-1.662.026-2.494.03-28.432.13-56.866.09-85.293.555-4.709.077-4.86-2.771-5.53-5.452-.52-2.075 1.502-2.145 3.038-2.123 4.82.069 9.642.172 14.463.236 21.78.291 43.559.574 65.818.869z"/><path fill="#040404" d="m413 270.733 61.494.326c1.167.006 2.334-.01 3.5.037 2.373.097 2.348 1.943 2.534 3.587.247 2.19-1.252 2.406-2.858 2.413-5.166.022-10.332.021-15.498.035-25.998.068-51.995.16-77.993.16-1.88 0-4.349 1.085-5.082-2.343-.683-3.195-.2-4.656 3.409-4.576 9.996.222 19.996.253 30.495.361z"/><path fill="#151515" d="M265 387.042c28.641.18 56.782.358 84.923.537 1.166.008 2.34-.06 3.494.063 1.239.132 2.326.693 2.188 2.162-.106 1.122-1.039 1.715-2.077 1.838-1.15.136-2.328.064-3.493.057l-102.906-.632c-.5-.003-1-.005-1.499-.005-1.527 0-3.318.038-3.373-1.983-.055-2.051 1.72-2.083 3.26-2.08 6.328.012 12.655.028 19.483.043z"/><path fill="#222" d="M266 398.312c26.79-.01 53.08-.02 79.37-.028 1.165 0 2.33.008 3.494.012 1.504.006 2.852.556 2.667 2.199-.142 1.267-1.48 1.587-2.748 1.524-.995-.05-1.996-.007-2.994-.007l-96.34.02c-1 0-1.998.001-2.996-.007-1.2-.009-2.531-.065-2.639-1.592-.13-1.836 1.324-2.08 2.718-2.086 6.323-.032 12.646-.027 19.468-.035z"/><path fill="#151515" d="M425.8 386.712c17.871-1.887 35.347-1.413 52.8-1.66.999-.014 1.998-.003 2.998-.004 2.081 0 2.35 1.622 2.472 3.067.125 1.493-1.073 1.878-2.343 1.927-.666.026-1.332.018-1.999.025-34.474.349-68.948.698-103.422 1.045-.832.008-1.665-.008-2.498-.007-1.327 0-2.364-.506-2.314-1.953.047-1.372 1.045-1.983 2.373-2.019 1.165-.03 2.33-.042 3.496-.05l48.436-.371zM376.912 400.39c33.527-.842 66.627-1.662 99.727-2.475 1.328-.032 2.66-.03 3.986.039.953.05 1.5.634 1.498 1.606-.001.967-.556 1.525-1.492 1.638-.824.1-1.657.136-2.488.16-33.096.932-66.193 1.87-99.29 2.76-1.534.041-3.568.823-4.3-1.382-.484-1.459.728-2.004 2.359-2.346z"/><path fill="#131313" d="M392.49 585.569c30.294-.261 60.12-.51 89.947-.759.833-.007 1.667-.008 2.5-.007 1.208.002 2.607.095 2.732 1.533.145 1.666-1.192 2.196-2.67 2.255-1 .04-1.999.06-2.999.07-33.991.364-67.982.726-101.974 1.087-.833.008-1.666.007-2.5.004-1.533-.006-2.63-.548-2.544-2.298.081-1.647 1.37-1.662 2.543-1.682 4.831-.083 9.663-.131 14.964-.203zM481.71 596.252c2.078-.03 3.775.297 3.504 2.292-.317 2.324-2.52 1.754-4.06 1.792-22.797.572-45.596 1.081-68.395 1.629-9.984.24-19.966.57-29.952.764-1.835.036-4.943 1.024-5.024-1.534-.097-3.063 3.21-2.039 5.138-2.097 32.777-.988 65.557-1.901 98.789-2.846z"/><path fill="#111" d="M293 589.896c-14.48-.085-28.459-.16-42.438-.262-1.323-.01-2.667-.06-3.957-.315a1.799 1.799 0 0 1-1.452-1.805c.017-.911.654-1.63 1.5-1.763 1.302-.205 2.647-.203 3.973-.197 34.45.148 68.9.307 103.349.466.998.005 2.003-.04 2.993.055 1.348.128 2.153.897 2.035 2.303-.102 1.213-1.014 1.634-2.096 1.68-1.163.05-2.33.03-3.494.026-19.971-.06-39.942-.123-60.413-.188z"/><path fill="#0B0B0B" d="M343.963 596.938c3.155.004 5.816.006 8.478.012 1.249.002 2.456.256 2.564 1.736.127 1.74-1.088 2.235-2.592 2.252-.831.01-1.663.014-2.495.014-32.608.007-65.216.014-97.823.016-1.163 0-2.332.018-3.486-.096-1.107-.109-1.85-.757-1.839-1.94.012-1.181.773-1.811 1.876-1.896 1.324-.102 2.658-.08 3.987-.08 30.279-.009 60.558-.013 91.33-.018z"/><path fill="#090909" d="M314 471.897c11.325.108 22.15.225 32.975.302 2.304.016 4.288-.028 4.19 3.312-.102 3.5-2.547 2.466-4.268 2.478-28.812.202-57.627.177-86.433.65-4.42.072-4.952-2.746-5.516-5.114-.763-3.202 2.314-2.463 4.1-2.446 11.49.11 22.98.318 34.47.496 6.66.103 13.322.21 20.482.322z"/><path fill="#0D0D0D" d="M402 476.97c-5.496.01-10.53-.352-15.48.139-4.321.428-4.068-2.704-4.323-4.941-.33-2.893 2.32-2.193 3.983-2.183 30.98.189 61.961.455 92.942.598 2.775.013 4.462.569 4.468 3.678.007 3.713-2.798 2.56-4.635 2.567-25.484.098-50.97.11-76.954.142zM471.306 69.26c3.134.037 3.262 2.08 3.098 3.878-.194 2.123-2.09 1.71-3.523 1.699-30.309-.23-60.617-.494-90.925-.687-2.455-.016-3.641-.647-3.573-3.386.088-3.575 2.546-2.86 4.574-2.832 29.973.419 59.945.874 90.349 1.328z"/><path fill="#111" d="M451.002 100.026c7.33-.119 14.16-.263 20.99-.323 1.381-.013 3.422-.527 3.46 1.701.036 2.06-1.874 1.996-3.365 2.044-11.49.37-22.98.729-34.471 1.07-17.487.522-34.973 1.05-52.46 1.5-1.615.04-4.222 1.004-4.292-1.833-.067-2.74 2.49-2.102 4.19-2.156 21.816-.69 43.632-1.34 65.948-2.003z"/><path fill="#0D0D0D" d="M473.51 86.869c-28.005.207-55.62.158-83.234.103a556.68 556.68 0 0 1-8.484-.073c-1.317-.023-2.34-.659-2.351-2.028-.012-1.43 1.08-1.896 2.382-1.903.832-.005 1.664-.021 2.496-.018 28.287.102 56.574.18 84.86.358 2.09.013 5.61-1.282 4.332 3.56z"/><path fill="#111" d="M428.016 97.042c-13.955.376-27.413.779-40.873 1.066-1.576.034-4.18 1.149-4.31-1.73-.125-2.761 2.407-2.18 4.11-2.226 27.415-.757 54.83-1.495 82.248-2.17 1.605-.039 4.203-1.048 4.317 1.78.11 2.734-2.414 2.128-4.122 2.176-13.624.388-27.249.736-41.37 1.104zM267 69.815c26.821-.213 53.143-.441 79.464-.598 1.951-.012 5.04-1.051 5.05 2.264.008 2.983-1.553 4.675-5.393 4.596-32.478-.669-64.962-1.029-97.443-1.535-1.81-.029-4.545.803-4.644-2.254-.105-3.225 2.703-2.266 4.475-2.31 5.994-.146 11.993-.121 18.49-.163z"/><path fill="#131313" d="M342.653 94.818c-30.11.852-59.758 1.687-89.406 2.523-.832.024-1.666.108-2.496.077-1.22-.045-2.426-.304-2.59-1.783-.166-1.514 1.006-1.988 2.185-2.205.975-.178 1.991-.153 2.99-.18 30.149-.815 60.297-1.646 90.447-2.376 1.693-.041 4.835-1.25 4.67 1.829-.162 2.99-3.385 1.705-5.8 2.115zM261.098 99.517c28.936-.303 57.384-.608 85.833-.851 1.451-.013 3.857-.932 3.905 1.637.049 2.594-2.386 1.738-3.84 1.76-32.106.506-64.213.955-96.32 1.413-.665.01-1.332.024-1.995-.006-1.423-.066-2.78-.364-2.675-2.174.094-1.624 1.511-1.563 2.628-1.592 3.991-.104 7.985-.125 12.464-.187z"/><path fill="#0B0B0B" d="M303.853 84.08c14.409-1.315 28.564-.929 42.707-1.13 1.334-.019 3.373-.676 3.425 1.672.056 2.525-2.07 2.158-3.656 2.18-13.817.196-27.635.35-41.92.436-1.152-.949-1.338-1.882-.556-3.157z"/><path fill="#3A3A3A" d="M303.735 83.67c.335 1.045.267 1.932.204 3.152-9.61 1.373-19.262.742-29.354.999-1.43-.866-1.52-1.887-.742-3.317 10.022-.531 19.756-.762 29.892-.834z"/><path fill="#8D8D8D" d="M273.668 84.081c.433 1.085.402 2.046.414 3.368-8.543.5-17.128.671-25.714.748-1.336.012-3.37.519-3.342-1.776.025-2.089 2.019-1.997 3.383-2.032 8.263-.217 16.53-.302 25.259-.308z"/><path fill="#131313" d="M609.023 196.382c-6.844-2.8-9.518-5.983-9.287-10.725.214-4.4 4.969-9.663 10.101-11.151 4.55-1.319 9.096-1.515 13.777-.463 4.58 1.03 7.424 3.8 8.435 8.144 1.053 4.526-1.006 8.1-4.67 10.737-5.432 3.911-11.43 5.135-18.356 3.458zM570.065 198.181c-9.996-1.327-13.2-9.192-7.532-16.978 3.629-4.984 8.343-7.418 14.423-7.411 4.034.005 7.626.908 9.622 4.892 2.133 4.258 1.05 8.318-1.69 11.642-3.657 4.436-8.217 7.776-14.823 7.855zM667.52 190.623c-4.666 2.711-8.953 5.102-14.145 1.95-3.657-2.22-4.859-5.432-4.195-9.263.67-3.865 2.83-7.063 6.245-9.163 4.96-3.05 11.123-2.669 14.26.75 3.183 3.468 2.378 10.096-2.165 15.726zM626.814 396.965c-5.958 3.484-11.93 4.12-18.048 2.026-8.485-2.907-10.631-11.586-4.646-18.176 5.41-5.955 15.685-7.807 22.897-4.127 8.362 4.267 8.42 13.107-.203 20.277zM578.195 399.563c-.987.354-1.63.525-2.28.666-7.317 1.597-11.554.33-14.046-4.194-2.283-4.144-.936-10.597 3.312-15.054 2.828-2.967 6.384-4.834 10.392-5.577 4.613-.855 8.864.31 11.37 4.391 2.538 4.133 2.131 8.672-.62 12.698-1.983 2.902-4.64 5.206-8.128 7.07z"/><path fill="#111" d="M660.71 396.99c-5.983-.233-9.762-3.028-10.58-7.498-.946-5.177 2.845-12.412 7.564-14.438 5.116-2.195 10.865-1.213 13.117 2.24 2.905 4.456 2.028 11.911-1.895 15.563-2.217 2.063-4.822 3.46-8.206 4.134z"/><path fill="#131313" d="M602.362 608.236c-8.721-4.174-9.56-16.21-1.983-23.217.484-.447 1.062-.79 1.587-1.194 6.441-4.957 11.502-5.564 15.635-1.873 4.178 3.731 4.784 10.131 1.128 16.413-2.531 4.35-6.025 7.868-11.337 9.621-1.722.838-3.204.393-5.03.25zM678.038 588.565c-.051 1.474-.101 2.583-.073 4.103-.4 4.836-2.734 8.043-6.282 10.612-3.18 2.302-6.4 3.616-10.118 1.469-3.961-2.289-5.385-5.963-4.444-10.22 1.105-5.004 3.512-9.331 8.568-11.525 5.55-2.409 9.801-.61 12.349 5.561z"/><path fill="#8D8D8D" d="M602.086 608.266c1.298-.27 2.709-.308 4.539-.278.419.068.207.517.314.74-1.309.28-2.725.337-4.56.312-.34-.234-.26-.387-.293-.774z"/><path fill="#F5F5F5" d="M635.956 604.555c-2.989-.915-3.473-2.831-3.07-5.21.496-2.923 1.939-5.232 4.398-6.905 2.49-1.695 5.462-4.057 7.918-1.172 2.361 2.773 1.156 6.397-1.216 9.022-1.993 2.205-4.452 3.968-8.03 4.265z"/><path fill="#131313" d="M168.255 158.898c-7.65 28.654-39.667 48.378-70.183 32.035-18.051-9.667-28.819-36.557-22.71-57.724 5.428-18.808 16.774-32.137 36.105-37.792 19.616-5.74 41 3.876 51.184 20.888 7.423 12.4 9.412 25.765 6.381 40.301 0 1.038-.164 1.593-.777 2.292z"/><path fill="#151515" d="M160.45 196.992c-1.676-.847-2.385-1.882-1.496-3.32.754-1.216 2.011-.923 3.124-.643 2.893.726 5.789 1.362 8.793.9 1.668-.256 2.622.613 2.74 2.083.162 2.031-1.37 2.482-2.978 2.316-3.275-.337-6.535-.825-10.182-1.336z"/><path fill="#222" d="M169.502 110.29c-1.056.147-1.71.313-2.357.29-1.586-.057-3.812.316-3.923-1.867-.131-2.584 2.279-1.545 3.712-1.797a179.8 179.8 0 0 1 4.347-.713c1.43-.216 3.256-.872 3.804 1.023.592 2.047-1.386 2.21-2.751 2.59-.786.22-1.616.278-2.832.474z"/><path fill="#151515" d="M168.841 174.753c2.306.737 4.896-.999 6.195 1.638.225.456.04 1.526-.332 1.796-2.1 1.526-4.46.876-6.694.373-1.384-.312-3.312-.668-2.87-2.71.362-1.673 1.949-1.452 3.701-1.097z"/><path fill="#222" d="M174.466 136.604c1.252-1.443 2.102-3.457 3.987-1.507 1.16 1.2 1.734 3.298.366 4.457-1.627 1.378-4.136 1.814-5.908.331-1.708-1.429-.33-2.514 1.555-3.281zM168.406 159.148c-.23-.62-.1-1.205.287-1.96 2.568-.098 4.882-.083 7.188.065 1.482.094 2.556.764 2.333 2.512-.205 1.601-1.432 1.674-2.609 1.555-2.414-.244-5.072.207-7.2-2.172zM174.512 124.642c-1.39.114-2.385.169-3.38.217-1.248.06-2.568-.238-2.747-1.541-.219-1.602.998-2.207 2.518-2.378 1.126-.127 2.22-.53 3.33-.804 1.435-.354 2.247.454 2.625 1.643.53 1.667-.47 2.442-2.346 2.863z"/><path fill="#151515" d="M154.81 84.04c-3.885 4.167-5.6-.601-8.01-1.903-2.587-1.397-3.564-3.918-1.658-6.737 1.605-2.373 3.417-5.034 6.659-4.215 2.731.69 4.286 3.41 4.323 6.063.047 3.435-3.478 1.87-5.317 2.645.559 2.304 3.174 2.037 4.002 4.147zM87.833 70.559c.065 1.004.174 2.113-.108 2.224-5.656 2.215-3.263 6.29-2.41 10.02.182.799.455 1.62.414 2.419-.064 1.237-.653 2.318-2.046 2.38-1.149.051-1.695-.8-1.9-1.878-.215-1.136-.572-2.254-.682-3.398-.34-3.522-.703-6.823-5.646-4.152-1.094.591-2.336.362-2.802-1.081-.273-.845-.054-1.852.832-2.05 4.603-1.02 8.3-3.963 12.556-5.692.375-.153 1.095.545 1.792 1.208zM110.731 75.196c-1.68.174-3.185.321-3.672-1.264-.518-1.682.885-2.498 2.118-2.807 2.149-.54 2.978-1.67 2.833-3.856-.078-1.177 1.629-2.028 1.858-1.438 1.273 3.277 4.524 3.551 6.794 5.261 1.136.856.128 3.233-1.764 2.987-3.499-.454-3.37 1.29-2.96 3.723.256 1.52 1.075 3.735-1.438 3.906-2.274.155-1.922-2.196-2.365-3.69-.296-1 .516-2.409-1.404-2.822zM133.818 76.778c-.311 2.226.522 5.128-2.433 4.831-2.394-.24-1.481-2.894-1.494-4.569-.017-2.296.052-4.62.394-6.884.259-1.709-.463-4.655 2.682-4.15 2.463.395 1.694 2.699 1.481 4.46-.235 1.957-.405 3.921-.63 6.312zM97.871 79.033c-.429-1.119-.765-1.887-.915-2.69-.253-1.356-1.678-2.748-.103-4.094.706-.604 1.652-.475 2.222.226 1.487 1.828 2.726 3.916 2.1 6.32-.45 1.73-1.858 1.558-3.304.238z"/><path fill="#111" d="M176.026 563.598c-.378.897-.706 1.384-1.01 2.185-6.25 21.032-22.508 35.214-41.76 37.297-28.048 3.035-49.095-17.608-52.12-43.662-2.78-23.96 9.149-45.284 31.155-55.032 13.92-6.165 28.02-5.087 41.567 2.855 19.592 11.487 27.137 37.387 22.168 56.357z"/><path fill="#F6F6F6" d="M85.22 508.771c-.75.485-1.145.737-1.74 1.114-2.258-1.21-2.363-3.546-2.96-5.555a453.12 453.12 0 0 0-4.18-13.348c-2.677-8.08-.372-12.929 7.544-16.21 9.047-3.752 18.623-5.388 28.25-5.908 18.842-1.017 37.614-.45 55.904 5.195 12.185 3.762 12.921 5.055 7.958 16.707a335.157 335.157 0 0 0-3.795 9.242c-1.137 2.907-2.946 3.878-5.777 1.96-13.895-9.407-29.548-9.052-45.28-8.018-7.833.516-15.541 1.822-22.91 4.71-5.207 2.041-10.035 4.542-13.015 10.111z"/><path fill="#151515" d="M85.125 509.248c.128-4.298 2.602-6.756 5.974-8.634 15.376-8.563 32.096-8.953 49.008-8.07 10.632.555 20.82 2.56 29.291 10.23 2.896-6.784 5.681-13.384 8.535-19.954 1.257-2.894-.657-3.903-2.732-4.735a104.541 104.541 0 0 0-24.515-6.517c-19.27-2.698-38.53-2.959-57.524 1.726-5.763 1.422-12.248 2.182-15.945 8.173-1.217 1.972-1.558 3.566-.781 5.863 2.443 7.228 4.55 14.57 6.816 22.274-2.322 2.462-3.15.686-3.797-1.188-2.493-7.225-5.144-14.405-7.316-21.727-1.34-4.518 1.29-8.009 4.663-10.548 7.405-5.576 16.131-7.637 25.157-8.617 21.661-2.352 43.206-2.272 64.452 3.354 4.19 1.11 8.057 3.04 12.028 4.739 4.148 1.773 4.355 4.55 3.01 7.977-2.85 7.266-5.904 14.452-8.766 21.714-.748 1.896-1.865 3.1-3.889 3.305-2.055.208-2.217-1.48-2.828-2.833-1.09-2.411-3.149-3.804-5.569-4.688-21.625-7.899-43.126-6.542-64.442 1.146-3.037 1.095-6.065 2.816-7.336 6.328-.59 1.63-1.838 1.726-3.494.682z"/><path fill="#222" d="M175.037 600.985c1.429-.014 2.419-.074 3.41-.085 1.37-.014 2.254.665 2.188 2.055-.05 1.06-.769 1.887-1.886 1.944-4.003.207-7.889-.613-11.73-1.602-1.054-.272-1.57-1.222-1.209-2.331.384-1.177 1.452-1.277 2.45-1.129 2.121.317 4.227.743 6.777 1.148zM171.22 513.761c2.771-.515 5.251-.72 7.706-1.088 1.41-.212 2.818-.39 3.254 1.276.544 2.077-1.156 2.58-2.627 2.793-2.29.331-4.62.554-6.93.522-2.236-.03-2.999-1.198-1.403-3.503zM183.308 527.366c.984 1.916.835 3.418-1.124 3.733-2.045.328-4.365 1.527-6.191-.214-1.585-1.51-.577-2.91 1.18-3.177 1.92-.29 3.794-1.425 6.135-.342z"/><path fill="#131313" d="M175.028 585.078c-1.738-.303-3.304-.623-2.863-2.394.378-1.52 1.778-1.785 3.237-1.252.31.114.654.15.945.296 1.842.93 5.893-1.233 5.456 2.155-.388 3.01-4.1 1.157-6.775 1.195zM169.263 364.887c-8.58 25.834-27.203 40.422-52.234 38.151-18.771-1.702-30.623-12.846-37.905-29.604-12.687-29.195 2.78-63.203 32.987-72.443 18.628-5.698 41.263 3.998 51.268 20.732 7.679 12.842 8.743 26.223 6.728 40.81.039 1.08-.184 1.644-.844 2.354z"/><path fill="#F6F6F6" d="M79.219 307.772c-.748.487-1.14.742-1.735 1.118-4.55-7.62-7.267-16.007-8.35-24.709-.614-4.936 3.069-8.101 7.61-9.993 9.662-4.025 19.86-5.862 30.163-6.394 18.34-.946 36.598-.238 54.431 5.048 12.181 3.61 13.248 5.427 8.575 17.065-1.178 2.933-2.386 5.86-3.805 8.69-1.355 2.7-3.263 3.557-6.095 1.998-21.382-11.77-43.572-9.684-65.886-3.544-5.994 1.65-11.534 4.456-14.908 10.721z"/><path fill="#151515" d="M79.116 308.244c.172-4.44 2.457-7.205 6.222-8.99 21.164-10.029 43.08-10.077 65.325-4.778 4.527 1.078 8.538 3.599 12.493 6.928 3.693-6.731 6.292-13.816 8.733-20.932.779-2.27-1.774-2.916-3.304-3.602-7.654-3.434-15.82-5.16-24.05-6.272-21.968-2.968-43.828-3.176-65.203 3.955-1.717.573-3.546 1.19-4.94 2.278-3.183 2.483-5.474 5.232-3.774 9.967 2.522 7.02 4.435 14.26 6.636 21.81-2.387 2.389-3.584.983-4.304-1.257-2.44-7.59-5.44-15.078-6.965-22.852-.839-4.277 2.143-8.25 6.24-10.663 7.298-4.302 15.258-6.41 23.613-7.339 20.492-2.275 40.876-2.067 61.089 2.452 5.38 1.203 10.385 3.424 15.45 5.553 4.103 1.724 4.463 4.423 3.073 7.944-2.865 7.257-5.842 14.469-8.702 21.727-.726 1.84-1.722 3.064-3.83 3.337-2.52.326-2.338-1.746-3.096-3.083-1.678-2.956-4.583-4.288-7.618-5.264-20.411-6.568-40.72-5.234-60.842 1.22-3.416 1.095-6.605 3.192-8.566 6.53-.79 1.346-1.503 2.75-3.68 1.33z"/><path fill="#222" d="M168.78 400.738c1.378-.045 2.36-.164 3.345-.194 1.576-.049 2.6.728 2.555 2.322-.036 1.303-.952 2.073-2.29 2.09-3.82.046-7.546-.656-11.23-1.575-1.078-.268-1.662-1.166-1.464-2.255.222-1.214 1.274-1.41 2.304-1.29 2.133.247 4.257.574 6.78.902zM169.837 312.173c2.435.18 5.68-2.432 6.223 1.04.504 3.215-3.16 2.35-5.184 2.917-.314.088-.667.14-.985.091-2.052-.31-5.497 1.494-5.66-1.862-.15-3.065 3.363-1.486 5.606-2.186zM169.654 327.553c1.919-.798 3.633-1.3 5.357-1.766 1.575-.424 2.594.202 2.895 1.782.316 1.648-.632 2.736-2.126 2.617-2.26-.18-5.837 2.75-6.126-2.633zM169.41 365.192c-.204-.693-.044-1.308.404-2.082 2.537-1.329 4.746.338 7.03-.07 1.336-.24 2.073.854 2.144 2.142.088 1.584-1.049 1.908-2.29 1.808-2.394-.194-4.997.372-7.289-1.798z"/><path fill="#131313" d="M168.253 380.195c2.196.254 3.985.521 5.779.743 1.07.132 1.944.487 2.065 1.698.102 1.019-.565 1.54-1.454 1.644-2.817.328-5.82.58-8.102-1.24-1.414-1.129-.078-2.302 1.712-2.845z"/><path fill="#222" d="M173.396 343.63c.516-.666.847-1.19 1.266-1.275 1.746-.357 3.218-3.79 5.281-.615.917 1.41.862 3.226-.804 3.771-2.056.672-4.852 2.395-5.743-1.881z"/><path fill="#F8F8F8" d="M603.858 185.266c3.942-8.053 14.71-10.892 21.766-6.111 3.993 2.704 4.218 6.42.606 9.988-4.192 4.141-14.793 5.25-19.7 2.033-1.972-1.293-2.788-3.202-2.672-5.91zM570.872 194.072c-3.184 0-5.986-.327-6.774-3.499-.743-2.991-.295-6.028 2.23-8.184 1.743-1.49 3.635-2.914 5.68-3.92 4.47-2.2 8.881-1.377 10.754 1.696 1.81 2.97-.21 8.7-4.118 11.122-2.237 1.387-4.627 2.586-7.772 2.785z"/><path fill="#F5F5F5" d="M658.9 190.507c-3.55-.07-5.496-1.795-5.725-4.782-.285-3.732 1.43-6.723 4.673-8.687 2.57-1.556 5.364-2.122 7.936-.28 2.71 1.938 2.826 4.666 1.39 7.524-1.653 3.288-4.145 5.518-8.275 6.225z"/><path fill="#F8F8F8" d="M617.205 378.974c3.688-.283 6.736.426 9.456 2.23 3.656 2.425 4.141 8.104.626 10.693-5.351 3.94-11.318 5.622-17.845 2.977-2.363-.958-4.603-2.232-4.604-5.263 0-2.866.233-5.614 3.17-7.334 2.756-1.613 5.517-3.066 9.197-3.303zM569.526 382.478c.58-.407.857-.592 1.142-.76 5.722-3.376 10.624-3.246 13.009.343 2.3 3.462.023 9.297-4.95 12.659-.411.278-.858.507-1.298.739-4.548 2.399-10.042 2.114-12.017-.618-2.1-2.906-.257-8.77 4.114-12.363z"/><path fill="#F5F5F5" d="M664.707 377.86c4.607 2.689 5.465 6.064 3.026 10.398-2.253 4.003-8.023 6.085-11.52 4.156-2.606-1.438-3.167-7.083-.78-10.272 2.16-2.886 4.98-4.808 9.274-4.283z"/><path fill="#F8F8F8" d="M614.275 584.352c4.69 4.416 2.44 8.664.415 12.906-2.135 4.472-5.79 6.837-10.638 6.84-3.01.001-4.73-2.019-5.11-5.093-1.003-8.152 6.735-15.849 15.333-14.653z"/><path fill="#F5F5F5" d="M672.999 587.046c1.883 5.297.648 10.236-3.145 13.214-1.891 1.486-4.192 2.233-6.487 1.173-2.289-1.057-2.43-3.361-2.317-5.56.356-6.99 5.91-11.324 11.949-8.827z"/><path fill="#FBFBFB" d="M132.927 191.217c-15.29 3.708-28.666 1.011-40.355-9.232-1.971-1.728-2.468-2.797-.534-5.026 8.683-10.007 17.171-20.182 25.721-30.304 1.187-1.404 1.82-2.87 4.053-.585 9.722 9.945 19.69 19.652 29.664 29.347 1.866 1.814 2.093 3.172.026 4.826-5.565 4.454-11.034 9.061-18.575 10.974z"/><path fill="#FCFCFC" d="M141.293 118.31c3.233-3.561 6.276-6.82 8.316-11.172 11.258 9.585 16.573 21.886 16.778 36.37.145 10.168-2.52 19.724-8.092 28.363-1.307 2.028-2.195 3.48-4.742.822-9.308-9.714-18.837-19.218-28.413-28.67-2.11-2.081-2.756-3.35-.425-5.936 5.676-6.296 10.926-12.977 16.578-19.777zM78.069 152.511c-.884-12.732 1.296-24.22 8.332-34.622 2.098-3.101 3.606-3.965 6.504-.912a998.28 998.28 0 0 0 22.305 22.724c1.498 1.48 1.207 2.173.066 3.53-8.44 10.045-16.882 20.09-25.147 30.278-2.278 2.808-3.45 1.757-4.996-.505-4.144-6.063-5.764-12.983-7.064-20.493zM92.922 110.304c14.301-13.177 30.277-15.523 47.852-8.834 1.232.468 2.415 1.14 3.508 1.882 2.024 1.373 3.587 1.957.694 5.037-8.28 8.818-15.795 18.36-23.495 27.712-1.263 1.534-1.885 2.415-3.688.58-8.154-8.3-16.436-16.473-24.643-24.72-.3-.3-.304-.894-.228-1.657z"/><path fill="#FAFAFA" d="M147.495 571.499c3.893 3.884 7.473 7.59 11.216 11.123 1.524 1.44 1.73 2.32.101 3.905-16.2 15.762-40.324 19.023-59.6 1.64-1.565-1.41-2.075-2.21-.306-4.246 8.487-9.77 16.76-19.732 24.922-29.777 2.306-2.838 3.564-3.342 6.321-.234 5.38 6.064 11.364 11.592 17.346 17.589z"/><path fill="#FCFCFC" d="M173.283 553.85c-.991 9.303-2.896 17.778-8.315 25.157-1.487 2.025-2.191 2.13-3.99.33a2357.245 2357.245 0 0 0-29.788-29.27c-2.7-2.607-.526-4.027.909-5.742 7.443-8.895 14.871-17.802 22.376-26.645.89-1.048 1.594-2.07 1.867-3.972 12.56 10.59 17.556 23.917 16.94 40.141zM99.294 577.375c-1.559 1.946-2.868 3.626-4.189 5.32-13.15-12.774-14.576-44.975 2.746-62.918 7.794 8.398 15.527 16.813 23.367 25.126 2.097 2.224 2.621 3.832.262 6.484-7.488 8.417-14.65 17.126-22.186 25.988z"/><path fill="#FBFBFB" d="M149.085 518.09c-6.692 8.042-13.251 15.74-19.504 23.677-2.137 2.712-3.591 2.99-6.008.494-7.374-7.617-14.901-15.087-22.33-22.652-.785-.8-2.127-1.3-.726-3.11 10.727-13.859 40.62-16.116 54.082-3.908-1.756 1.75-3.509 3.5-5.514 5.5z"/><path fill="#111" d="M153.405 480.469c2.172-2.857 4.573-4.014 7.377-1.782 1.731 1.378 2.805 3.674 2.287 5.747-.75 3.003-3.694 1.005-5.588 1.734.35 1.911 2.106 2.273 3.484 3.066.967.557 1.43 1.41.957 2.476-.489 1.102-1.45 1.063-2.513.902-5.383-.816-8.802-7.298-6.004-12.143z"/><path fill="#151515" d="M91.251 481.545c-.55 3.403.942 6.155 1.354 9.106.228 1.629.178 3.164-1.855 3.359-1.975.188-1.803-1.476-1.997-2.768-.198-1.316-.599-2.615-.673-3.935-.156-2.776-1.151-4.04-4.092-2.873-1.301.516-3.15 1.48-3.83-.49-.765-2.22 1.392-2.527 2.893-3.205 2.262-1.022 4.411-2.295 6.677-3.308 1.668-.746 3.844-2.806 5.053.02 1.043 2.437-1.027 3.489-3.53 4.094zM118.599 476.555c.445-1.706-.074-3.687 1.86-4.026 1.854-.326 1.695 1.536 2.041 2.756.551 1.942 2.162.901 3.332 1.098 1.261.213 2.246.735 2.144 2.215-.09 1.303-.896 2.513-2.124 2.258-3.718-.771-3.27 1.332-2.902 3.665.215 1.36 1.056 3.24-1.256 3.542-1.844.24-1.744-1.618-2.21-2.776-.61-1.52.15-4.346-3.311-3.048-1.022.383-2.373-.676-2.22-2.074.277-2.525 2.563-2.694 4.646-3.61z"/><path fill="#222" d="M140.85 483.814c-.247 1.993.285 4.312-2.099 4.242-2.479-.073-1.714-2.422-1.686-3.908.053-2.817.33-5.631.576-8.441.128-1.453.047-3.36 2.34-2.864 1.868.404 1.846 2.054 1.665 3.614-.266 2.304-.512 4.611-.796 7.357zM107.334 481.064c.42 1.612 1.09 2.964.846 4.122-.341 1.617-2.054 2.084-2.904.685-1.065-1.752-1.473-3.931-1.972-5.973-.09-.362.684-1.265 1.184-1.381 1.702-.396 2.174.987 2.846 2.547z"/><path fill="#8D8D8D" d="M105.402 475.469c-1.282-1.19-1.27-2.23.01-2.955.875-.495 1.66.121 1.959.906.576 1.51-.337 2.07-1.97 2.049z"/><path fill="#FAFAFA" d="M141.492 370.508c3.555 3.543 6.728 6.985 10.207 10.082 2.91 2.592 2.13 5.01-.133 7.034-11.954 10.694-29.225 16.83-47.125 8.139-4.176-2.028-8.262-4.295-11.47-7.827-1.35-1.485-2.15-2.59-.446-4.584a1876.285 1876.285 0 0 0 25.924-30.961c1.83-2.237 2.761-2.348 4.803-.194 5.844 6.165 11.973 12.06 18.24 18.311z"/><path fill="#FCFCFC" d="M152.912 315.052c17.297 16.288 18.581 43.515 6.333 62.48-1.787 2.768-2.744 2.804-5.027.455-9.47-9.744-19.129-19.305-28.796-28.855-1.457-1.44-2.366-2.274-.643-4.362 8.505-10.304 17.813-19.952 25.401-31.018.888-1.295 1.686.577 2.732 1.3zM95.311 374.256c-2.35 2.6-4.438 4.96-6.71 7.529-9.211-11.294-10.853-24.198-9.138-37.93 1.013-8.111 4.346-15.216 9.019-21.85 1.466-2.082 2.21-2.26 3.996-.442 7.69 7.828 15.426 15.615 23.326 23.23 2.226 2.147 1.423 3.147-.25 5.095-6.803 7.92-13.344 16.065-20.243 24.368z"/><path fill="#FBFBFB" d="M137.214 324.189c-5.084 5.974-10.042 11.594-14.749 17.416-1.557 1.927-2.466 1.91-4.131.256-8.35-8.293-16.791-16.496-25.19-24.72 15.651-16.049 38.587-18.2 55.059-5.96-3.576 4.23-7.17 8.481-10.989 13.008z"/><path fill="#111" d="M148.965 289.046c-4.79-4.58-4.546-8.865.426-11.685 1.89-1.072 3.852-1.306 5.296.673 1.224 1.679 3.119 3.382 2.238 5.683-.93 2.431-3.554.77-5.387 1.613.22.42.458.808.634 1.221.739 1.729 5.194 1.712 2.967 4.396-1.757 2.116-4.099-.309-6.174-1.901z"/><path fill="#151515" d="M82.2 288.718c-.657-3.921-1.013-7.65-6.234-4.836-.983.53-2.043-.18-2.335-1.236-.231-.834.34-1.646 1.177-1.964 3.888-1.478 7.543-3.398 11.105-5.536.868-.52 1.965-.385 2.564.73.755 1.406.242 3.322-.723 3.547-4.298.998-2.689 3.625-2.07 6.086.243.965.394 1.953.6 2.927.37 1.751 1.323 4.002-1.279 4.5-2.872.551-1.985-2.383-2.805-4.218zM110.511 276.41c1.426-.414 2.123-.943 2.139-2.175.015-1.165.018-2.508 1.508-2.772 1.484-.263 2.042.84 2.203 2.078.262 2.025 1.692 1.606 2.998 1.557 1.745-.065 2.405 1.061 2.32 2.536-.067 1.154-.557 2.536-2.063 2.237-4.227-.838-2.701 1.974-2.57 3.883.09 1.294.678 2.863-1.108 3.329-1.97.513-2.591-.975-2.884-2.556-.28-1.51.124-2.897-2.465-3.31-4.23-.674-3.538-2.759-.078-4.806zM133.02 271.844c1.818-.064 2.662.875 2.598 2.075-.2 3.77-.602 7.532-.999 11.29-.109 1.034-.67 1.843-1.878 1.91-1.59.088-2.083-1.031-1.968-2.217.422-4.336-.682-8.902 2.248-13.058z"/><path fill="#222" d="M101.314 280.018c.644 2.008 2.079 3.746.102 5.271-.905.699-2.125.282-2.508-.703-.806-2.07-3.134-4.257-1.598-6.36 1.719-2.353 2.993-.297 4.004 1.792z"/><path fill="#8D8D8D" d="M98.328 272.218c1.472-1.629 2.465-.87 3.132.392.173.327-.283 1.371-.686 1.548-1.521.668-2.448.063-2.446-1.94z"/></svg>