<svg xmlns="http://www.w3.org/2000/svg" viewBox="0 0 465 731" xml:space="preserve">
  <path fill="#FDFDFD" d="M465.7 111.8c.3 205.3.3 410.5.4 615.6 0 3.5-.5 4.7-4.5 4.7H5.2c-3.7 0-4.3-1-4.3-4.4V5.3C1 2 1.3 1 5.2 1h456.4c3.9 0 4.5 1 4.5 4.7-.2 25.1-.1 50.3-.1 76-2.3 2.1-4.7 2-6.8.4-1.1-.8-1.4-3-3.4-1.7-1.6 1.1-1 3-.9 4.6.2 2 1.6 2.3 3.3 2.3 2.4-.1 5-1 7.5.6.3 1.6.3 3 .3 4.8-2.8 3.4-1.3 7-1.5 10.3-.1 1.8.9 3.9-1.4 4.8-2.2.8-4.4.7-5.8-1.4-1.6-2.3-2.7-1.7-4.1.1-1.2 1.6-2.4 3.3-5.1 2.7-2-2.3-1.5-4.7-1.6-7-.4-15.7.4-31.3 1-47 .2-6.1-.2-6.5-6.4-6.5h-80.4c-6 0-6.2.4-6.2 6.3 0 7.6-.2 15.3 0 23 .4 23.1-1.7 46.2-1.1 69.3.2 6.7.4 7.2 7 7.2h78c6.7 0 7.1-.5 7.2-7 0-11 1-22 1.6-33.3 1.8-2.3 3-.7 4.3.2 1.3 1 2.2 2.4 4 3 1.4-6.8 2.8-7.6 10.2-5.5z"/>
  <path fill="#101010" d="m448.8 109.7 3.5-4c1-1.2 1-3.6 3.1-3.5 2.5.1 1.5 2.4 2 3.8 1 2.3 3.2 1 4.9 1.1 1.7.2 1.5-1.3 1.4-2.4l-.7-9.5c0-1.5.2-2.6 2.6-2.2.4 6 .4 12 .4 18.5-1.6-1-3.4 0-5.2-.2-3.6-.3-6.2.3-3.3 4.8.6.8.8 1.8 0 2.6-1 1-2.2.8-3 0a63 63 0 0 1-5.4-5.4c-1-1.2-1-2.2-.3-3.6zM466 87.6c-3.1-.2-6.2.7-9.3.8-1.2 0-3.7-.3-3.3-1.2 1.2-2.6-1.5-5.3.3-7.5 1.2-1.4 3-2.1 5-2 .5.1 1.4 1 1.3 1.2-2.4 8 3.9 1.2 5.5 3 .5 1.8.5 3.5.5 5.7z"/>
  <path fill="#111" d="M153.4 143V54.5c-.1-3.6.6-4.7 4.5-4.7h176.4c3.8 0 4.7 1 4.7 4.7-.2 31.8-.2 63.6 0 95.4 0 4.1-.9 5.2-5.1 5.2h-175c-4.5 0-6.2-1-5.6-5.6.3-2 0-4 0-6.5z"/>
  <path fill="#101010" d="M338.9 332v83.4c0 3.7-.8 4.7-4.6 4.7H158c-3.8 0-4.7-1-4.7-4.6.2-32.4.2-64.7 0-97 0-3.7.9-4.7 4.7-4.7 58.7.2 117.5.2 176.3 0 3.8 0 5 1 4.6 4.7-.3 4.3 0 8.7 0 13.5z"/>
  <path fill="#F7F7F7" d="M353.2 210.9c-.3-.6-.3-.8-.3-1.2 1.3-1.8 1-3.6 1.1-5.5 0-6.4 0-13 .3-19.4.1-2.9 1.5-3.8 3.8-4.2 1.4-.2 2.7 0 4 0h77c7.6 0 8.7.8 8.3 8.6-1 22.5-.7 45-1 67.4L446 278c-.1 4.9-1.3 6.1-6.2 6.5-2 .2-4 .1-6 .1h-72.4c-8 0-8.2-.5-8.4-8.5-.6-19.7 1.6-39.2 1-58.9 0-2 .3-4-.8-6.3z"/>
  <path fill="#101010" d="m233 559-76.5.1c-3.5 0-4.7-.6-4.6-4.5v-96c0-3.3.7-4.4 4.3-4.4h177c4 0 4.4 1.4 4.4 4.9v95.4c0 3.8-1 4.6-4.7 4.6-33.1-.1-66.3 0-99.9 0z"/>
  <path fill="#131313" d="M172 286h-15.5c-2.3.1-3.2-.5-3.2-3v-99c0-4.4 3-3 5-3h168.5c3.9 0 9.1-1.9 11.4.9 2 2.2.7 7.2.7 11v87.5c.1 4.4-.8 5.8-5.5 5.8-53.6-.2-107.3-.2-161.4-.2z"/>
  <path fill="#171717" d="M100 453.8h34.5c3.3-.1 4.1.9 4 4.2-.6 33-1 66.2-1.4 99.4 0 3.9-1.3 4.6-4.9 4.6-28.6-.2-57.3-.2-86 0-3.5 0-4.3-1-4.3-4.5.5-33.1.9-66.3 1-99.4.1-3.7 1.3-4.4 4.6-4.4 17.4.2 34.7.1 52.5.1z"/>
  <path fill="#151515" d="M139.7 183.7c-.3 34-.8 67.9-1.2 101.7 0 2.7-1 3.3-3.6 3.3H46.5c-3 0-3.5-1-3.5-3.8.6-33.6 1.2-67.2 1.6-100.9 0-3.5 1.7-3.5 4.3-3.5 29.8 0 59.6 0 89.8.2 1 1 .7 1.9 1 3zM132.8 314.6c1.2-.5 2.6-.8 5.1-.9 1.7 1 1.5 1.8 1.8 3-.3 34.4-.8 68.6-1.2 102.7 0 3-1.2 3.5-3.9 3.5H47.2c-3.9 0-4.3-1.4-4.2-4.6l1.5-90.5c.1-4-.9-8.2.2-12.3.4-1.4.9-2 2.7-2 .4 2.7 2 2.9 4 2.6 2.5-.3 4.9.2 7.3 1.8 1.1 1.6 1 3 .1 4a7.6 7.6 0 0 0-1.8 6c.2 2.1-.3 4.2-2.8 4.6-2.6.6-3.3-1.5-4-3.4-.4-1.1-.4-2.3-.9-3.2-.5 0-.7.2-.7.6-.6 10-.6 10 9.4 10 10.3 0 20.6.7 30.6-2.7 6.2-2 12.6-1.1 18.7 1 8.1 2.8 16.4 1.4 24.7 1.6 1.6 0 3.1-.5 3.3-2.4.4-5.5.5-11 0-16.4-.2-1.3-1.4-1.9-2.5-3z"/>
  <path fill="#181818" d="M125 49.2c5.1.3 11.2-1.9 14 .8 3.1 3 1 9.2.9 14-.4 29.4-1 58.8-1.3 88.3 0 4.2-1.3 5.1-5.4 5.1-28.4-.2-57-.2-85.4 0-4 0-5-1-4.8-5 .7-32.7 1.2-65.5 1.6-98.3 0-3.9 1-5 5-5 25 .2 50 .1 75.4.1z"/>
  <path fill="#080808" d="m308 691-151 .1c-4.1 0-5.2-.9-5.1-5 .2-32 .1-63.7 0-95.6 0-3.5.6-4.7 4.5-4.7 58.8.2 117.7.1 176.5 0 3.6 0 4.7.8 4.7 4.6-.2 32-.1 64 0 96 0 3.7-.7 4.9-4.6 4.7-8.2-.3-16.3 0-25 0z"/>
  <path fill="#171717" d="M415 311.8h29.5c2.8 0 4.1.4 4 3.7l-1.5 102c0 2.5-.6 3.4-3.3 3.4h-88.5c-2.8 0-3.2-1.1-3.2-3.5.5-34 1-68 1.3-102 0-3.3 1.5-3.6 4.2-3.6H415z"/>
  <path fill="#181818" d="M445.4 556c.5 4.2-2 4-4.4 4l-51.5-.1h-34.4c-3.4.1-4.6-.6-4.5-4.3.6-33.1 1-66.2 1.4-99.4 0-3.3.7-4.5 4.4-4.5 28.6.2 57.2.2 85.9 0 4 0 4.9 1.2 4.8 5-.7 33-1.1 66-1.7 99.4z"/>
  <path fill="#1B1B1B" d="M351.1 646c.3-17.3.5-34.1 1-51 .1-3-2.3-6-.3-9.4 1-1.9 1.8-2.4 3.6-2.4h88.4c2.8 0 3.3 1.1 3.3 3.5-.6 33.9-1.2 67.7-1.6 101.5 0 3.2-1.3 3.7-4.1 3.7h-87c-3.1 0-3.9-1-3.8-4 .3-13.8.4-27.6.5-41.9z"/>
  <path fill="#111" d="M88.2 589c-1.7-.4-3.3-.9-4.6-.5-2 .5-5.2-2.2-5.6 2.4-.3 4 1 6 5.2 5.4.5 0 1.1.6 1.7 1.3-1.3 2-3.4 1-5 2l-.7 1.1c-1 2.3 1.3 6.3-2.3 6.3-3.9 0-1.2-3.9-2-6.3-.3-1.2-1-1.7-1.8-2.5-.2-.2-.6-.2-.8-.2.1-8.6 0-8.7-10.3-8.6H52c-1.7 0-3 0-4.5.7l-1.2.5c-1.6 9.6-.9 19.3-1.3 29 0 1.6.7 3.5-.7 5-2-.1-1.4-1.6-1.4-2.6 0-11 .2-22 .1-33 0-3.3 1.3-3.8 4.1-3.8h87.5c3 0 4 1 4 4-.7 33.5-1.2 67-1.5 100.5 0 4-2.1 3.6-4.7 3.6-29.5 0-59 0-89-.2-.5-.2-.7-.4-1-.8 0-1.8-1.4-4.5 2.2-2.8 1.2.5 2.7.2 4 .2h81c4.1 0 7-5 4.9-8.8-.8-1.4-2-.6-3-.5-16.2.7-28.4-5.7-36.7-19.5a38.7 38.7 0 0 1 4-43.7c1-1.8 2-1.6 3.5-.5 3.6 8 10.9 12.5 15.7 19 1.1 1.4 2.4.5 3.2-.7 4-6 8-11.8 12.7-17.2 1.3-1.5.6-3.5 1.5-5.5.3-7 .2-13.6.6-20.2.2-3.3-1-3.8-4-3.8-12.7.2-25.5.1-38.6.3l-1.2.8c-1 .5-1.7.6-2.8.3l-1.2-.7z"/>
  <path fill="#F4F4F4" d="M132.5 314.3c4.2 1.3 5.5 4 5 8.3-.5 4-.4 8-.3 12 0 2.5-.6 3.5-3.3 3.4-10-.6-20.2 1.3-30-2.6a22 22 0 0 0-15.3-.1c-10.4 3.8-21 2.6-31.5 2.8-10.3.2-10.3 0-10.2-10.2v-4c0-1.9 1-2 2.5-2.2 1.9-.3 1.7 1 1.8 2.2l.5 6c0 1 .6 2 1.8 2 1.4 0 2-1 2-2.4v-2c0-2.5-1.2-5.4 2.6-6.5.7-.3.5-1.5 0-2.6-1-1.4-1.2-2.6 0-4.1.6-.5.8-.5 1.3-.4 2.2 1 1.7 3.4 2.8 5.3 1.2 3.6 1.7 7.1 4.3 10.6 0-4.3-1.8-7.1-3.4-10.5-.4-2-.5-3.5 1-5.1 3-.3 5.8-.3 9-.3 2.6 1.3 2 3.4 2 5.4 0 1.4-.5 3 .4 4.3 1.1 1.8 2.2 4.8 4.7 1 1-1.3 3-1.2 4.4-3.1-4.6 1.2-7 0-6.6-5l-.3-1.3c0-.5.2-.7.6-1 11.2-.3 22.2-1.3 33-.1 7.1.8 14 2.2 21.2.2z"/>
  <path fill="#252525" d="M448.6 109.3c.4 1 .5 2 .4 3.3-2.6 1.2-1.4 3.4-1.4 5-.3 11.2-.5 22.6-.5 33.9 0 3.2-.8 4.3-4.2 4.2h-87c-3.3 0-4-1.1-4-4.3.6-33.3 1-66.6 1.3-100 0-3.6 1.3-4.3 4.7-4.3 28.8.2 57.6.2 86.4 0 3.7 0 4.4 1.3 4.3 4.6-.4 17.5-.5 35-.8 52.5 0 1.6.2 3.3.8 5z"/>
  <path fill="#181818" d="M353 211c3.9-1.6 2 1.6 2 2.7 0 11.6-.3 23.3-.5 35-.1 10-.2 20.2-.5 30.4 0 2.8.7 3.7 3.6 3.7H441c2.7 0 3.8-.7 3.8-3.6.3-31.5.7-63 1.2-94.4 0-2.6-.6-3.4-3.3-3.4h-84.4c-2.6 0-3.1.5-3 3.4.3 7.8-.1 15.6-.2 23.4 0 .9-.2 1.6-1.7 1.6-.3-9.3-.1-18.3-.1-27.3 0-2.7.7-3.8 3.6-3.7h88c2.9 0 3.7.8 3.6 3.6l-1.4 101c0 3-1.2 3.5-3.9 3.5h-87.4c-3.9.1-3.8-1.7-3.8-4.5l1-71.4z"/>
  <path fill="#EBEBEB" d="M135.2 612c1.3 3.8-.3 6.5-2.7 9.5-4.5 5.5-8.5 11.4-13 17.7L102.4 620c-.5-.5-.3-1.5-.5-2.7.8-3.3 3.5-2.7 5.6-2.7 6.6-.2 13.1 0 19.7-.1 2.1 0 4.3.2 6.2-2 .7-.4 1-.5 1.8-.5z"/>
  <path fill="#212121" d="M133.2 612.1c2.6 4-.1 3.8-2.6 3.8-9.5 0-19 .2-28.7.7-1 0-1.6-.4-2.6.3-1.3-2-3.1-1-4.6-1H52.8c-1.7 0-4.7 1-4.9-1.8-.1-3 2.9-2 4.6-2h80.7z"/>
  <path fill="#131313" d="M32.7 326.1c-2.5 3.2-5.8 3-8.9 3.5-1.3.2-2.7.1-3.5-1.2-.7-1.2-.2-2.3.6-3.2 1-1.3 2.2-2 3.8-.8 1.8 1.3 3.7 1 4.4-1 .6-1.9.7-4.6-2.8-3-1.4.6-2.2.5-2.9-.8-.6-1 .2-1.8.8-2.6l1.7-1.8c1-1 1.9-2.3 1-3.5-1.3-1.6-2.4.1-3.5.6-1.6.8-3.6 2.2-4.7 0-1.3-2.3 1.5-2.9 2.9-3.7 6-3.5 9.3-1.6 9.7 5.3.2 4 3.1 7.6 1.4 12.2z"/>
  <path fill="#151515" d="m20 179 .6-.5c3.2-2 6.5-5.5 10.2-2.3 4 3.4 1 7.4-.7 10.9-1 1.8-2.2 3.5-3.3 5.3 2 1.8 6.4-.8 6.1 2.7-.4 3.8-4.3 1.3-6.6 1.8-1 .2-2 0-3-.2-1.3-.3-2.7-.8-3-2.2-.5-1.6.5-2.5 1.7-3.3 4-2.9 5.3-7.1 6.5-12a11 11 0 0 0-7.4 4c-1 1.1-1.1 4-3.4 2.2-1.6-1.2-.8-3.3.5-4.8l1.7-1.6z"/>
  <path fill="#111" d="M14.9 52.8c0-1 0-2.1.3-2.2 8.3-1.4 3.2-7.5 5-11.9-3.4.9-3.8 6.4-6.7 4-3.4-2.9 2.2-4.1 2.8-6.6.3-1 1-1.7 1.4-2.6.9-2.2 2.8-1.5 4.3-1.4 1.6.2 2 1.6 2 3-.1 3.3.1 6.7-.2 10-.3 3.6.5 5.7 4.7 5 1-.2 2 0 3 .2 1.1.1 1.7 1 1.7 2 0 1.3-.8 1.9-2 1.8-5.3-.4-10.8.9-16.3-1.3z"/>
  <path fill="#181818" d="M94.8 298.5c2.4-.8 4.2-1 4.4 1.8.2 2.1-1.6 2.5-3 2.4-4.1-.4-8.3 1.4-12.3-.5-1.1-.5-1.8-.5-2 1-.3 1.5 0 2.1 1.7 1.8 1.3-.3 3-.8 3.4 1 .6 2-1.5 2.1-2.8 2.7-7.1 3.4-8 3.2-10.2-2.7-.2-.5-.7-1.5-.4-1.7 1.4-1.8 4.6-1.2 5.3-4.4.9-4.3 4-2.5 6.2-1.5 3.1 1.4 6.2-.6 9.7.1z"/>
  <path fill="#080808" d="M261.2 305.4c-2.2-3.1-1-5.7 1.4-6.7 3.8-1.7 4.1 3.1 7 4.3.6-1.6.9-4.1 2.9-4.7 1.7-.5 4-1.7 5.7 1.1 1 1.8 1.2 3.3.3 5.2.6 2.5 1 4.7-1.5 6-2.2 1-3.4-.7-5-2-3-2.5-6.8-2.3-10.8-3.2z"/>
  <path fill="#101010" d="M142.8 299.6c.9-1.7 2.2-2.7 3.4-2.4 4.1.9 8.2 2.2 12.4.9.3-.1.8.2.9.4 0 3.5 1 7.4-.2 10.4-1 2.5-4.6 1.6-7.1-.6-1-1.6.9-2.2.5-3.3-2.3-.7-3 1.3-4.4 2.8-3 1.2-4.5 0-5.6-2.7-.3-2-1.3-3.5 0-5.5z"/>
  <path fill="#111" d="M38.1 592.1c-1 5.6-3.2 7-8.3 6-1.4-.3-2.2-.9-2-2.3.3-1.3 1.2-2 2.6-1.5 1.3.6 2.6 1.2 3.3-.5.4-.8.4-2.2 0-2.8-1.1-1.5-2.4 0-3.4.4-1.7.7-2.8.1-3-1.3-.6-2.7-.7-5.6-.8-8.3 0-2.5 3-2 4.9-1.9 1.7 0 4.1-.4 4.6 1.8.4 2-1.5 2.2-3.1 2-1.3-.3-1.8.3-1.7 1.5 0 1.2.7 1.2 1.6 1.2 3.6 0 5 2.1 5.3 5.7z"/>
  <path fill="#131313" d="M46.4 590.5H46c.6-1.3 2-1 3.4-1.4 4.1-.8 7.9-.6 12-.5 2.2.6 3.8 1.3 2.8 4-6.3 0-5.5 4.5-5.8 8.1l-.2 4c0 1.6-.2 3.2-2.3 3-2-.1-1.9-1.9-1.8-3.4.2-3.1.2-6.3.6-9.4.2-1.8-.1-2.7-2-2-2.9 1.2-4-1.1-6.2-2.4zM77.2 639.3c-6-.2-11.8-.2-17.6-.2-1.3 0-3.4.3-3.5-1.7-.2-2.5 2-2.2 3.5-2.3l20-.2c2.5 0 5.7 0 5.1 3.5-.4 2.9-3.3 3.2-6.2 1.7l-1.3-.8z"/>
  <path fill="#1B1B1B" d="M63.5 622.7c5.6 1 10.8 2.4 16.1 1.5 1.7-.3 3.2.3 3.3 2 0 2-1.7 2.4-3.2 2.4a80.3 80.3 0 0 1-21.5-3.6c-1.3-.4-2.7-1-2-2.7.5-1.6 1.7-1.5 3.1-.9 1.2.6 2.6.8 4.2 1.3z"/>
  <path fill="#111" d="M44.3 668c-.3 5.2.3 10-1.4 14.5v-55.1h1.4V668z"/>
  <path fill="#080808" d="M109.7 604.1c1 1.2 2 2.7.3 3.4-3.2 1.2-6.8 1.3-9.5-.9-2-1.5-3-3.9-1.7-7 1.2-2.8 2.6-5.2 5.8-4.9 3.5.4 5.3 2.8 5.4 6.8a4.2 4.2 0 0 1-3 2.4h-.9l.4.1c1.2 0 2-.2 3.2.1z"/>
  <path fill="#101010" d="M222.3 301c1.8-2.7 4.7-4.3 3.7-7.9-.2-.8.8-1.4 1.7-1.4 1.2 0 2 .6 2.3 1.7.7 2.7 2 5.3 2 8.2-.2 5.2-2 6.5-7.7 4.5-2.3-1.1-2.6-2.8-2-5.2z"/>
  <path fill="#212121" d="M111.3 304.6c-3.6 1.2-7.2 3-9.4-1.3-2-3.9-.7-7.7 1.5-11.2a2.9 2.9 0 0 1 4-1c1.9 1 2.3 3.2 2.4 5.1 0 2-1.4 2-2.8 1.3-1.6-.6-1.6.5-1.8 1.5-.1 1.1 0 2.3 1.1 3 1.2.8 2.6.3 4.2 0 1.3.5 1.3 1.4.8 2.6zM69 666.7h-7.4c-1.2 0-2.5-.3-2.4-1.9 0-1.1 1-1.7 2.1-1.7l17.4-.9c2 0 3.9 1.1 3 3.4-.6 2.1-3.2 3.4-4.7 2-2.6-2-5-.8-8-.9z"/>
  <path fill="#151515" d="M29.3 461.7c-.4-2 .8-4.6-2.8-3-2.4 1.1-2.8-.5-2.5-2.5l.5-3.4c0-1.5-1.2-3.6.9-4.4 1.8-.7 2.4 1 2.7 2.6.2 1.2.8.2 1.3 0 5.3-1.8 2.7 4.8 5.8 5.4-1.6 2-1.4 5.2-3.8 6.7-.7.4-1.6-.3-2.1-1.4zM78.3 314.8c1.7-.8 3.2.1 1.5 1.1-2.6 1.6-.9 3.4-.6 4.6.3 1.6 2.2.5 3.4.2 1.6-.3 3.8-2.2 4.5.6.6 2.6-2 2.4-3.7 3-1.3.3-3.2 0-3 2.7 0 2.6-2 3-3.5.8-1.5-2.4-5.3-4-3-8.1.6-1.2-.8-3.4-.8-5.4 1.8-.5 3.1-.6 5-.5.5.1.5.5.3.6-.2 0-.4.3-.4.3s.2.2.3 0z"/>
  <path fill="#1B1B1B" d="M56.6 650.6A69.9 69.9 0 0 1 77 647c1.5 0 3.4-.2 3.2 2-.1 1.7-1.7 1.7-3.1 1.7-5.6 0-11 1.2-16.3 2.3-1.8.3-4.2 1.3-4-2.4z"/>
  <path fill="#212121" d="M142.7 299.4a17 17 0 0 1 0 4.9c-.5.2-.8-.8-1.5-.3-5.5 4.5-6.7 4.2-8.9-2.9-1-1-1.2-1.8-.5-3 4.6-3 4.5.9 5.6 3.6 1-2.7 2.1-4.9 5.3-2.3z"/>
  <path fill="#1B1B1B" d="M260.3 305.3c.4-.2.6-.2.6-.1-3.1 2.7-6.8.8-10.5.8-3.3-1.7-3.7-4.2-2.6-7.4 5 1 10.2 1.2 12.5 6.7z"/>
  <path fill="#212121" d="M279.6 300.3c.6-.8.8-1.2 1.2-1.5 2.1-1.4 4.7-3 6.6-.6 1.2 1.5 1.2 4.6-.3 6.3-1.7 2-4 4.3-7.1 1a5.3 5.3 0 0 1-.4-5.2z"/>
  <path fill="#131313" d="M111.2 305.2c-.2-1.2-.2-2-.2-3 0-2-.9-4 1.5-4.4 2-.4 2.4 1 2.4 2.7 0 .4.2 1.8 1 .8 2.5-3 3.7.3 5.8 1.3 1.1 1 1.1 1.8.5 3-2.5.6-4.8-.8-7 1.1-1.2 1-2.8 0-4-1.5z"/>
  <path fill="#151515" d="M202.2 303.2c-3.5 3.9-6.4 3-9.2-.7-1-1.6-.5-2.7.7-3.8 2.6-1.5 5-2 7.7-.6 2 1.5 1.9 3 .8 5.1z"/>
  <path fill="#1B1B1B" d="M122.4 306c-.4-1-.4-1.7-.4-2.8.4-.5 1.3-.6 1.3-.8 0-6 3.9-5.6 8.3-4.9.4 1.1.4 2 .4 3-1.9.8-4.3-.2-4 3.8.3 3.9-4-.6-5.6 1.7zM89.2 589l2-.1c.5.1.7.2.9.7v13c.8 1.5 1 2.6 0 4-2.9 1.1-3.8-.2-3.7-2.6l.5-13.6c0-.7 0-1 .3-1.3z"/>
  <path fill="#F9F9F9" d="M64.2 593c.1-1.6-.8-2.7-1.9-4.1 2-.5 4.2-.7 6.3-.5 1.9.2 4.7-1.2 5.3 1.1.7 2.5 1.2 5.7-1.7 8-.4.5-.7.6-1.5.8-1.2.4-1.9.4-2.6-.4l-.1-2.3c.2-1.5.7-3-1.8-2.7h-2z"/>
  <path fill="#9B9B9B" d="m202 303.9-.2-5.3c2.7 2.2 8.3-1.3 10 4.3 1.4.2 1.6.8 1.3 2-3.9 0-7.7 3.2-11-1z"/>
  <path fill="#151515" d="M181.1 305.3c-1.5.3-2.7.4-3.7.8-1.8.6-3.7 1.4-4.8-.7-1.3-2.3 0-4.6 1.6-6.2 1.6-1.6 3.4-.8 4.6.9.7 1 2.7.7 3 2.7.9 1 .6 1.9-.7 2.5z"/>
  <path fill="#212121" d="m213 305.4-.5-2.2c-.3-.8-.3-1.5-.3-2.1 0-1.4-.4-3 1.1-4 2-1.2 2.4 1.7 4.3 2 1.9 1.9 1.1 3.6-.3 5.6-1.3 2.2-2.6 2.8-4.4.7z"/>
  <path fill="#444" d="M67.6 597.7c1 0 1.5.2 2.4.6.2 2.1.2 4 .2 6 0 1.3-.4 2.5-1.9 2.5s-1.9-1.3-1.9-2.4c0-2.2-1.2-4.6 1.2-6.7z"/>
  <path fill="#636363" d="M247.8 298.2c-.2 2.7 1.1 4.8 2.2 7.2-1.7.5-3.4 1.4-5.6.6-2-1.5-1.8-3.3-.7-5.5.4-1.1.5-2 .4-3.1 1 0 2.2.3 3.7.8z"/>
  <path fill="#9B9B9B" d="M58 313.7c2 1.5 1 2.5 0 4-3.8-1.4-7.8.2-11.5.2-.5-2.3 2.2-1.9 1.7-4a19 19 0 0 1 9.9-.2z"/>
  <path fill="#252525" d="M193.6 298.4c.1 1-.2 2-.6 3.4-2-.2-2.3.8-2.2 2.5.2 1.1-.4 2-1.6 1.9-1 0-1.7-.8-2-1.8-1.3-3.7 1.5-6.6 6.4-6z"/>
  <path fill="#636363" d="M217.4 305c-1.4-2 1-3.3.5-5.5 2-1.2 2.4 1.2 4.2 1.1 1.2 1.3.3 3.2 1.8 4.9-2.2 1.6-4.3 1.1-6.5-.6z"/>
  <path fill="#212121" d="M243.7 300c.3 1.9.4 3.5.4 5.6-4.6 2-3-2.7-4.7-4.1-.7-.7-.6-1.9.3-2.6 1.7-1.3 2.7-.2 4 1.2z"/>
  <path fill="#9B9B9B" d="M148.4 308c.6-5.4 2.7-6.1 7.6-2.6-.9 1.3-3 .1-3.8 2.2-1.2-.3-2.3 0-3.8.4zM64 313.7c2.8 2.3-.8 3.8-.4 6.2-4 .4-4.3-2.4-4.5-5.5 1.7-1.5 3-1.2 5-.7z"/>
  <path fill="#444" d="M244 297c-.8 0-1.7.2-2.4 0-1.7-.6-2.6-2-2.6-3.8 0-1.2.9-1.9 2-1.9 1.8 0 2.3 1.6 2.7 3 .2.6 0 1.3.1 2.3l.2.4z"/>
  <path fill="#636363" d="M180.9 305.6c.2-.8.6-1.4 1-2.3 1.8.2 4.3.6 3.4 2.8-.8 1.8-2.9 1-4.4-.5z"/>
  <path fill="#9B9B9B" d="M66 593.3c0-1.8.8-3 2.4-2 1.6.8 2.2 2.3-.1 3.8-.9-.4-1.5-1-2.2-1.8z"/>
  <path fill="#212121" d="M79.2 600.2c.4-3.4 3-1.7 5.2-2.2.6 3.6-2.2 1.4-4 2-.6.2-.8.3-1.2.2z"/>
  <path fill="#F9F9F9" d="M92.3 607c-.3-1-.2-2.2-.1-3.6 1.3-.3 2.3.2 2.5 1.4 0 1.3-1 2-2.4 2.2zM110 604c-1 .3-2 .5-3.4.6-.8-.2-1-.5-.8-1.2l3.8-1.5c.4.5.4 1.1.4 2z"/>
  <path fill="#9B9B9B" d="M279.6 300c.3 1.4.3 2.8.2 4.7-.2.4-.5.5-1.1.4-1.3-1.6-.3-3.1-.5-4.9.4-.3.8-.3 1.4-.3z"/>
  <path fill="#212121" d="M73 598.4c1-.4 1.8 0 1.9 1.6-.8 0-1.8-.1-2-1.6zM140 316.6c-1-.2-1-1.2-1-2.4 1.6 0 .8 1.2 1 2.4zM140 183.6c-1-.2-1-1.1-1-2.4 1.5 0 .9 1.2 1 2.4z"/>
  <path fill="#F9F9F9" d="M92.3 589.9c-.5 0-.7-.1-.9-.6.3-.5.5-.6 1.2-.7.2.5 0 .8-.3 1.3z"/>
  <path fill="#EBEBEB" d="M89.2 588.7c.4.5.4.7.1 1.1-.6 0-.9-.3-1.2-.8.2-.4.5-.4 1-.3z"/>
  <path fill="#F9F9F9" d="M79 600.3c.2-.3.3-.3.7-.2.2.3 0 .6-.5.8-.2 0-.3-.2-.3-.6zM77.1 639.3c.2-.1.6 0 1 .4-.3.2-.6 0-1-.4z"/>
  <path fill="#212121" d="M42.1 692.3c.4-.2.6 0 .8.5-.2 0-.5 0-.8-.5z"/>
  <path fill="#F9F9F9" d="M198.3 124.3c-2.3-1.9-.2-3.2.3-4.4 5-12.5 4.5-25-1.7-36.7a27.5 27.5 0 0 0-34.3-13.7c-3.9 1.5-5.6 1.7-5-3.3.4-4.2-1.8-9.9.7-12.5 2.6-2.6 8.3-.7 12.5-.8h66.5c1.3 0 3.9-1.3 4 1.2 0 2.9-2.7 1.8-4.3 1.8h-15.5c-2.9-.1-4.3.8-4.2 3.9l.5 72.9c1.1 3.1 0 6.6 3 9-.2 3 .3 4.7 3.7 4.5 4.5-.3 9-.2 13.5-.2 1.7 0 3.3-.4 3.3 2.3 0 2.3-.9 2.7-3 2.7h-77.7c-5.6 0-2.3-4.3-3-6.6-.6-2.3.8-2.7 3-2.1 14.4 4 26-3.7 34.6-15.5.8-1 1.5-2.2 2.6-3 3.5 4.4 7.5 2.8 12.3 2.2-4.2-3.2-8.1 0-11.8-1.7z"/>
  <path fill="#F2F2F2" d="M293 151h-44c-1.6 0-3.8 1-3.8-2.3.1-3 2.2-2.4 3.9-2.4 19.1 0 38.3-.2 57.5-.1 3.6 0 5.5-.8 5.4-4.7l.3-16 .4-59.4v-2.5c-.2-7.5-.2-7.5-7.6-7.5l-54.5-.1h-3c-1.2 0-2.4-.2-2.5-1.8-.1-2 1.6-1.2 2.5-1.3h82c3.6-.1 5 .4 5 4.6-.2 29.7-.2 59.3 0 89 0 3.7-.9 4.7-4.6 4.6-12.2-.2-24.3 0-37 0z"/>
  <path fill="#F9F9F9" d="m284.2 85.2 24.3-23v77l-11.6-10.5-27-25c-2.2-2-2.3-3-.1-5 4.8-4.3 9.4-8.8 14.4-13.5z"/>
  <path fill="#FBFBFB" d="m289 75-21.7 21c-2 1.8-3.7 2.3-5.8 0-1.8-2.1-3.7-4.5-6.1-5.8-11.3-6.3-10.7-16.7-10.1-27.3 0-2 .4-3 2.7-2.9h57.2l-16.1 15zM294 142.2c-15.2 0-29.9 0-44.5.2-3.3.1-4.6-.7-4.2-4.1.2-2.1.3-4.4 0-6.5-1.5-7.7 2-13 7.8-17.4 2.6-2 5-4.3 7.2-6.8 2.9-3.4 5-3.4 8.3-.2 11.5 11 23.3 21.7 35 32.5.5.4.8 1 1.9 2.3H294z"/>
  <path fill="#F7F7F7" d="M220.8 133.4c1.2-21.2.4-42 .6-62.8v-6.5l18.8 17.4c1.3 1.2 1 2.7 1 4.2v31.4c0 2.2-.4 3.7-2.1 5.2-6 5.3-11.7 10.9-17.8 16.5-1.8-1.5-1.7-3.2-.5-5.4z"/>
  <path fill="#F9F9F9" d="M178.6 100.6c-1.4 1.8-2 4-4.1 4.6-5.3-8.7-10.4-17.4-15.8-26-1.6-2.6-.8-3.7 1.6-5 9-4.9 21-3 28.5 4.5 1.8 1.8 2.3 3.2.8 5.4l-11 16.5z"/>
  <path fill="#F8F8F8" d="m194.4 120.2-5.7 9.2-10.7-18c-.7-1-.9-2 0-3l1.4-2.2L193.6 85c5.8 12.1 5.5 23.5.8 35.3zM164.4 139l-6.2-1.1 16.5-24.5 10.2 17c1 1.7-.1 2.3-1 3.2-5.5 5-12 6-19.5 5.4z"/>
  <path fill="#F9F9F9" d="M157.6 107V86.2c3.7 3.3 5 7.1 7.2 10.2l.5.9c1.5 4.7 7.4 8.2 6.5 12.9-1 4.5-5.2 8.4-8 12.5a29.1 29.1 0 0 1-6.2 7.2V107z"/>
  <path fill="#F2F2F2" d="m252.7 109.7-7 6.3V86.5l14.6 13.3c1.5 1.4.6 2.2-.5 3.2l-7 6.7z"/>
  <path fill="#F7F7F7" d="m238.7 74.8-16-14.8h16.8c1.8 0 1.7 1.2 1.7 2.4v12c0 2.2-.9 2.2-2.5.4z"/>
  <path fill="#F5F5F5" d="M237.4 129.4c1.4-.9 1.7-2.4 3.2-2.7.2.3.5.6.5.8.6 15.6-.1 16.3-16.6 14 4.3-4 8.5-8 13-12z"/>
  <path fill="#636363" d="M220.6 133c1.2 1.7.7 3.4.6 5.4l-.1 3.2c-6-.4-3-5-3.5-8.2 1-.4 1.8-.4 3-.4z"/>
  <path fill="#F7F7F7" d="M310 416h-60c-1.9 0-4.7 1.4-4.8-2.8-.2-4.4 2.3-4 5-4 18-.4 36-1 54-1.2 4.5 0 6.7 0 6.3-6.2-.8-13.3 0-26.6 0-40v-24.5c0-5.5-1.5-7-7-7-17.9-.1-35.9-.2-53.9 0-3.5 0-4.5-1-4.4-4.5.2-8.9 0-9 8.8-9 25.4 0 50.7.2 76 0 3.8 0 4.6 1 4.6 4.7-.2 30-.2 60 0 90 0 3.6-.8 4.8-4.6 4.6-6.5-.3-13 0-20 0z"/>
  <path fill="#FBFBFB" d="M157.7 334.3c-.2-4.8 0-9.5-.2-14.1 0-2.7.8-3.4 3.4-3.3h77c2.5 0 3.3.5 3.4 3.2.1 10 .3 10-9.7 10h-50.5c-2 0-4.2-.7-4.2 3 .2 22.6 0 45.3 0 68 0 7 1 7.9 8.2 7.9h51.5c2.6 0 4.7-.3 4.7 3.7 0 4.4-2.6 3.3-4.9 3.3-24.6 0-49.3-.1-74 .1-4.3 0-5-1.3-5-5.3.3-21.1.2-42.3 0-63.8 0-1 0-1.4 1-1.7 4.4 0 8.3-1.1 12.2-2.6-3.9-1-7.5.8-11.5 1-.9 0-1.3-.2-1.7-.9v-5.6c4-1 8-1.9 12.2-2.1 1 0 2.8.2 2.8-1.3-.1-1.8-2-1.3-3.2-1.1-3.7.5-7.3 2-11.5 1.6z"/>
  <path fill="#FCFCFC" d="m229.9 377.9-43.6 25.7c-4.6 2.8-5.3 2.4-5.3-2.7v-63.6c2.3-.3 4 1 5.7 1.8l50.3 27.1c1.5.8 4 1.3 4 3.4-.2 1.9-2.6 2.5-4.2 3.1-2.7 1-4 3.8-7 5.2z"/>
  <path fill="#F9F9F9" d="M306.3 396.7c-.1 3.8-2 2.3-3.3 1.6-6.5-3.3-13-6.7-19.4-10.2-11-5.9-21.9-11.9-32.9-19l55.6-32.6v60.2z"/>
  <path fill="#F8F8F8" d="M274 405c-8.5.3-16.5.4-24.4.9-3.7.2-4.5-1-4.4-4.4.2-8.2 0-16.3.1-24.5 0-1.6-.8-3.7.8-4.6 1.8-1 3.7.3 5 1.4 4.9 4.6 11.1 6.9 16.9 10 12 6.5 23.9 13 35.8 20.5l-29.8.7z"/>
  <path fill="#F9F9F9" d="M261.4 358.4c-4.5 2.6-8.7 4.9-12.8 7.4-2.4 1.4-3.3.8-3.3-1.8v-27.5c0-2.4 1.2-2.6 3-2.6 17.7 0 35.3 0 53.3 1l-40.2 23.5z"/>
  <path fill="#FCFCFC" d="M241.2 341v23.2l-54.9-29.4c.8-1.7 2.4-.9 3.5-.9h45c6.4 0 6.4 0 6.4 7.1zM192.7 404.3c16-9.6 31.8-18.8 48.5-28.6v19.5c0 10.4 0 10.4-10.3 10.3l-37.5-.2c-.6-.2-.7-.4-.7-1z"/>
  <path fill="#444" d="m157.2 334.3 13.6-3c1.3-.2 2.7-.2 3.6 1.1.8 1.3 0 2.2-.6 3.2-.9 1.5-2 1.9-3.7.9-2-1.3-4 .4-6.1.6-2 .3-4 .7-6.2-.3-1.1-.6-.9-1.5-.6-2.5zM159.3 345.6l-1.6.8c-.4-.9-.5-2-.5-3.4.6-.3.9-.2 1.5 0 1 .7 1 1.5.6 2.6z"/>
  <path fill="#636363" d="M192.5 403.9c.3.2.3.5.3 1-.3 1-1 1.1-1.4.6-.6-.8.1-1.3 1.1-1.6z"/>
  <path fill="#101010" d="M428.1 202c0 15.7-.2 30.8 0 46 .1 4.3-1.2 5.2-5.3 5-14.6-.2-29.3-.1-44-.2-6.6 0-6.6 0-6.6-7.1l-.6-49.5c0-5.3 1.6-7 7-7.1 14.7-.1 29.3 0 44-.3 4.4 0 6 1.4 5.6 5.7-.3 2.3 0 4.7 0 7.5zM390 263l-11.5-.1c-1.5 0-3.3 0-3.4-2 0-2.2 1.8-2 3.2-2h43.5c1.5 0 3.3 0 3.1 2.2-.2 2-2 1.9-3.5 1.9H390z"/>
  <path fill="#252525" d="m412.5 270.6-23.9.2c-1.6 0-3.7.2-3.7-2.2 0-2.4 2.2-2 3.8-2l24.4-.3c1.8 0 4.4-.4 4.5 2 0 3-2.8 2.1-5 2.3z"/>
  <path fill="#171717" d="M423.6 279.5c-2.1 1.8-4 1.8-5.1-.5-1-2-.4-4.1.8-6 .8-1.3 2.2-1.4 3.4-.6 2.8 1.8 2.4 4.3 1 7.1z"/>
  <path fill="#111" d="M432 280.5c-2 1-4.1 1.7-4.8-.7-.7-2.2-.5-4.7 1.5-6.4 1-.8 2.4-.8 3.1.2 1.5 2 2.4 4.3.2 6.9z"/>
  <path fill="#101010" d="M439.7 275.4c.3.9.4 1.4.4 1.9 0 1.7-.4 3.3-2.5 3.7-1.2.2-2.3 0-2.7-1.4-.6-1.9-.4-3.8.9-5.2 1.2-1.4 2.6-.7 4 1z"/>
  <path fill="#171717" d="M413.6 274.9c.2.8.3 1.3.2 1.8-.3 2-.8 4.1-3.6 3.3-2.3-.6-1.4-2.6-1.1-4 .5-3 2.2-2.8 4.5-1.1z"/>
  <path fill="#FBFBFB" d="m227.7 519.2 11 4.2c-27 8.8-52.8 17.2-78.5 25.8-3.8 1.3-4 0-4-3.1.2-15.5.2-31 0-46.5 0-3.4.3-4.6 4.2-3.2 22.3 7.7 44.6 15.2 67.3 22.8z"/>
  <path fill="#FCFCFC" d="m312.2 503 17.9-5.8c2-.6 3-.6 3 2-.2 17.1-.1 34.2-.1 51.9L253 523.8l-.2-1 59.3-19.7z"/>
  <path fill="#F4F4F4" d="m298 457 31.5-.1c2.2 0 3.6 0 3.6 3-.2 10.5-.1 21-.1 32-2-1.2-3.7-1-5.4-1-25.8-.3-51.6-.7-77.4-.8-3.7 0-5.2-.7-5-4.9.3-8 .2-16 0-24-.1-3.4.8-4.4 4.4-4.4 16 .2 32 .1 48.4.1z"/>
  <path fill="#F2F2F2" d="m237.8 489.9-75.8-1.2c-2.4 0-6-1.4-5.7 3.4 0-10.6.1-21.2-.1-31.8-.1-3.7 2-3.4 4.3-3.4h78c2.1 0 2.8.6 2.7 2.8v27.5c0 2.2-.8 3-3.4 2.7z"/>
  <path fill="#F4F4F4" d="M289 555.6c-13.3 0-26.1-.2-39 0-4 .2-5-1.2-4.8-5 .3-8.3 0-16.6 0-25.3l87.4 29.6.2.7H289z"/>
  <path fill="#F5F5F5" d="M175 555.6h-18.3v-1c13-4.4 26.2-8.9 39.4-13.2 13.8-4.6 27.7-9 41.5-13.7 3.2-1 3.7-.5 3.6 2.5-.1 7-.2 14 0 21 .2 3.4-.8 4.5-4.3 4.5-20.5-.2-41-.1-61.9-.1z"/>
  <path fill="#F8F8F8" d="m277.4 510.5-32.1 10.6v-25c0-3 2-2.5 3.7-2.5l56.4.9h16.4l.2 1.2-44.6 14.8z"/>
  <path fill="#F9F9F9" d="m215.8 511.2-53-18 .1-1h4.6c23 .3 46 .8 69 1 4 0 5 1.3 4.8 5.1-.3 6-.2 12 0 18 0 2.8-.6 3.5-3.4 2.4-7.2-2.6-14.5-5-22-7.5z"/>
  <path fill="#F8F8F8" d="M157.6 256v-67.4c-.1-3.5.4-4.8 4.4-4.8 25 .2 50 .2 75 0 3.4 0 4.3 1 4.3 4.4-.2 29.8-.2 59.6 0 89.4 0 3.3-.6 4.5-4.3 4.5-25.1-.2-50.2-.2-75.4 0-3.2 0-4.2-.8-4.1-4.1.3-7.2 0-14.3 0-22z"/>
  <path fill="#FDFDFD" d="M289 282h-39.2l14.7-17 25.1-27.8c1.2-1.2 2-3.3 4.1-.7l37.5 45.5H289z"/>
  <path fill="#F7F7F7" d="M334.5 261v18.9l-9.7-11.6c-8.9-10.7-17.5-21.4-26.5-31.8-3-3.5-3-6 .2-9.4 11.2-12.1 22-24.5 33-36.8.5-.6 1-1.8 3-1.3v72z"/>
  <path fill="#F2F2F2" d="m245.4 272.2-.1-11.8c0-1-.3-2.6.2-2.9 2.9-1.6 3-2.8 0-4.7-.6-.4-.2-2.5-.3-4.2 1.2-2.5 3.8-1.2 5.6-2.6-1.6-1.3-3.9-.3-5.5-2-.2-18.7 0-37.1-.1-55.6 0-3.9 1-4.7 4.7-4.6 10 .3 20 .2 30 0 2.8 0 3.9.3 2.5 3.6-11.3 26-22.4 52-33.5 78.1l-2.6 6.3c-.5.3-.6.5-.9.4z"/>
  <path fill="#FCFCFC" d="M281.5 198.7c.7-1.4 1.4-2.4 1.7-3.5 2-10 8.4-12.4 18-11.5 9.8 1 19.8.2 30.9.2l-11 12.6c-8.8 9.8-17.7 19.5-26.3 29.5-2.2 2.5-3.3 2.3-5.2-.2-3-4.1-6.3-8.1-9.7-12-2.2-2.5-3.2-4.7-1.2-7.8 1.3-2.1 1.8-4.7 2.8-7.3z"/>
  <path fill="#F9F9F9" d="M277.5 216.7c3.5 4.2 6.7 8.3 10 12.1 1.6 1.9 1.7 3.4 0 5.2l-34.2 38c-1 1-1.7 2.6-3.6 1.9l23.8-56.3c.7-1.6 1.2-5 4-1z"/>
  <path fill="#1B1B1B" d="M245 244.2c1.1 2 2.6-.3 3.8-.1 1.7.2 4.3-1 4.5 1.6.2 2.4-2.1 2.5-4 2.3h-3.8c-.4-1-.5-2.1-.5-3.8z"/>
  <path fill="#9B9B9B" d="M245.2 272c.1-.2.5-.3.6-.2 0 .6 0 1-.2 1.3l-.4-1z"/>
  <path fill="#FCFCFC" d="M65.7 501.7c8.3-9 18.1-13.4 29.8-10.4 10.7 2.8 17.3 10.5 20.5 21.2a46 46 0 0 1-6.9 41.7c-1.6 2.4-3.5 3.6-6.5 3.6-12.2-.2-24.4-.2-36.5 0-3.6 0-5.6-1.6-7-4.5a45.8 45.8 0 0 1 6.6-51.6zM46 478.9a199 199 0 0 1-.3-20.5l1.1-1.2a5688 5688 0 0 1 87.7-.3c.6.3.8.4 1.1.8.1 8.4 0 16.5-.1 25-.4.5-.6.6-1.2.5-7-11-17.1-15.9-29.2-17.4a90 90 0 0 0-59.2 13z"/>
  <path fill="#F2F2F2" d="M107.9 491.7c3.9 1.7 8.9 1 9.6 7 .3 2.2 2.8.9 4-.2 3.9-3.4 7.6-7 11.4-10.5.6-.6 1-1.6 2.2-1.7V509c-.1 14.5-.5 29-.4 43.5 0 4.6-1.5 5.6-5.7 5.3-5.5-.3-11 0-16.8 0 13-22.8 15.8-44.6-4.7-65-.2-.5-.1-.7.4-1zM45.3 479.4c0-.4.3-.5.4-.5 0 4.8 2.9 8.2 6.2 10.8 3.4 2.7 5.7 6.4 9.4 8.7 2.2 1.2 0 2.1-.6 2.9-8.6 11.8-12 25-9.9 39.5.9 5.9 3.4 11 6.5 17h-11c-3.2 0-2.2-2.5-2.2-4l1.2-74.4z"/>
  <path fill="#F5F5F5" d="M102.9 469.8c9.7 1.1 18.6 3.6 25.2 11.5 2.2 2.6 2.4 4.4-.5 6.4-1 .7-1.7 1.6-2.6 2.4-3.6 3.3-7.2 3.3-10.7-.2-1.7-1.6 2.5-3.5 0-5.3 3.7-3.4.8-5.5-1.9-6.5-3.7-1.3-5.7 1.8-7.2 4.6-.7 1.3.9 4-2.5 3.3-3-.7-1.3-2.8-1.1-4.4.2-3.2 2.3-6.2 1.5-10-.2-.8-.4-1-.2-1.8z"/>
  <path fill="#EBEBEB" d="M102.7 469.3c.4.4.4.7.3 1.4-2.5-.2-4.1 0-4 3.3.1 2.6-.6 5.3-1.1 7.9-.3 1.1.2 3-2 2.8-1-.1-2.8 0-2.8-1.3-.1-1.2-.7-3 1.4-3.7 3.3-1.1 3.8-3.2.3-4.4-3-1-.2-5.2-3.4-5-2.6 0-1.3 4.5-4.4 4.6-1.4 0-2.2.8-2 2.3.1 1.4 1.3 1.8 2.5 1.7 2.8-.2 2.2 1.9 2.3 3.4.3 3-2 1.3-3 1.5-3.1.4-5.9 0-5.5-4.2 0-1.2-.7-2.3-2.2-2-1.4.2-2 1.5-1.7 2.6 1 5.3-3.4 4.8-5.8 4.6-2.7-.1-2.5-3.7-3.7-5.7-.6-1 .6-1.3 1.4-1.4.9-.1 2-.7 1.8-1.4-2-5.5 2.6-4.4 5.5-5.3 1 .2.8 1.3 1.5 1.2.4-.2.2-1.2.8-1.9 8-1.4 15.7-1.9 23.8-1zM50.2 481.2c4.5-2.6 8.6-5.4 14.1-6.5-1.3 3.4-4.2 4-6 6-1 1.2-1.8 2.5-.3 3.8 1.4 1.4 2.2 0 3-1 1.1-1.3 2.5-3 4-1.1 1.4 1.5 2.6 3.8 0 5.5-1.8 1.2-3 3-4.5 4.8-3.5-3.9-8-6.7-10.3-11.5zM65.3 496.2c-.8-6.3 4.1-6 8.2-7.3.8-.1 1.2-.2 2.1 0-2.8 2.3-6.5 3.7-9.4 6.9-.4.3-.5.5-.9.4z"/>
  <path fill="#444" d="M78.9 470c-.2 1.6 2.5 3 .6 4.5a2 2 0 0 1-1.8.2c-1.5-.6-1.9-1.7-.7-3.4.5-.7 1-1 1.9-1.2z"/>
  <path fill="#9B9B9B" d="m76.4 489.3-2-.3c.5-1.1 1.8-1 3.1-1 .5 0 1 .3.5.8-.2.3-.8.3-1.6.5z"/>
  <path fill="#636363" d="m104.6 490.7-1-.2c.4 0 .8 0 1 .2z"/>
  <path fill="#F2F2F2" d="M107.5 492.4c-.6-.2-1-.7-1.5-1.1.6 0 1.2 0 2 .2.1.4 0 .5-.5.9zM134 483.4c.2-.4.4-.4 1-.3.4 1.2-.2 1-1 .3z"/>
  <path fill="#9B9B9B" d="M64.5 497c.2.2 0 .5-.3.7 0-.2-.1-.5.3-.7z"/>
  <path fill="#F2F2F2" d="M46.7 457c0 .2-.1.5-.6.9 0-.3 0-.7.6-1zM135.8 457.7c-.3.2-.5 0-.7-.5.2 0 .5 0 .7.5z"/>
  <path fill="#9B9B9B" d="M64.9 496h.9c0 .3-.1.6-.5 1l-.7-.2c0-.3 0-.4.3-.7z"/>
  <path fill="#F2F2F2" d="m116 284.7-65.5.1c-3.7 0-5.1-.7-5-4.9.5-19.1.7-38.3.8-57.4 0-3.6.9-4.8 4.7-4.8 15.2.1 30.3-.1 45.5-.4 3.5-.1 4.5.7 4.4 4.3-.5 15-.5 30-1 45-.1 4.8 1.7 6.5 6.4 6.5 8.7-.1 17.3.3 26 .2 3 0 4.3.6 3.8 3.7-.2 1-.2 2 0 3 .5 3.6-.7 5.1-4.6 4.8-5-.3-10 0-15.5 0zM74.7 193c7.7-.2 15.2 0 22.7-.2 3.1-.1 4 .9 3.7 3.9-.3 4.5-.2 9-.1 13.5 0 2.5-.6 3.5-3.3 3.5-16 0-31.9 0-47.8.2-2.3 0-3.4-.4-3.3-3 .3-3.6.1-7.3.3-11 0-1-.7-2.8 1.7-2.6 1.8.1 2.6 1 2.4 2.9v6c0 1.6-.1 3.7 2.2 3.7 2.6 0 1.8-2.1 1.8-3.7 0-2.1.1-4.3 0-6.4 0-1.6.6-2.2 2.5-1.8l4 1a5 5 0 0 1 1.8.8c2 2.2 3 4.7 3.7 7.6 1.4-2.4.2-5.9 3.8-6.1 3.7-.3 3 3.2 4.3 5.8 1-5-2-9.3-.4-14z"/>
  <path fill="#EBEBEB" d="M120 183.3h14.5c2 0 3 .5 3 2.8s-1.5 2.2-3 2.1h-1l-81.9.7c-1.7 0-4.5 1.6-4.7-2.4-.2-4 2.4-3.1 4.6-3.1H120z"/>
  <path fill="#F5F5F5" d="M127.4 218.5c3-7.2 6-14 9-21.4v66.4l-1.1.2-7.5-19.7-1-2.8a21 21 0 0 1 .6-22.7zM131 263c1 2.4 1.8 4.4 1.8 6.6h-23.5c-3.2 0-2.6-1.8-1.9-3.5l13-31 10.7 28zM104.3 246.3v-49c1.7-.7 2.1-.2 2.4.4l10.4 29c.6 1.6 1.3 3 .6 4.8-4.3 10.2-8.5 20.5-13.4 30.7v-16z"/>
  <path fill="#F8F8F8" d="M132.3 192c.8.3 1.5.7 1.4.8l-13 32.3-12.4-33.1h24z"/>
  <path fill="#1B1B1B" d="M74.7 192.6c.8 4.1 1.5 8 2 12 .1 1.8 1.7 4.6-1 5.1-2.8.7-2-2.6-2.6-4.3-.2-.6-.1-1.3-.3-2-.3-1.6-1.7-1.3-2.7-1.3-1.6-.1-1.1 1.2-1.2 2v1c-.2 2 1.6 5.2-1.5 5.4-2.5.2-2-3.1-2-4.8.1-2.5-2.7-2.8-2.8-5.3.3-2.6 1-4.7 2.1-7 .8-1.4 1.6-1.3 2.8-.6 1.5.6 2.2 5 4.3.4.9-1.2 1.7-1.3 3-.6z"/>
  <path fill="#EBEBEB" d="M64.5 193c-.9 2 1.6 5-1.7 6.7-.3.3-.7.3-.7.3h-.8c-1.5-1-2-2.5-3-4-2.2-4-6.2-.2-9-3h15.2zM71.6 193c.4.3.4.7.2 1-1 1 1.1 3.6-1.8 3.7-3.2.1-1.3-2.7-2.2-4.4 1-.4 2.2-.4 3.8-.4z"/>
  <path fill="#212121" d="M58 196.1c1.5.5 3.9.5 3.2 3.5-1.4.9-2.6 1-3.3-1 0-1 0-1.5.2-2.5z"/>
  <path fill="#1B1B1B" d="M47.2 192.7c.9.6.8 1.2.3 1.7h-.9c-.5-.6-.2-1.2.6-1.7z"/>
  <path fill="#FCFCFC" d="M130.9 381.5a53.7 53.7 0 0 1-15.3 31.6c-2.5 2.5-4 2.8-6-.5-5.5-8.9-11.2-17.6-16.8-26.4-1.1-1.8-2.2-3.5-.8-5.9 6.9-11.1 14.1-22 21.6-32.8 1.5-2.1 2.5-2.6 4.7-.6 8 7.1 11.7 16.3 12.6 26.7.2 2.5 0 5 0 8z"/>
  <path fill="#FBFBFB" d="M69.3 354.8c4.7 8.7 10.6 16.4 14.9 25 1.1 2.3 1.2 3.7-.2 5.7-6.3 9.3-12.3 18.9-18.7 28.2-2.8 4-4.3-.2-5.4-1.7a41.6 41.6 0 0 1-7.7-30.7c1.5-10.9 5.3-20.9 13.6-29 2.3-.8 2.8.8 3.5 2.5zM69.8 348.3c6.3-6 13.8-7 21.8-6.6 5.7.4 11.3 0 17 0 2.9 0 4 .4 2 3.5-6 8.6-11.6 17.4-17.7 25.9-1.7 2.4-1.9 5.7-4.8 7.8-3.9-8.4-9.5-15.8-14.6-23.9-2.4-1.7-4-3.6-3.7-6.7z"/>
  <path fill="#F5F5F5" d="M91.7 391.3c5 8 10 15.6 15 23.3.6 1 1.9 2.2 1.1 3.6-.7 1.2-2.1.5-3.2.5H70.2c-1.5 0-4.6.8-2.4-2.6l20.5-29.8 3.4 5z"/>
  <path fill="#F2F2F2" d="M46.2 369c.1-8.2.4-15.8.4-23.5 0-2.8.8-3.7 3.6-3.6 6.7.2 13.3 0 21 0-12 9.8-20 21-22.2 36a47.2 47.2 0 0 0 11.5 40.8H48.1c-3.4 0-2.5-2.4-2.5-4.2l.6-45.5z"/>
  <path fill="#EBEBEB" d="M133.3 388.2c2.4-11.1 1-21.6-2.6-32l2-.4c1.4-.3 2.8-.7 2.4-2.5-.4-1.9-1.9-1.4-3.2-1.4-1.7.1-4 2-4.8-1.9l4.6-.2c1.3 0 2.5-.3 2.5-1.8s-1.4-1.7-2.5-2c-3-.5-6 1-9.2-.6 2-2 4-.5 5.8-.5 2.4 0 5.6 1.8 6.2-2.7 0-.6 1-.8 1.6-.7.9.2 1 1 1 1.6v3c-.3 16-.7 32-.7 47.9 0 4.5-1.7 5-5.2 3.8l2.1-9.6zM122.3 413.3c-.6-2.4 1.8-3.3 2.4-5 0-.4.5-1.4 1.2-.4 2 2.7 4.9 1.4 7.3 1.7 1.4.3 3.7-1 2.8 1.9-.8 2.4 2.5 6.7-2.4 7.1-5.7.5-11.5.2-18 .2 1.6-3 4-4.2 6.1-5.9 3 2.5 6.1 1.6 9 1.4-2.5-2-5.4-.1-8.4-1zM136 405.6c-3.3 1.8-6.4-.5-10.5.7 2-2.3 3.3-6 4.5-5 2 1.4 7-1.5 6 4.3z"/>
  <path fill="#636363" d="M69.7 348c.1 2.6 2.6 4 3.5 6.5-1 .4-2 .4-3.4.6-1.4-1-2.3-2-3.5-3.1.8-1.3 2-2.6 3.4-4zM120.5 341.6c.3 1 .2 1.6-.8 1.4-.2 0-.6-.4-.6-.6-.2-1 .4-1.1 1.4-.8z"/>
  <path fill="#F5F5F5" d="M83 85.8c-5.5 0-10.5.3-15.5 0-4-.3-5.4.8-5.4 5 0 19-.4 38-.3 57 0 4.8-1.2 6.2-6 6-10.2-.4-10.2 0-10-10.2.2-19.2.6-38.3.7-57.5 0-3.4.9-4.4 4.4-4.3 27.9.6 55.7 1 83.5 1.3 2.6 0 2.6 1 2.6 2.8l-1 65c0 2.6-1.2 2.9-3.3 2.8-4.4 0-8.7-.2-13 0-3.7.3-4.5-1-4.4-4.4.4-19 .6-38 .8-57 0-6.7 0-6.7-6.6-6.7l-26.5.2zM58 52.4c25.1 0 49.8.1 74.4 0 4.2-.1 5.4 1.1 5 5.2-.4 6.3-.2 12.7-.3 19 0 2 0 3.2-3 3-27.3-.6-54.8-1-82.2-1.3-4.1 0-5.5-1-5.2-5.2.5-5.5.4-11 .2-16.5 0-3.1.6-4.7 4.1-4.2 2.2.2 4.3 0 7 0z"/>
  <path fill="#F8F8F8" d="m83.5 110.4-15.3-22h41.2l-20.2 29.7-5.7-7.7z"/>
  <path fill="#F9F9F9" d="M66 151.2c-.3-19-.3-37.7-.3-56.6 2.5-.1 3 1.6 3.8 2.6 5.2 7.3 10.2 14.8 15.4 22 1.2 1.8 1.1 3 0 4.9-3.7 6.6-9.2 12-12.7 19.2a6 6 0 0 1-.9 3.2c-1.7 1.8-2.7 4-5.2 4.7z"/>
  <path fill="#F8F8F8" d="M108.6 146.4c-5.2-7.3-10-14.5-15-21.4-1.8-2.4-1.8-4.1 0-6.6 6-8.4 11.8-17 18.3-26.4v56.5c-2.2.4-2.2-1.2-3.3-2z"/>
  <path fill="#F5F5F5" d="M74.8 144.2c5.9-5.5 9.1-12.6 14.4-18.8l17.8 25.3c1.6 2.3 1 3-1.8 3H70.8c-2.5-3 1-4.3 1.7-6.8a5 5 0 0 1 2.3-2.7z"/>
  <path fill="#444" d="M73.5 146.7c-.4 2.6-2.9 4-3.2 6.8-1.8-.2-5 2.4-4.8-2.2 2.4-1.3 2.8-4 5-5.5 1.2-.1 2 0 3 1z"/>
  <path fill="#212121" d="M74 146.7c-1.2.2-2.2.4-3-.8 0-.8.4-1.4 1-2 .8-.1 1.4 0 2.6.1.2.8-.1 1.7-.6 2.7z"/>
  <path fill="#F9F9F9" d="m245.3 638-.1-45c0-3.1.6-4.2 4-4.2h80c3 0 4 .6 3.9 3.8-.3 8.8 0 17.6 0 26.8-8.8-2.5-17-1.2-25.3-.3-1.6.2-3.2.1-3 2.3.1 2.1 1.8 2 3.3 1.8l11-1.2c4.2-.5 8.1.8 12.2 1.4 2.1.4 1.7 1.7 1.7 2.9v58c0 2.1-.5 2.8-2.7 2.8-27.4-.1-54.7-.1-82 0-3.5 0-3-2-3-4.1v-45z"/>
  <path fill="#F8F8F8" d="m169 588.9 68-.1c3.5 0 4.3 1 4.3 4.4-.2 29.8-.2 59.6 0 89.4 0 3.4-.6 4.5-4.3 4.5-25.4-.2-51-.1-76.4 0-3.5 0-4.4-.9-4.4-4.4.1-29.5.2-59 0-88.4 0-4.3.7-6.2 5.3-5.5 2.3.4 4.7 0 7.5 0z"/>
  <path fill="#F9F9F9" d="M421 416.4c-6.8.3-13.3.3-20.4.3-.6-.2-.8-.4-1-.9.8-2.3 2.7-3.3 3.5-5.2 1.4-3.5.6-8-2.1-9.9-3-2-6-2-8.6.6-2.4 2.2-3 7.8-1.1 10.6.7 1.2 2 1.8 2.9 3.2.1.6.1.8-.1 1.3-7.9.3-15.4.3-23.4.3-1-.4-1.1-.8-1-1.6 4.2-2.8 6.7-6 5.7-11-.6-3.3-2.4-5.6-6-5.6-3.5.1-5.4 2.4-6 5.7-.5 3.8.3 7.3 3.6 10.2.4.8.5 1.3 0 2-13 .5-13 .5-12.8-12.4l.3-16.3c1.4-2.2 3.1-2 5.3-1.2 26.7 1.1 53 2.1 79.2 2.7 5 0 6.4 1.5 6 6.4-.5 5.8-.3 11.7-.2 17.5 0 2.8-1 3.8-3.7 3.7-4.7-.2-9.4-.1-14.5-.1-.8-.3-1-.7-1-1.6 1-1.3 2-1.7 3-2.4 3.4-2.8 4-6.6 1.5-9.6-2.9-3.3-8.1-3.3-11.6 0-2.9 2.8-2.8 6.8.2 9.7.6.5 1.4.9 2.3 1.7.4.7.4 1.2 0 2z"/>
  <path fill="#FBFBFB" d="m426.8 370.2-25.2-20.6 43.8-32.5v68.1c-7.9-3.6-12.4-10-18.6-15z"/>
  <path fill="#F5F5F5" d="m391 341-32.2-26.2h82.8L421.5 330c-6.1 4.6-12.5 8.9-18.3 13.9-3.6 3-6.3 3.6-9.3-.4-.6-1-1.7-1.6-2.9-2.5z"/>
  <path fill="#FBFBFB" d="M359.1 382.5c6.5-5.4 12.8-10.6 19.3-15.7l18-13.3c1.4-1 2.4-1.2 3.8 0 9.2 7.9 19.2 14.7 27.6 23.4 2.6 2.8 6 5 10.1 8.4l-77.3-2.2c-1 .2-1.3.1-1.5-.6zM369 328c8 6.5 15.6 13 23.4 19 2.3 1.9 2.7 2.8.2 4.6l-28.4 21c-3 2.3-5.2 5.8-8.8 7.3v-62.8l13.6 11z"/>
  <path fill="#131313" d="M394.2 416.3c-4.6-3-6.7-6.8-5-12 1.2-3.9 3.9-6.4 8.4-6.2 4.4.1 6.5 3 7.2 6.8.7 4.3 0 8.3-4.6 10.9-.6.6-1 .7-1.8.4-.9-.2-1.4-.2-2.3-.1-.7.3-1.1.4-2 .2z"/>
  <path fill="#9B9B9B" d="m358.8 382.3 1.2.7c-.2 1-.5 2 .1 3.4-1.5.4-3.1.5-5.2.7-1.1-3.2 2.6-2.8 4-4.8zM425.7 414.8c.4.7.5 1 .5 1.6-1.5.4-3 .5-5 .4-.5-.5-.6-.8-.4-1.4 1.4-1.7 3-1.6 5-.6zM367.2 416.8c-.4-.5-.3-.8-.3-1.4.8-1 1.7-1.1 3-.3.3.7.5 1 .5 1.4-1 .3-2 .4-3.2.3zM398.1 416.3c.4-.3.8-.4 1.6-.3.4 0 .6.3.6.5-.8.1-1.4.2-2.2-.2zM393.8 416.2l1.6-.1c.2.7-.4.8-1.3.7-.3-.2-.4-.4-.3-.6z"/>
  <path fill="#F8F8F8" d="m398 556-41 .1c-3.4 0-4.2-1-4-4.2.3-6 .2-12 .1-18 0-2.4.7-3 3.1-3 11.4.3 22.7.3 34 .5.5 0 1.1-.2 1.5 0 7.3 4.3 5.4-1.7 5.4-5 .4-22.3.8-44.6 1-67 0-3.8 1.2-4.6 4.8-4.5 12.5.2 25 .1 37.5 0 3 0 4.4.4 4.4 4-.6 31-1 62-1.2 93 0 3.6-1.3 4.2-4.6 4.2-13.5-.2-27 0-41 0zM353.3 523l-.1-66 2-.3c5.6 11 11.2 22 17 33 .7 1.5-.2 2.4-.8 3.5l-17.2 29.6c-.4.3-.6.4-.9.2z"/>
  <path fill="#F9F9F9" d="M358 524.3 375 495l16.8 32H359c-2 0-2.4-.7-1-2.7z"/>
  <path fill="#F8F8F8" d="m380.2 478.2-4.9 8.9-16.6-31.7h35l-13.5 22.8zM394 489v30.8l-1 .4c-1.4-2.4-2.9-4.8-4.2-7.3-3-5.6-5.8-11.2-9-16.7-2-3.5-2-6.6.2-10.1 4.6-7.2 8.8-14.7 14-21.7V489z"/>
  <path fill="#444" d="M353.1 523c.1-.3.5-.2.7-.1 0 .7-.3 1-.7 0z"/>
  <path fill="#F8F8F8" d="M354.6 681.7c1.5 5 3.8 2.7 5.4 1l17.9-20.1 17.3-20c1.9-2.3 3-.8 4.3.6l11.6 13 2.7 3c1 1 2.2 1.7 3.5.6 1.6-1.4.1-2.4-.7-3.3l-14.7-16.3c-1.5-1.6-2-2.6-.3-4.5 13.8-15.2 27.5-30.6 41.3-46.3 1-.8 1.4-.3 1.8.6l-1.1 91.1c-.2 7.7.5 6.6-6.8 6.6-26.2 0-52.3-.1-78.4.1-4.2 0-6.3-.8-5.3-5.7.5-.5.8-.6 1.5-.4z"/>
  <path fill="#F9F9F9" d="m434.7 592.6-33 37.4c-4.5 5-4.4 5-9 0l-37.2-40.7c-.6-.6-1-1.3-1.8-2.5h85.2c-.3 2.7-3 3.5-4.2 5.8z"/>
  <path fill="#FDFDFD" d="M355.3 681.8c-.6.2-.9.1-1.6 0-.5-29-.5-58-.5-88 7.4 5 11.4 11.5 16.6 16.7 7.2 7.3 13.7 15.4 20.8 22.7 3.2 3.4 3.8 5.1.1 9-12 12.8-23.5 26.3-35.4 39.6z"/>
  <path fill="#444" d="M445 590c-.6-.1-1-.5-1.6-1-.1-.8-1-2.7.8-2.4 1.4.1.8 1.8.7 3.3z"/>
  <path fill="#F9F9F9" d="M103 665.3c2 0 3.2-.8 4.4-2.6 3.2-5 7-9.6 10.3-14.6 1.7-2.7 2.8-2.3 4.7-.2 3.6 4.3 7.6 8.4 11.3 12.6 1.1 1.1 1.7 13.7.8 14.9-1 1.2-2.5.9-3.7 1-11 .8-20.3-2.8-27.9-11zM103 665c-7.5-5.9-11.6-21-8.4-31.8 1.1-3.4 2.2-7 5-10 5.7 5.4 10.7 11.6 16 17.4 1.6 1.8.6 3-.3 4.3l-10 14.2c-1.2 1.5-3 2.8-2.3 5.6v.3zM132.5 653.5l-3.2-3.6c-8.4-8.9-7.9-6.8-1-16.3 2-2.9 3.9-6 6.7-9.6v30.1c0 1.3-.3 1.3-2.5-.6z"/>
  <path fill="#9B9B9B" d="m61.7 588.3.5.3c-3.8.3-7.8-.5-12 1.2-.4-.3-.5-.5-.5-1 3.9-1.4 7.8 0 12-.5z"/>
  <path fill="#F9F9F9" d="M49.4 588.4c.1.3 0 .6.4 1.1-1.1.5-1.7 2.1-3.5 1.4-1-3.4 1.4-2.2 3.1-2.5z"/>
  <path fill="#101010" d="M116.5 320.8c2.1 1 3.8 2.2 3.3 4.3-.8 3-3.6 1.5-5.6 2.1.8 2.4 2.5 2.8 4.6 2.5 1-.2 2.1.1 2.1 1.4 0 1.2-.9 1.6-2 2-4 1.3-11.1-3.9-10.5-8.1.6-4.4 4.4-4.3 8.1-4.2z"/>
  <path fill="#252525" d="M63 320.7c.3-.3.7-.3.7-.4 4.5 2 3.2 6.7 4.7 10.1.4 1-1.9 2.2-2.8.6-1.8-3-4.3-6-2.5-10.3z"/>
  <path fill="#101010" d="M100.7 318.9c2.6 1.5 3.5 8.8 1.7 10.1-1.5 1-2.9.4-2.8-1.3.1-2.9-.8-6 1-8.8z"/>
  <path fill="#F9F9F9" d="m441.9 151.6-83 .1c-3.8 0-5-.9-4.9-4.8.7-30.5 1.1-61 1.4-91.5 0-3.8 1-5 5-5 27 .2 54 .2 81 0 3.9 0 4.6 1.1 4.6 4.7-.6 30.7-.9 61.3-1.3 92 0 1.7 1 4.3-2.8 4.5z"/>
  <path fill="#636363" d="M104.7 598c1.1 1 1.1 1.5 0 1.9-.7.2-1.3 0-1.5-.7-.2-.9.5-1 1.5-1.1z"/>
  <path fill="#9B9B9B" d="M105.7 603c.4.5.5.8.5 1.4-1.2.8-2.4.4-2.6-.8-.1-.8 1.2-.5 2.1-.6z"/>
  <path fill="#212121" d="M78.3 314.6c-.4.4.3 1.6-1 1.5l.7-1.4c.2-.2.3 0 .3 0z"/>
  <path fill="#171717" d="m197.1 66.7-10.4-.6c-1.2 0-2.5-.2-2.5-1.8s1.4-1.6 2.5-1.6l25 .6c1.4 0 2.9.3 2.8 2 0 2-1.5 2-2.9 1.9l-14.5-.5z"/>
  <path fill="#1B1B1B" d="M189 138.9c-1.2-2.8.6-3 2.3-3.2 5.8-1 11.6-.7 17.3-.5 1.5 0 2.8.6 2.6 2.3-.1 2-1.8 1.5-3 1.5-6.4 0-12.6.1-19.3-.1z"/>
  <path fill="#252525" d="M205.6 75.4h7.8c1.4 0 2.2.9 2.1 2.2 0 1.2-1 1.7-2 1.7H205c-1.1 0-2.5 0-2.7-1.5-.3-2 1.3-2.3 3.3-2.4z"/>
  <path fill="#1B1B1B" d="m198 124 11.4-.6c1.3 0 2.7.6 2.5 2.3-.1 1.6-1.2 2.3-2.8 2-2.8-.5-5.6 0-8.4.3-2.4.3-3.4-.7-2.6-3.6v-.3z"/>
  <path fill="#212121" d="M210 117.5c-.7 0-1 0-1.4-.2-1.9-.9-4.8 1.5-6-1.8-.2-.8.4-1.7 1.4-1.8 2.9-.5 6.3-1.4 8.5.6 2 1.8 0 3-2.5 3.2zM213.4 100l-6.3.3c-1 0-2-.2-2.2-1.4-.2-1.2.5-2 1.6-2.1 2-.3 4.3-.8 6.3-.5 2.3.3 2.5 1.8.6 3.6z"/>
  <path fill="#1B1B1B" d="M213.9 89.6c-1.5.2-2.7.5-3.9.4-1.5 0-3.4 1.3-4.3-1-.3-.8.1-1.7 1-2 2.6-.8 5.3-1.6 7.8-.7 1.4.5 1.3 2.2-.6 3.3z"/>
  <path fill="#131313" d="M213.7 106c-1.4 5-5 2.3-7.8 2.6-.6 0-1.1-1.2-.9-2 .2-1 .9-1.6 1.8-1.6 2.2 0 4.6-.9 6.9 1z"/>
  <path fill="#252525" d="M329.8 137.1c-3.4 2-6.9 1-10.2 1.1-1.7 0-3-.9-2-2.8 1.3-2.2 10.8-1.1 12.2 1.7z"/>
  <path fill="#212121" d="M317 112.2c-1.6-2.7 0-3.5 1.8-3.4 2.8.1 5.6.7 8.4 1.3 1 .2 1.8 1.1 1.4 2.2-.3 1-1.3 1.6-2.4 1.4-3-.4-5.8-.8-9.1-1.5z"/>
  <path fill="#101010" d="m327.4 87.7-7.8.3c-1.4 0-2.7-.1-2.9-1.8-.1-1.7 1-2.2 2.6-2.2 2.4 0 4.9-.4 7.3-.1 2.8.2 3.5 1.6.8 3.8z"/>
  <path fill="#1B1B1B" d="m317.6 71.2 7.8-.9c1.4-.1 2.7.2 2.8 2 0 1.5-1.2 1.7-2.4 1.8-2.3.1-4.6.7-6.9.7-2.1-.1-4.4-.7-1.3-3.6z"/>
  <path fill="#212121" d="M316.8 62.8c3-3.4 6.5-1.2 9.8-1.2.8 0 1.5.7 1.4 1.7-.1 1-.8 1.6-1.7 1.5-3.2-.2-6.6 1-9.5-2z"/>
  <path fill="#111" d="M325.3 122.2c2.1 1.9 2.2 3.7-.6 3.7-2.5.1-5.3 1-7.6-1-.3-.2-.4-1.3 0-1.7 1.8-2.3 4.5-.8 6.8-1.2l1.4.2z"/>
  <path fill="#101010" d="M318.5 100.3c-2.6-1.2-3.2-2.4-.4-3.6h.5c2.5.2 6.1-1.4 7.4.9 1.7 3.2-1.5 2.8-3.6 2.7h-3.9z"/>
  <path fill="#181818" d="M318 365.8c3.7-.4 7-.5 10.1.8 1.7.8 3.7 1.7 2.5 4-1.2 2.2-2.3 1-4 0-2.2-1.4-5-1.2-7.6-.6-1.5.3-3.1 1-3.7-1-.6-1.9.7-2.7 2.7-3.2z"/>
  <path fill="#1B1B1B" d="M323 354.2c2.5.5 4.6 1 6.6 1.7 1.3.4 1.8 1.4 1.3 2.7-.6 1.2-1.6 1.7-2.8 1-3.5-2-6.8-2.2-10.1.4-1.2.8-2.7.8-3.5-.6-.8-1.6.4-2.6 1.6-3.1 2.1-.9 4.4-1.4 7-2.1z"/>
  <path fill="#181818" d="M328.2 337.7c-4.5 0-8.6-.4-12.7-.7-1.5-.2-2.6-1-2.3-2.6.2-1.3 1.5-1.6 2.8-1.5l10.3 1.1c1.8.3 3.2 1.1 1.9 3.7z"/>
  <path fill="#171717" d="M327 399.8c-3.7.3-7-1.4-10.8-.1-1.2.4-2-1.5-.8-2.8 1.3-1.6 10.2-2.2 11.8-.8 1.2 1.1 1.2 2.3-.1 3.7z"/>
  <path fill="#1B1B1B" d="M318.5 344c2.5 0 4.7-.2 6.8 0 1.6 0 2.3 1.2 2 2.7a2 2 0 0 1-2.6 1.5c-2.1-.7-4.2-.4-6.3-.3-1.5.1-3.8.9-4-1.4-.2-2.2 2.2-2 4-2.4z"/>
  <path fill="#101010" d="M328.5 381.2c1.8 1 2.3 2.1 1.3 3.5-.7 1.1-1.7.5-2.6.1-2.1-.8-4.2-.9-6.3-.2-1.5.5-2.8 0-3-1.6-.2-1.5 1-1.8 2.3-2 2.6-.4 5.3-.3 8.3.2zM159.3 346.1a8 8 0 0 1-.3-2.7c3.8-1.5 7.7-2.6 11.7-2.7 1.2 0 2.4 0 2.5 1.7 0 1.6-.9 2.8-2.3 2.6-4-.5-7.4 1.8-11.6 1.1z"/>
  <path fill="#181818" d="m163.1 368 7.3-1c1.4 0 2.3.7 2.4 2 .2 1.4-.7 2.1-2 2.2l-8 .8c-1.2.2-3 .3-3.2-1.3-.4-2.3 1.3-2.7 3.5-2.8z"/>
  <path fill="#111" d="m163.5 355.6 6.8-.5c1.2-.1 2.5-.1 2.7 1.5 0 1.4-.8 2.1-2.1 2.2l-8 .5c-1.2 0-2.9.1-3-1.7-.2-2.4 1.7-2 3.6-2z"/>
  <path fill="#252525" d="M163.7 409c2.6-3.7 6.7-2.7 10-4 .8-.3 1.5.4 2 1.2.3.7-.2 1.2-.6 1.7-1.8 2-8.9 2.8-11.4 1z"/>
  <path fill="#151515" d="M160.8 384c2.7-3 6.1-1.2 9-2 .9-.3 1.6.5 1.7 1.4 0 .6-.3 1.3-.7 1.7-2 2-7.8 1.6-10-1.2z"/>
  <path fill="#1B1B1B" d="M170.7 395.5c.6.3 1 .4 1.2.7.9 1.6.2 3-1.4 2.7-3.4-.9-6.7 3.2-9.8.1-.8-.7.3-1.7 1.3-2.1 2.6-1.2 5.4-1.7 8.7-1.4z"/>
  <path fill="#F4F4F4" d="M411.2 231.8c-10.5-9.4-10-9-2-19.8 4.6-5.9 11.2-10.5 12.8-18.4.3-1.2 1.8-1 2.3-.1.5.7.4 1.9.4 2.9v47l-13.5-11.6z"/>
  <path fill="#F9F9F9" d="M387 193h32.6L400 217.4c-7.8-7-15.7-14.1-23.4-21.3-1.6-1.5-1.3-3 1.4-3h9z"/>
  <path fill="#F8F8F8" d="M401 248.9h-21.2c6.2-7.7 12-14.8 17.4-22 1.8-2.3 2.7-1 4.2.3l21.5 19.4-1.4 2.3H401zM388 232c-3.7 5-7.2 9.5-11.5 15V203l17.6 16.8c1.7 1.6 1.7 3 .2 4.6l-6.2 7.6z"/>
  <path fill="#151515" d="M307 471.7c-17.8.4-35.1.8-52.4 1-1.8.1-4.7 1.1-5-1.7-.2-3.2 2.9-2.1 4.6-2.2 21.2-.6 42.5-1 63.8-1.5 1.6 0 4.3-.9 4.4 1.8.1 3.2-2.8 2-4.5 2.2-3.5.3-7 .3-11 .4z"/>
  <path fill="#131313" d="m283 459 39-.6h3.4c1.3.1 2.4.7 2.3 2 0 1.5-1.2 1.9-2.5 2h-2l-64.8.8h-1c-1.5-.1-3.4.2-3.2-2 0-2 1.8-2 3.3-2l25.5-.2z"/>
  <path fill="#171717" d="m289.2 479.4 27-.5c1.6 0 4.8-1.3 4.7 1.7 0 2.8-3.2 1.6-5 1.7-19.9.6-39.9 1-59.8 1.5-1.8 0-5 1-5-1.6 0-3 3.2-2 5.2-2 10.8-.4 21.6-.6 32.9-.8z"/>
  <path fill="#080808" d="M230 460c2.7.6 7-1.6 7 1.8 0 4-4.4 2-6.8 2-22 .3-44 .3-65.9.3a85 85 0 0 1-4 0c-.9-.1-1.6-.7-1.7-1.5-.2-1.1.4-2 1.5-2.3 1.3-.2 2.6-.2 4-.2l65.8-.1z"/>
  <path fill="#171717" d="m192.1 472.5-27.4-.3c-1.5 0-3.8.6-3.8-2 0-2.4 2.2-2 3.8-2l64.9.7c1.4 0 3.3-.2 3.3 2 0 2-1.8 2-3.4 2l-37.4-.4z"/>
  <path fill="#151515" d="m181 482-19.5-.2c-1.4 0-3.4.2-3.3-2 0-2 1.9-1.8 3.4-1.8l68.8 1c1.4 0 3 0 3 1.7-.1 2.2-2 1.8-3.5 1.8l-48.9-.6z"/>
  <path fill="#131313" d="M180.9 207.8c11.8-9.7 26.8-6.3 33.6 7.2 8.5 16.8 8 33.9-.9 50.2-6.8 12.6-22.1 21.7-36.6 5.7-4-4.3-6-9.6-7.4-15a49.5 49.5 0 0 1 11.3-48.1z"/>
  <path fill="#1B1B1B" d="M219.6 198.1c-5.1-.6-9.7-.4-14.4-.2-1.5.1-3.8.5-3.9-1.7 0-2.2 2.3-1.9 3.9-2 9.5-1 18.8 1 28.1 2 1.4 0 3 .4 2.6 2.2-.2 1.7-1.7 1.7-3 1.5l-13.3-1.8z"/>
  <path fill="#080808" d="M209 188c9.2-.1 17.9-.2 26.5-.1 1.4 0 3.5-.6 3.3 1.8 0 1.8-1.8 1.5-3.1 1.5l-33 .3c-1.5 0-3.4 0-3.3-2 .1-1.7 1.9-1.5 3.2-1.5h6.5z"/>
  <path fill="#212121" d="m219 278-7.4-.2c-1.2 0-2.5-.3-2.4-1.9 0-1.2 1-1.6 2.1-1.7 6.7-.4 13.5-.9 20.2-1.1 1.7-.1 3.6.8 3.4 2.8-.1 2.4-1.9 1.6-3.6 1.5-4-.1-7.9.4-12.3.6z"/>
  <path fill="#111" d="M219 264.7c5-1.2 9.6-.8 14.2-.5 1.6 0 3.3.3 3.1 2.3-.2 2-2 1.8-3.5 1.7-4.7-.3-9.3-.8-13.9.7-1.1.3-2.4.2-2.8-1.2-.6-2 .8-2.6 2.8-3z"/>
  <path fill="#1B1B1B" d="M233.7 202.8c1.8 0 3.4-.2 3.3 1.7 0 1.7-1.6 2.5-2.8 2.3-4.6-.8-9.2.4-13.8.3-1.2 0-2.6 0-2.7-1.5-.2-1.7 1.3-2 2.7-2.1l13.3-.7zM163.1 190.7c-.5-2 .3-2.6 1.7-2.7l14-.3c1 0 2 .1 2.2 1.4 0 1.2-.7 1.9-1.8 2-5.3.4-10.6 1.7-16-.4z"/>
  <path fill="#212121" d="M174.8 203c2 .2 4.2-.3 4 2 0 2-2 1.8-3.5 1.8-2.6 0-5.2 0-7.8.8-1 .3-2 .2-2.4-.9-.6-1.4.2-2.3 1.5-2.6 2.5-.5 5.1-.7 8.2-1.1z"/>
  <path fill="#1B1B1B" d="M229.5 254.9c2.6.9 7.2-1 6.8 2.3-.4 3.7-4.5 1.2-7 1.2l-.6-.1c-1.8-.6-5.4.8-5-2.3.2-3 3.5-1 5.8-1.1z"/>
  <path fill="#212121" d="M236.4 211.7c1.2 1.5.9 2.7-.4 3-3.2.6-6.5 1-9.7 1.4-1.1.2-2-.4-2.2-1.5-.1-1.2.8-1.7 1.8-1.9 3.4-.7 6.7-1.6 10.5-1z"/>
  <path fill="#171717" d="m234.7 237-6.8 1c-1.2.1-2.5 0-2.8-1.4-.4-1.4.4-2.3 1.7-2.6 2.5-.4 5-.8 7.4-1 1.2-.2 2.4 0 2.8 1.4.3 1.4-.6 2.2-2.3 2.6z"/>
  <path fill="#131313" d="M226.2 247.5c1.1-2.3 9-3.7 10.5-2.2.4.4.6 1.2.4 1.8-.3 1-1.5 1.4-2.3 1.4-2.8 0-5.6-.4-8.6-1z"/>
  <path fill="#636363" d="M178.3 199.3c-3.2.5-6.3.6-9.8.8-1.1-.7-1.2-1.5-.7-2.6 3.4-.7 6.4-1 10-1.1 1 .8 1 1.7.5 3z"/>
  <path fill="#9B9B9B" d="M231.6 225c-.3.4-.4.5-.6.5-2.6.3-6.9 1.7-7.2-1.2-.4-3.8 4-2 6.9-2.3 1 .8 1.2 1.7.9 3zM167.7 197c.4.9.4 1.6.3 2.7-1.8 1.7-3.4 1.2-3.8-.8-.4-2.2 1.7-1.9 3.5-1.9z"/>
  <path fill="#111" d="M231.8 225.4c-.5-1-.6-1.8-.7-3 1.5-.2 4-1.7 4.2 1.2.2 2-1.5 2.1-3.5 1.8z"/>
  <path fill="#252525" d="M178.5 199.6c-.3-.9-.3-1.7-.3-2.8 1.5-.6 3.5-1.7 3.8.9.3 2-1.6 2-3.5 2z"/>
  <path fill="#151515" d="m256.4 192.8 12.3-1c1.3 0 2.8 0 3 1.8.2 2-1.3 2.4-3 2.5-5 0-10.2.2-15.3 0-1.4 0-3.9.5-3.5-2 .3-2.2 2.5-1.7 4.1-1.6l2.4.3z"/>
  <path fill="#080808" d="M253 185.8h22c1.4 0 3.4-.2 3.2 2-.1 1.7-2 1.3-3.2 1.3h-21.4c-1.4 0-3 .1-3.1-1.6-.1-1 1-1.6 2.6-1.7z"/>
  <path fill="#171717" d="M269 201.8c-.9 2.4-2.8 1.8-4.3 2.2-3.4 1-7-.1-10.2 1.1-1 .4-2 0-2.4-1.2-.2-.9 0-1.6.7-2.2 2.1-2 13.2-2.1 16.1 0z"/>
  <path fill="#181818" d="M249.6 213.3c-.4-.8-.7-1.6-.5-2a30.6 30.6 0 0 1 14.6-3c.8.5 1.3 1 1.3 2 0 1.2-.8 1.7-1.9 1.9-4.4.5-8.7.9-13.5 1.1zM252.7 225.7c1.4-.3 2.3-.6 3.3-.7 1.3-.2 2.4.2 2.7 1.5.3 1-.5 1.7-1.3 2.4-2.8 2-6 1-9 1.5-.4 0-1-.7-1.3-1.3-.2-.8.2-1.7 1-2l4.6-1.4z"/>
  <path fill="#1B1B1B" d="m254.7 217.6 1.9-.5c1.8 0 4.6-1.3 5 1.4.4 2.7-2.5 2.4-4.4 2.6l-2.4.4c-1.8.2-4.2 1.1-4.5-1.4-.3-2.5 2.4-2 4.4-2.5z"/>
  <path fill="#171717" d="M255.8 234c2.1 2 1.4 4-.7 4.2-2.2.4-4.8 2-7 .2-.8-.8-.1-2.2 1.1-2.9 2-1 4-1.7 6.6-1.5z"/>
  <path fill="#212121" d="M118.2 552.7c-.6-2.4.6-3 2.3-3.1l8.4-.5c1.5 0 2.8.3 3 2 .1 1.7-1.3 2.1-2.7 2-3.6 0-7.2 1.5-11-.4z"/>
  <path fill="#171717" d="M130.5 500c1.7.5 2.4 1.3 2.1 2.7-.2 1-1.2 1.6-2.3 1.4-2.2-.3-4.6 1-6.6-1-.5-.5-.5-1.2 0-1.8 1.7-2.4 4.2-.8 6.8-1.2z"/>
  <path fill="#1B1B1B" d="M131.7 537c1.7 4.2-1.4 3.4-3.2 3.2-1.8-.2-5.1 1.6-5.3-1.4-.2-3.4 3.3-2.2 5.3-2.4 1 0 2 .2 3.2.6z"/>
  <path fill="#151515" d="M125.2 514c-1.8-.2-2.7-1-2.6-2.3.1-1.4 1.3-1.8 2.5-1.9h2c2 .3 5.1-1 5.1 2.1 0 3.7-3.3 1.3-5 1.9-.5.2-1 0-2 .1z"/>
  <path fill="#212121" d="M124.4 527.6c-1.2-2.4-.4-3.5 1.7-3.7 2.2 0 4.7-1.2 6.5.7 1 1.1 0 2.6-1.6 2.9-2 .2-4.2.2-6.6 0z"/>
  <path fill="#080808" d="M68.8 278.5c20.5-.5 40.8-.7 61-.8 1.5 0 3.6-.4 3.6 1.7-.1 2.1-2.2 1.6-3.6 1.6l-60.4.2c-1-.8-1.1-1.6-.6-2.7z"/>
  <path fill="#101010" d="M96 268c-3.2 2.9-6.9 2.3-10.2 2-9-.6-18 .7-27 1.4-1.6.2-4.2 1.5-4.5-1-.3-2.6 2.6-2.4 4.5-2.7 8.8-1.3 17.5-2.4 26.4-1.6 2.4.2 5 0 7.4-.5 2-.4 3.3-.5 3.4 2.4zM55.7 263c-2.8-2.7-1.4-3.6 1.2-3.8l33.2-2.2c1.7-.1 3.6 0 3.5 2.3 0 1.9-1.8 1.7-3.3 1.8L55.7 263z"/>
  <path fill="#1B1B1B" d="m59.3 235.6-4.4.6c-1.3.3-2.9.8-3.5-.9-.6-2 1.1-2.7 2.5-3 4-.8 8.2-1.7 12.4-.6 1.5.4 3 1.1 2.6 3-.4 1.8-1.9 1.3-3.2 1.1-2-.2-4-.2-6.4-.2z"/>
  <path fill="#252525" d="M82.4 235.1c-2-2.4-.4-3.3 1.4-3.4 3.3-.3 6.6-.3 9.9-.3 1.2 0 2.3.4 2.4 2 0 1.7-1.3 2.3-2.6 2.3-3.6 0-7.2-.2-11.1-.6z"/>
  <path fill="#636363" d="M96.2 246.8c-5 0-9.6 0-14.2-.3-1.2 0-3-.1-2.8-2 .2-1.5 1.7-1.4 2.8-1.3l11.8.5c1.6.2 3.6.3 2.4 3.1z"/>
  <path fill="#212121" d="m88.2 226.9-3.4-.3c-1.3-.2-2.2-.9-2-2.3.2-1.5 1.3-2 2.5-1.8 3.3.3 6.6.2 10-.2 1.3-.2 2.7.4 2.7 2.1 0 1.5-1.2 2-2.4 2-2.3.3-4.6.3-7.4.5z"/>
  <path fill="#151515" d="M66.7 222c1.8 0 2.7.7 2.4 2.1-.2 1.4-1.3 1.8-2.5 1.8l-10.8.7c-1.4 0-2.8-.2-2.8-2 0-1.6 1.3-1.8 2.4-1.9l11.3-.7z"/>
  <path fill="#101010" d="M54.2 248.3c-3.3-2-2-4 .2-4.7 4.3-1.6 8.7-1.2 13 .4 1 .4 1.8 1 1.5 2.2-.3 1.3-1.4 1.1-2.4 1-2.6-.2-5.2-.5-8.3-.5-1.2 1.3-2.3 1.8-4 1.6z"/>
  <path fill="#636363" d="M60.2 280.8c-2.6 1.3-5 .4-7.4.5-1 0-2.2 0-2.3-1.3 0-1.5 1-1.9 2.3-1.9h6.9c1 .8 1 1.5.5 2.7z"/>
  <path fill="#252525" d="M60.5 281.1c-.5-.7-.5-1.4-.4-2.5 2.7-.4 5.4-.5 8.5-.5.4.8.4 1.5.4 2.6-2.7.4-5.4.4-8.5.4z"/>
  <path fill="#636363" d="M54 248.5c1-.8 2-1.2 3.4-1.7.7 3.6-1 3.3-3.4 1.7z"/>
  <path fill="#151515" d="M83.8 198.4c3.6 2.2 2 6.5 4.6 9 .6.6-1.6 2.6-3.3 3.1-2.3.7-4.3 0-5.7-1.9-2.7-3.6-.5-9 4.4-10.2z"/>
  <path fill="#252525" d="M61.4 209c-2.3 1.5-3.1.2-3.3-1.4-.2-1.7-.8-3.8.7-5.2 1-1 2.2-.2 2.6 1 .5 1.8.7 3.6 0 5.7z"/>
  <path fill="#212121" d="M122 413.1c3.2-1 6.5-1 9.8-.7 1.2.2 2.5.4 2.5 2 0 1.5-1.4 1.9-2.5 1.5-3.2-1-7.3 2.6-9.7-2.5 0-.4 0-.3-.1-.3z"/>
  <path fill="#1B1B1B" d="M129.6 107.1c2 .2 2.9 1 2.5 2.7-.3 1.4-1.6 2.6-2.8 2.1-2.7-.9-5.2-.5-7.8-.2-1.3.1-2.3-.5-2.4-1.9-.1-1.5 1-2 2.2-2.1 2.6-.3 5.3-.4 8.3-.6z"/>
  <path fill="#171717" d="M130.4 97.9c1.3.7 1.8 1.6 1.1 2.5-1 1.7-10.3 2.4-11.6 1-.4-.4-.7-1.2-.5-1.7.3-1 1.1-1.6 2.2-1.6l8.8-.2z"/>
  <path fill="#1B1B1B" d="m121.5 89 8.1 1c1.3.2 2.2 1 2 2.4-.1 1-1 1.8-2 1.6-2.8-.4-5.6-.6-8.2-1.4-1.8-.6-1.9-2.2 0-3.6z"/>
  <path fill="#171717" d="M125.6 121c-2.7-.3-6.8 1.7-7-1.1-.1-3.7 4.3-2.2 6.8-2.9 1.5-.4 3.7-.9 4 1.4.4 2.2-1.7 2.5-3.8 2.6z"/>
  <path fill="#131313" d="M123.1 139c2.6.4 6.4-2.2 6.5 1.4.2 3.4-3.7 2.7-6.3 2.6-1.4 0-3.4.9-3.8-1.2-.4-2.2 1.5-2.6 3.6-2.8z"/>
  <path fill="#212121" d="M122.9 132.4c-3.2-1.2-3.8-2.6-.3-3.4 2.3-.5 6.3-2.8 7 .5.6 3.4-4.1 1.9-6.7 3z"/>
  <path fill="#131313" d="M60.4 56.5c.3.6.5 1.1.4 1.2-5 3-2.7 7.4-2.4 11.5.1 1.7.5 3.6-1.6 4-2.4.5-2.3-1.8-2.6-3.4-.2-1.8-.2-3.6-.2-5.4-.2-2.2 0-4.5-3.4-4.2-1.1.1-2-.6-2.1-1.6-.2-.9.4-2 1.2-2 3.5 0 6.9-2.9 10.7-.1z"/>
  <path fill="#1B1B1B" d="M78.1 62.7c1.6.6 3.6.2 3.5 2.4 0 1.2-1.1 2-2.5 1.9-2.5-.3-2.5 1.4-2.5 3.1-.1 1.3 0 3-1.8 3-2 0-1.8-1.6-1.8-3 0-2-1-4-1.3-5.8-.4-2.6 1.5-5.7 3-8.3.7-1 2.1.1 2.4 1.5.3 1.6.5 3.2 1 5.2z"/>
  <path fill="#101010" d="M95.7 69.7c1.6-.6 3-2.1 3.9.2.7 1.7-.4 2.9-2.1 3.2-2.4.4-4.6.1-6.3-1.9a5.2 5.2 0 0 1-.8-6c1.1-2.1 3-3.7 5.4-4 1.7-.1 3 .9 3.1 2.6.2 2.2-.9 3.3-3.2 3.3-.8 0-2.3-.6-2 1 0 .7 1.1 1.1 2 1.6z"/>
  <path fill="#252525" d="m83.4 70.4.5-12.3c0-1.4.3-2.7 2-2.8 1.4 0 1.8 1.1 2.3 2.3 2 5.2-1.5 9.3-2.7 13.8-.3 1-1.7.6-2.1-1zM67 66.4v3.9c-.1.9-.7 1.6-1.6 1.6-1.4 0-2.3-.9-2.2-2.1.2-2.2-1.3-5 1.7-6.2 1.7-.6 2.1 1 2.1 2.8z"/>
  <path fill="#9B9B9B" d="M65.2 61.4c-1.6-1.6-2.3-3-.3-4.2 1-.6 1.9.1 2.3 1.2.6 1.6 1.1 3.3-2 3z"/>
  <path fill="#171717" d="M262.8 603.8c6.5 8.3 10.7 17.8 17 26.3 5-5.2 7.9-11.9 12-17.8 1.4-2 2.8-4 4-6.2.8-1 1.2-2.6 3-2 1.6.6 2.9 1.6 2.8 3.6v51.8c0 2 .3 4-1.6 6-1.5 2.2-3.1 3-5.7 1.8-9.8-.6-19.3-1-28.8-1.3-4.9-.2-7.6-3-7.6-7.9v-51.4c0-2.6 0-4.8 3.8-4.6.4.4.8.6.8.9l.3.8z"/>
  <path fill="#151515" d="M299.7 667.7c9 0 17.6-.3 26.3-.5 1.5 0 3.7-.6 3.8 1.8.2 2.7-2 2.1-3.6 2.2-22.6.6-45.1 1.3-67.7 1.8-1.7 0-4.3.7-4.2-2 .1-2.6 2.6-2 4.4-2l34.8-1c2.2-.8 4-.5 6.2-.3z"/>
  <path fill="#1B1B1B" d="M262 602.8v-.4c-1.8-2.4-1.4-4.3 1.9-4.3h36.4c2 0 2.9 1 3 2.4.3 2.4-1.6 2.5-3.3 2.5l-37-.3c-.6.1-.7.3-1 .1z"/>
  <path fill="#171717" d="M301.8 678.4c7.8-.6 15.4-.9 23-1.2 1.6 0 3.6 0 3.5 2.4-.2 2-2.1 1.7-3.6 1.7-7.2.2-14.5.3-22.2.3-1.4-1-1.4-1.9-.7-3.2z"/>
  <path fill="#1B1B1B" d="M307.8 655.4c5.6-.2 10.7-.2 15.7-1.6 1.6-.5 3.2-.8 3.6 1.3.3 2-1.4 2.6-2.8 2.8a66 66 0 0 1-15.4 1c-2.4 0-4.3-.8-1-3.5zM320.5 646.7l-10.6 1.8c-1.6.3-3.3.1-3.7-1.7-.5-2.1 1.4-2.1 2.9-2.4l10.7-2c1.9-.3 4.4-1.4 5 1.4.4 2.4-2.3 2.3-4.3 3z"/>
  <path fill="#252525" d="m319.8 608.9-11.4-.4c-1.3-.1-2.8-.6-2.4-2.4.3-1.5 1.6-2.5 3-2 4.1 1.9 8.5.4 12.7 1 1.7.3 4.3-.2 4.2 2.3-.2 2.3-2.6 1.5-4.1 1.5h-2z"/>
  <path fill="#9B9B9B" d="M275.3 681.6c-5.9.4-11.5.5-17 .6-1.3 0-3 .3-3.1-1.7 0-2 1.6-2.2 3.2-2.2 5.2-.1 10.5-.2 16.3-.1 1.3 1 1.3 2 .6 3.4z"/>
  <path fill="#636363" d="M275.5 682a7 7 0 0 1-.4-3.3c6-.5 12-.7 18.5-.7 1.2 1 1.4 2 .8 3.4-6.3.4-12.4.5-18.9.6z"/>
  <path fill="#151515" d="M323.1 634c1.7 2.8-.3 3.7-2 3.8-3.8.3-7.7.2-11.5.1-1.4 0-2.7-.6-2.6-2.3.1-2 1.7-1.9 3-1.7 4.3.7 8.5-.2 13.1 0z"/>
  <path fill="#252525" d="M294.5 681.7c-.4-1-.4-2-.5-3.2 2.4-.5 4.8-.5 7.6-.5.4 1 .4 1.9.4 3.1-2.3.5-4.7.6-7.5.6z"/>
  <path fill="#9B9B9B" d="M299.9 667.6c-1.6.4-3.3.5-5.5.5-.4-.1-.3-.6-.4-.8a38 38 0 0 1 5.4-1.4c.4.4.4.9.5 1.7z"/>
  <path fill="#636363" d="M262 602.9c0-.4.3-.4.4-.3l.4 1.1c-.2 0-.6-.2-.9-.8z"/>
  <path fill="#171717" d="M187 603.5c0-4 2-5.5 6-5.3 8.6.3 17.1.3 25.6 0 3-.1 5.2 1.5 8 2 1.5.1 1.4 1.9 1.4 3.2l1 56.5c0 4.2-1 6.5-6.1 6.5-12.5 0-25-.2-37.4 1.2-1.9.2-2.7-.7-2.7-2.6-.2-5.4-.2-10.8 0-16.2.4-13.8.3-27.7.5-41.5 0-1.9-1-4.8 3-4.3 2.8 2 2 4.5 2 6.7v44c4.6-6.3 8.2-13 12.4-19.3 2-2.9 1.5-5.7-.4-8.3-3.3-4.8-5.5-10.2-8.6-15.1-1.1-1.9-2.1-3.8-1.4-6.5 3.7-2.2 5.6.2 7 2.7l7.5 13.5c1.6 2.9 3 3.1 5 0 2.7-4.3 5.2-8.8 8.3-13 2-2.8.6-3.4-2-3.4h-10c-5 0-10 0-15.3-.6-1.4.5-2.4.4-3.9-.2z"/>
  <path fill="#131313" d="m199 682.9-32.4-1c-1.8 0-4.3.4-4.1-2.2.1-2.3 2.4-1.8 4-1.8l68.4 2c1.3 0 3.4-.6 3.3 1.7 0 2.7-2.3 1.9-3.7 1.9l-35.5-.6z"/>
  <path fill="#101010" d="m206 670 27.4.1c1.6 0 3.8-.3 3.8 2 .1 2.7-2.2 2-3.7 2-22.9 0-45.8-.2-68.8-.4-1.7 0-4.2.4-4-2.2 0-2.4 2.4-1.7 4-1.7l41.3.2z"/>
  <path fill="#212121" d="M160.3 620.4c-4-2-2-3.5.3-4.3 4.6-1.5 9.4-1.3 14.2-1 1.2.1 2.3.5 2.2 2 0 1.9-1.4 2.2-2.8 2-4.7-1-9.1-.3-14 1.3z"/>
  <path fill="#131313" d="M164.8 666.3c-2 .3-3.7.8-4-1.3-.3-1.8 1.3-2 2.6-2.4 3.4-.8 7-.7 10.4-.4 1.6.2 3 1.2 2.4 3-.4 1.5-1.5 2-3.2 1.3-2.5-1-5.2-.4-8.2-.2zM165.4 650.4c-1.7.8-3 1-3.7-.6-.5-1.5.9-2 1.9-2.5a22 22 0 0 1 9.5-2.4c1.5 0 3.3-.2 3.2 2-.1 1.8-1.6 2.6-3.2 2.4-2.6-.5-4.9.2-7.7 1.1z"/>
  <path fill="#111" d="M163.9 603.9c2.4-1 4.6-1 6.7-.9 1.6 0 2.6.7 2.5 2.4 0 1.5-1.2 2-2.4 1.8-2.9-.5-5.6.3-8.3.8-1.4.2-3.4.7-3.8-1.1-.5-2 1.6-2 3-2.5l2.3-.5z"/>
  <path fill="#1B1B1B" d="M170.7 632c1.9 0 3.9-.7 4 1.4.3 2-1.5 2.3-3.1 2.4l-8 .1c-1.3 0-2.4-.4-2.5-1.8-.1-1.7 1.3-2 2.7-2l7-.1z"/>
  <path fill="#151515" d="M370.4 415.4c-1.1 0-1.9-.2-3-.3-5.5-3-7-11.2-3.5-15.5a7 7 0 0 1 11.2.4c3.7 5.2 1.7 12.5-4.7 15.4z"/>
  <path fill="#111" d="m426.4 415-5 .1c-4.9-1-7-3.9-6.4-8.3.6-4 5.3-7.5 9.6-7.4 4 .1 7.3 2 8.2 6 1 5-1.6 8-6.4 9.7z"/>
  <path fill="#F2F2F2" d="M401.2 408.6c-1 3-2.8 5-5.6 3.9-2.8-1.2-3.3-4-2.6-6.8.6-2.1 1.7-4.2 4.4-3.8 3.4.6 4.2 3.2 3.8 6.7z"/>
  <path fill="#111" d="M355.6 542.8c1.7-4.3 4.3-7 8.6-6.7 3.5.1 6 2.2 6.8 5.6 1 4.1.7 8-2.8 10.9-2.3 2-5.1 2.5-7.9 1-4-2.3-5.7-5.8-4.7-10.8zM420.1 540c1 4.3-.3 7.3-4 9.2-4.2 2-8.4 3.4-12.7.6-2.4-1.6-3-3.9-2.1-6.5 2.4-7.2 13.6-9.4 18.8-3.4z"/>
  <path fill="#151515" d="M381.9 546.6c-.6-5 2.3-7.4 6-9a6 6 0 0 1 6.9 1.2c2.1 2 3 4.4 1.9 7.2a8.5 8.5 0 0 1-7 5.8c-3.7.6-6.3-1.4-7.8-5.2z"/>
  <path fill="#131313" d="M423.1 540.2c5.5-5 8.2-5.5 14.1-2.2 1.4.8 2.2 2.1 2.2 3.6 0 3-1.7 5.1-4.2 6.3-3.7 1.6-7.5 1.8-10.9-.7-2-1.6-3-4-1.2-7z"/>
  <path fill="#181818" d="M424 464.9c2.2 0 4 .2 5.9.3 1.5 0 3.8-.5 3.6 2-.2 2.1-2.4 2-4 1.8-4.8-.6-9.6-1-14.4-.3l-7.4.6c-1.9.2-4.1.9-4.4-1.8-.2-2.6 2.3-1.8 3.7-2 5.5-.3 11-.4 17-.6z"/>
  <path fill="#1B1B1B" d="M422.4 529.7c-6.4.4-12.3-1.6-18.3.1-1.2.4-2.3-.4-2.5-1.8-.2-1.5.8-2 2-2.3 3.8-1 7.6-.8 11.5-.5 2.3.1 4.6.3 7 .2 1.4 0 3.2-.5 3.7 1.3.6 2.1-1.2 2.7-3.4 3z"/>
  <path fill="#131313" d="m415.3 514.1-6.9.6c-1.4 0-2.8-.3-3-1.8-.4-1.8 1-2.1 2.4-2.3 6.6-.9 13.2-.6 19.8-.6 1.5 0 2.7.6 2.6 2.3-.1 1.5-1.3 1.7-2.5 1.7l-12.4.1z"/>
  <path fill="#151515" d="m423.3 498.8-16.8.6c-1.3 0-3 .3-3.1-1.6-.2-1.8 1.4-1.8 2.8-1.9l18.4-1c1.6 0 3.4-.4 4.3 1.5.4.8 0 1.6-.6 2.2-1.5 1.4-3 1.3-5 .2z"/>
  <path fill="#080808" d="M419.6 484.2h-12.8c-1.3 0-3 .1-2.9-1.8 0-1.6 1.4-1.5 2.6-1.6 7-.4 14.2 0 21.3.5 1.1.1 2.5.2 2.5 1.8 0 1.8-1.4 2-2.8 2l-7.9-.9z"/>
  <path fill="#171717" d="M386.4 668.5c4.4-4 9-2.4 10.9 3.4 1.3 3.9-2.2 10.2-6.2 11.2-4.2 1-7-1.2-7.1-5.7 0-3 1.4-5.7 2.4-9z"/>
  <path fill="#131313" d="M433 668.2c2.2-2.7 4-2 5.8.2 2.5 3 6 5.6 2 10-1.3 1.5-2.3 3.5-4.6 3.2-2.4-.3-3.7-2-4.6-4.1-1.3-3.2-.6-6.2 1.3-9.3zM401.5 672.2c.9-2.8 2-5 4.9-5.4 3.3-.4 6.4.1 7.6 3.8 1 3.2-2.8 10-5.7 10.5-2.2.4-3.9-.5-4.7-2.6-.7-2-2.2-3.7-2-6.3z"/>
  <path fill="#111" d="M429.7 669.6c.7 2.3-.7 3.7-1.3 5.3-1.4 3.9-3.6 6.2-7.9 4.3-3-1.3-3.9-7-1.7-10.2 2.4-3.8 5.4-3 8.5-.8.6.4 1.4.7 2.4 1.4zM391.3 129.3c-9-1.9-14.3-7.4-18.1-14.9-8.1-15.7-.8-38.2 15-46 11-5.3 24.5-.7 30.3 11.4 8 16.4 2.7 38.6-14.3 47.1a19 19 0 0 1-8.4 2.3c-1.5 1-2.8.9-4.5.1z"/>
  <path fill="#171717" d="M373 142c-3.6-.3-5.5-2.4-6.4-5.1-1.4-3.9-.4-7.3 3.1-9.5 3.1-2 6-.6 7.8 2a8.5 8.5 0 0 1-.3 10.6c-1 1.2-2.2 2-4.2 2z"/>
  <path fill="#151515" d="M390.9 129.4c1.2-.4 2.4-.4 4-.3 3.3 3.4 4.5 7 1.7 10.9-1.4 2-3.1 3.7-5.9 2.7-2.6-1-3.8-3.1-3.8-5.9a9 9 0 0 1 4-7.4zM418.2 133c1.2 2.3 1.3 4.2-.3 6-2.6 2.8-5.7 4-9.3 1.7-2.9-2-3-4.6-1-7.3 2.4-3.4 6.1-3.6 10.6-.3z"/>
  <path fill="#111" d="M422.2 137c.5-1.2 1-2 1.6-2.9 3.4-5.3 5.6-5.5 10.2-1 3 3-.2 4.7-1.5 6.7-1.1 1.9-2.4 4-5 1.8-1.6-1.6-4-2.1-5.3-4.6z"/>
  <path fill="#F9F9F9" d="M188.5 207.1c8.9-3 13.4-1.4 20.6 6.9l-11.7 17.7-.6 1.4c-3.7 6.4-3.6 6.3-7.7.4-3-4.1-6-8.3-9.6-12-2.3-2.4-1.9-4.1-.1-6.3 2.5-3 5-6.1 9.1-8zM202.7 230.8c3.5-4.3 4.9-9.5 9.2-13.2 6 14.7 5.8 29-.4 44.4-5.1-6.5-9.7-12.4-14.4-18.1-1.2-1.6-1-3 0-4.5 1.9-2.7 3.6-5.6 5.6-8.6zM199.4 273.7c-8 3-16.4.1-20.4-6.5-.5-.8-1.5-2.2-.3-2.5 6.2-2 7.4-8.1 10.3-12.6 4.7-7.3 4.2-7.5 9.1-.6 2.5 3.4 5.4 6.4 7.9 9.7 3 4.1 2.6 6.5-1.5 9.6-1.5 1.1-3.2 1.9-5.1 3zM173.4 255.3a60.4 60.4 0 0 1 1.7-33l14.3 17.8c2 2.4.1 4.4-1.1 6.3-3.8 5.8-8 11.3-10.6 18-2.8-2.3-3.3-5.6-4.3-9z"/>
  <path fill="#9B9B9B" d="M85 205.9c-.7.7-1.1 1.3-1.8.7-.1 0-.2-.5 0-.7.4-.7 1-.9 1.7 0z"/>
  <path fill="#F8F8F8" d="M270 622c2.6 4.5 7.2 8.9 6.8 12.7-.5 5-5 9.4-8 14-1.1 2-2.4 3.7-3.6 5.5-.7 1.1-1.5 2.5 0 3.5 1.6 1.1 2.7 0 3.6-1.4l10.7-17.5c6.2 7.7 10 16.3 15.9 24.6l-31.2-1.5c-2.3-.1-2.3-1.4-2.3-3v-49.5L270 622z"/>
  <path fill="#F2F2F2" d="M297.4 646v11.6l-1 .2-13.2-21.4c-.8-1.2-.9-2.2 0-3.5 4.5-6.8 8.8-13.7 14.2-20.4V646z"/>
  <path fill="#FBFBFB" d="M186.6 603.4c1-1.1 2.3 0 4 .2-.3 2 .4 3.4 1.3 5 3.9 6.5 7.6 13.1 11.4 19.7.8 1.4 1.7 2.6.5 4.5-5.5 8.2-10.8 16.6-16.6 25.6 0-18.5 0-36.5-.3-54.7l-.3-.3z"/>
  <path fill="#F7F7F7" d="M194.2 662.9c-1.7-.3-3.4.8-4.2-.4-.9-1.3.6-2.4 1.3-3.5l15.4-23.6c6 7.8 9.5 16.9 14.8 24.9 1.4 2-.5 2-1.9 2-8.3.2-16.6 1.2-25.4.6z"/>
  <path fill="#F4F4F4" d="M224.4 635.8V658c-3.7-6.6-6.7-13-10.6-18.7-3.9-5.7-4.7-10.3.3-16 3.7-4.2 6-9.4 10.3-14.3v26.8z"/>
  <path fill="#F2F2F2" d="M191.4 604c-.4 0-.4-.3-.4-.5l31.4-.1-15.3 23.8c-3.6-6.3-6.6-11.7-9.9-17-1.4-2.5-1.8-5.9-5.8-6.3z"/>
  <path fill="#EBEBEB" d="M370.5 411.6c-3.6.6-4.1-1.8-4.5-4.1-.4-2.4 0-4.7 2-6.3 1.8-1.5 3.1-.2 3.9 1.4 1.6 3.1 1 6-1.4 9zM424.2 403.4c2.7.2 4.7 1.1 4.7 3.7.1 2.2-1.3 3.8-3.3 4.5-2.5.8-5.3.8-6.3-2-1.3-3.8 1.3-5.4 4.9-6.2zM360 548c-.4-.9-.7-1.5-.7-2.2 0-2.6.7-5 3.6-5.7 2-.5 3.7.4 4.5 2.3 1 2.4 1 4.8-1.2 6.7-2.2 2-4.2 1.3-6.2-1zM404.6 545.1c1.8-4.5 5.3-5 9.1-5 1.3 0 2.8 0 3.3 1.7.3 1.2-.5 2.2-1.3 3-3.5 3.7-7.8 4-11 .3z"/>
  <path fill="#F2F2F2" d="M387.7 541.4c2.3-.5 4.5-1.3 5.5 1.2.8 2-.2 3.6-1.9 4.8-1.4 1-3.3 1.4-4.6.1-1.7-1.9-.9-4 1-6z"/>
  <path fill="#EBEBEB" d="M426.3 543c1.5-4 5.1-2.5 7.8-3.4.8-.3 1.2 1 1.4 1.7.2 1-.2 2-1.1 2.6-2.7 1.4-5.5 2.4-8-.8zM390.3 679c-4.4-.1-2.4-3-2.1-4.6.3-1.6.3-3.9 2.5-4.4 1.5-.3 3.4 4.2 2.7 6-.5 1.4-1.6 2.2-3.1 3zM436.3 677c-.7-.7-1.1-1.2-1.2-1.8-.2-.7 0-1.5.2-2.4.5 1.5 3.4 2 1 4.2zM409.2 671.5c1.6 2.6.4 4.7-1.5 5.1-1.4.4-2.6-2-2.5-3.5.1-2.3 1.6-3.1 4-1.6zM421.8 671c3-1.1 3 1.3 3.3 2.8.2 1-1 2.3-2.3 2-2.6-.7-1.8-2.7-1-4.7z"/>
  <path fill="#F8F8F8" d="m406.3 85.3 5.8-7.2c8.3 6.8 8.7 28-.7 37.3-5-4.8-8.5-11-13-16.2-1.3-1.4-1-2.4 0-3.8 2.7-3.1 5.2-6.5 8-10z"/>
  <path fill="#F7F7F7" d="M389 124.5c-3.8-1.9-7.3-3.4-9.4-6.7 6.9-3.9 9-12 15-16.5 4.7 4.6 8 10.4 12.5 15.4 2 2.4 1.2 3.3-1 4.8a20.5 20.5 0 0 1-17 3z"/>
  <path fill="#F5F5F5" d="M390.2 88.7c-2.5-3.3-4.7-6.3-7.2-9.3-1-1.2-.6-1.9.3-2.9 5.3-6.4 17-8.1 24.1-3.7 2.8 1.6 1.6 2.9.3 4.6l-13.1 16.5-4.4-5.2z"/>
  <path fill="#F7F7F7" d="M385 88c2.4 3.4 6.3 6.6 6.2 9.6 0 3.1-4 6.1-6.4 9.2-1.4 1.8-3 3.6-4.2 5.5-2 3-3.4 2.3-4.5-.7a34 34 0 0 1 3.3-30.4L385 88z"/>
  <path fill="#EBEBEB" d="M373.6 130.6c.6.9 1.1 1.4 1.3 2 .4 2 1 4.4-1.5 5.4-1.7.8-3-.5-3-2.2-.2-2.2-1.7-5.6 3.2-5.2zM394.2 136.7c-.5 1.4-1.1 2.5-2.2 2-1.7-.7-1.1-2.3-.7-3.5.3-1 1-2.1 2-1.8 1.4.4.9 1.9.9 3.3zM412.2 138c-2.9-.8-1.7-2-.4-3 1-.7 2.5-.6 3 .5.5 1.6-.8 2.3-2.6 2.6zM427.7 135.2c1.7-.7 2.5-.3 2.3 1.2 0 .8-.6 1.6-1.6 1.3-1-.3-1.5-1.1-.7-2.5z"/>
</svg>
