<svg xmlns="http://www.w3.org/2000/svg" xmlns:xlink="http://www.w3.org/1999/xlink" width="822" height="1152" viewBox="-0.5 -0.5 822 1152" xmlns:v="https://vecta.io/nano"><style><![CDATA[.B{stroke:#788aa3}.C{font-family:Helvetica}.D{text-anchor:middle}.E{pointer-events:all}.F{stroke-miterlimit:10}.G{fill:#46495d}.H{pointer-events:stroke}.I{fill:none}.J{font-size:12px}.K{fill:#b2c9ab}.L{font-size:11px}.M{fill:#000}.N{stroke:#000}]]></style><path fill="#fff2cc" stroke="#d6b656" d="M7 750h810v395H7z" class="E"/><path fill="#f8cecc" stroke="#b85450" d="M7 420h810v330H7z" class="E"/><path fill="#dae8fc" stroke="#6c8ebf" d="M8 0h810v420H8z" class="E"/><g class="B F I"><path d="M409 40v39.88" class="H"/><path d="M409 88.88l-4.5-9h9z" class="E"/></g><rect x="389" width="40" height="40" rx="6" class="B E K"/><text x="408.5" y="23.5" class="C D G J">Start</text><g class="B F I"><path d="M459 130h39.88" class="H"/><path d="M507.88 130l-9 4.5v-9z" class="E"/></g><text x="482.5" y="122.5" class="C D G L">No</text><use xlink:href="#B" class="B E F K"/><text x="408.5" y="131.5" class="C D G J">Does user have...</text><path d="M559 170v30" class="B F H I"/><text x="579.5" y="190.5" font-size="28" class="C D M">Yes</text><rect x="339" y="430" width="120" height="40" rx="6" class="B E K"/><text x="398.5" y="453.5" class="C D G J">Browse...</text><use xlink:href="#B" x="150" class="B E F K"/><text x="558.5" y="131.5" class="C D G J">Sign up?</text><g class="B F I"><path d="M609 130l30.11.08q10 .03 10 10.03v300q0 10-10 10l-169.99-.1" class="H"/><path d="M460.12 450l9-4.49v9z" class="E"/></g><text x="668.5" y="252.5" class="C D G L">No</text><rect x="499" y="200" width="120" height="40" rx="6" class="B E K"/><text x="558.5" y="223.5" class="C D G J">Enter Name</text><g class="B F I"><path d="M559 240v40M359 130h-59.88" class="H"/><path d="M290.12 130l9-4.5v9z" class="E"/></g><text x="329.5" y="122.5" class="C D G L">Yes</text><use xlink:href="#B" x="-170" class="B E F K"/><text x="238.5" y="131.5" class="C D G J">Sign in</text><rect x="499" y="280" width="120" height="40" rx="6" class="B E K"/><text x="558.5" y="303.5" class="C D G J">Enter Email</text><rect x="499" y="350" width="120" height="40" rx="6" class="B E K"/><text x="558.5" y="373.5" class="C D G J">Enter Password</text><path d="M559 390v60m0-130l.06 5.06q.05 5.05 0 15L559 350M239 170v20" class="B F I H"/><rect x="179" y="190" width="120" height="40" rx="6" class="B E K"/><text x="238.5" y="213.5" class="C D G J">Enter Email</text><g class="B"><path d="M239 230v40" class="F H I"/><rect x="179" y="270" width="120" height="40" rx="6" class="E K"/></g><text x="238.5" y="293.5" class="C D G J">Enter Password</text><g class="B F"><path d="M239 310l-.1 33.52" class="H I"/><use xlink:href="#B" x="-170" y="250" class="E K"/></g><text x="238.5" y="381.5" class="C D G J">Does it match D...</text><g class="B F I"><path d="M239 420l.07 20.11q.04 10 10.04 9.99l79.77-.09" class="H"/><path d="M337.88 450l-8.99 4.51-.01-9z" class="E"/></g><text x="289.5" y="444.5" class="C D G L">Yes</text><g class="B F I"><path d="M189 380l-59.89.1q-10 .01-10-9.99v-230q0-10 10-10.01l49.77-.08" class="H"/><path d="M187.88 130l-8.99 4.52-.02-9z" class="E"/></g><text x="99.5" y="254.5" class="C D G L">No</text><text x="774" y="194" transform="matrix(0 1 -1 0 963.5 -584.5)" class="C D J M">Login/Signup</text><g class="B"><path d="M399 470v30" class="F H I"/><rect x="339" y="500" width="120" height="40" rx="6" class="E K"/></g><text x="398.5" y="523.5" class="C D G J">My Account</text><use xlink:href="#B" x="-10" y="470" class="B E F K"/><text x="398.5" y="601.5" class="C D G J">Is user signed...</text><path d="M399 540v20m49.86 40.11h260.25q10 0 10-10v-510q0-10-10-10L409 70" class="B F I H"/><text x="698.5" y="550.5" class="C D G L">No</text><g class="B F I"><path d="M399 640l.06 10.11q.05 10 .02 14.89l-.02 4.88" class="H"/><path d="M399.01 678.88l-4.45-9.02 9 .05z" class="E"/></g><text x="413.5" y="654.5" class="C D G L">Yes</text><rect x="339" y="680" width="120" height="40" rx="6" class="B E K"/><text x="398.5" y="703.5" class="C D G J">Account Dashboard</text><text x="774" y="579" transform="matrix(0 1 -1 0 1348.5 -199.5)" class="C D J M">Account Dashboard</text><rect x="339" y="760" width="120" height="40" rx="6" class="B E K"/><text x="398.5" y="783.5" class="C D G J">Browse...</text><g class="I F H"><path d="M399 720l.07 20.11q.04 10-.01 14.95L399 760m0 40l.09 50.11q.02 10-.03 19.95L399 880" class="B"/><path d="M399 840v-40" class="N"/></g><rect x="339" y="840" width="120" height="40" rx="6" class="B E K"/><text x="398.5" y="863.5" class="C D G J">Select Item</text><g class="B F"><path d="M399 880l.06 5.06q.05 5.05.02 15.05L399 930" class="H I"/><use xlink:href="#B" x="-10" y="820" class="E K"/></g><text x="398.5" y="951.5" class="C D G J">Add To Cart?</text><g class="B F I"><path d="M349 950l-59.89.1q-10 .01-10-9.99v-150q0-10 10-10.02l39.77-.07" class="H"/><path d="M337.88 780l-8.99 4.52-.02-9z" class="E"/></g><text x="269.5" y="863.5" class="C D L M">No</text><g class="B F I"><path d="M449 950l50.11.09q10 .02 9.89.02h-.12" class="H"/><path d="M517.88 950.01l-8.95 4.6-.1-9z" class="E"/></g><text x="478.5" y="943.5" class="C D L M">Yes</text><use xlink:href="#B" x="160" y="820" class="B E F K"/><text x="568.5" y="951.5" class="C D G J">View Cart?</text><g class="B F I"><path d="M569 910l.1-119.89q.01-10-9.99-10.01l-89.99-.09" class="H"/><path d="M460.12 780l9-4.49-.01 9z" class="E"/></g><text x="581.5" y="865.5" class="C D L M">No</text><g class="B F I"><path d="M619 950l80.11.1q10 .01 9.97 4.9l-.02 4.88" class="H"/><path d="M709.01 968.88l-4.45-9.02 9 .05z" class="E"/></g><text x="670.5" y="943.5" class="C D L M">Yes</text><use xlink:href="#B" x="300" y="880" class="B E F K"/><text x="708.5" y="1011.5" class="C D G J">Proceed to...</text><g class="B F I"><path d="M709 1050l.08 30.11q.03 10-9.97 10h-120q-10 0-10.01-10l-.09-79.99" class="H"/><path d="M569 991.12l4.51 8.99-9 .01z" class="E"/></g><text x="639.5" y="1084.5" class="C D L M">No</text><g class="B F I"><path d="M759 1010l40.11.09q10 .02 10 10.02v80q0 10-10 10l-279.99-.11" class="H"/><path d="M510.12 1110l9-4.5v9z" class="E"/></g><text x="790.5" y="1063.5" class="C D L M">Yes</text><use xlink:href="#B" x="54" y="980" class="B E F K"/><text x="462.5" y="1111.5" class="C D G J">Is there saved...</text><g class="B F I"><path d="M462.5 1073.6l-.05-43.49q-.01-10-10.01-10H239.11q-10 0-10-10v-20q0-10-10-10.01l-53.99-.08" class="H"/><path d="M156.12 980l9-4.48-.01 9z" class="E"/></g><text x="329.5" y="1014.5" class="C D L M">Yes</text><path d="M95.11 1000v20.11-10V1030" class="F H I N"/><rect x="35" y="960" width="120" height="40" rx="6" class="B E K"/><text x="94.5" y="983.5" class="C D G J">Process Payment</text><g class="B F I"><path d="M413 1110l-307.89.11q-10 0-10.03-10l-.05-19.99" class="H"/><path d="M95 1071.12l4.53 8.99-9 .02z" class="E"/></g><text x="249.5" y="1123.5" class="C D L M">No</text><rect x="35" y="1030" width="120" height="40" rx="6" class="B E K"/><text x="94.5" y="1053.5" class="C D G J">Enter Card Informati...</text><g class="F"><path d="M95 1030v-30" class="H I N"/><use xlink:href="#B" x="-314" y="760" class="B E K"/></g><text x="94.5" y="891.5" class="C D G J">Successful?</text><g class="B F I"><path d="M45 890l-25.89.08q-10 .03-10 10.03v140q0 10 7.89 9.97l7.88-.04" class="H"/><path d="M33.88 1050l-8.98 4.54-.04-9z" class="E"/></g><text x="29.5" y="884.5" class="C D L M">No</text><g class="F I"><path d="M95 960v-30" class="H N"/><g class="B"><path d="M95 850v-39.88" class="H"/><path d="M95 801.12l4.5 9h-9z" class="E"/></g></g><text x="109.5" y="844.5" class="C D L M">Yes</text><rect x="35" y="760" width="120" height="40" rx="6" class="B E K"/><text x="94.5" y="783.5" class="C D G J">Thank you</text><g class="B"><path d="M155 780l34.11.09q10 .02 10 10.02v10q0 10-.01 20L199 880" class="F H I"/><rect x="179" y="880" width="40" height="40" rx="6" class="E K"/></g><text x="198.5" y="903.5" class="C D G J">End</text><text x="774" y="934" transform="matrix(0 1 -1 0 1703.5 155.5)" class="C D J M">Payment Process</text><defs ><path id="B" d="M384 110l17.19-13.75q7.81-6.25 15.62 0l34.38 27.5q7.81 6.25 0 12.5l-34.38 27.5q-7.81 6.25-15.62 0l-34.38-27.5q-7.81-6.25 0-12.5z"/></defs></svg>
