<svg xmlns="http://www.w3.org/2000/svg" xmlns:xlink="http://www.w3.org/1999/xlink" viewBox="0 0 463.04 695.37" xmlns:v="https://vecta.io/nano"><style><![CDATA[.B{fill:#231f20}.C{fill:#326432}.D{font-family:MyriadPro-Regular, 'Myriad Pro'}.E{font-size:12px}.F{fill:#597359}]]></style><path d="M266.2 45.11s-18.44-10.47-9.91-25.47C264.82 4.63 282.05 1.98 284.26.01m-16.64 45.9s20.73 4.45 24.34-12.43-7.49-30.32-7.83-33.26" class="F"/><g fill="#fff"><path d="M269.68 39.68s2.62-9.87-10.12-18.68c.24.71 11.14 7.86 8.88 18.8l1.24-.12zm2.59-6.29s-1.47-10.6-9.08-14.84c.24.71 6.21 2.62 8.14 15.15 1.24-.12.94-.31.94-.31zm.9-4.16s1.33-8.25-6.28-12.49c.24.71 6.31 3.14 5.79 12.74 1.24-.12.49-.24.49-.24zm1.97-4.86s2.77-6.4-4.83-10.64c.24.71 6.18 1.99 4.34 10.88 1.24-.12.49-.24.49-.24zm2.05-5.62s1.84-4.41-2.82-8.29c.24.71 4.28 2.96 2.32 8.54.34 1.16.49-.24.49-.24z"/><path d="M268.98 38.25s4.9-8.96 20.21-6.57c-.67.35-13.49-1.98-19.39 7.5l-.81-.94zm2.46-5.28s8.38-6.67 16.81-4.5c-.67.35-6.31-2.38-16.34 5.37-.82-.93-.47-.87-.47-.87zm1.79-4.91s4.73-6.9 13.16-4.73c-.67.35-6.73-2.07-12.97 5.24-.82-.93-.19-.52-.19-.52zm1.88-4.46s2.4-6.55 10.83-4.38c-.67.35-5.85-2.82-10.64 4.9-.82-.93-.19-.52-.19-.52zm2.43-5.9s1.71-4.46 7.76-4.07c-.67.35-5.14-.8-7.57 4.59-1.05.61-.19-.52-.19-.52zm6.77-14.27s12.04 19.97 4.96 32.71c-6.05 10.08-18.56 9.7-18.56 9.7 1.79 1.08 36.27-1.12 13.61-42.41z"/></g><g class="C"><path d="m267.39,46.28c-1.25,2.86-1.65,4.99-1.65,4.99l-.77.2,2.42-5.19Z"/><path d="M265.01 50.42l-.02 1.07-.46-.31.48-.76zm2.75-3.6S247.48 53 242.45 36.49s4.91-30.84 4.99-33.81m21.88 43.66s17.49-11.99 7.72-26.22-27.16-15.42-29.53-17.2"/></g><g fill="#fff"><path d="M266.21 40.55s-5.36-8.69-20.52-5.51c.68.31 13.37-2.68 19.75 6.49l.76-.98zm-2.79-6.2s-8.71-6.22-17.02-3.62c.68.31 6.18-2.7 16.6 4.51.77-.98.42-.9.42-.9zm-2.39-3.52s-5.08-6.64-13.39-4.04c.68.31 6.61-2.42 13.22 4.56.77-.98.16-.53.16-.53zm-2.17-4.77s-2.74-6.42-11.05-3.81c.68.31 5.7-3.12 10.88 4.34.77-.98.16-.53.16-.53zm-2.68-5.35s-1.94-4.36-7.96-3.66c.68.31 5.09-1.07 7.79 4.19 1.08.56.16-.53.16-.53z"/><path d="M264.69 40.08s-3.13-9.72 9.13-19.18c-.21.72-10.71 8.43-7.89 19.24l-1.24-.05zm-2.13-5.41s.92-10.67 8.3-15.29c-.21.72-6.07 2.94-7.34 15.55-1.24-.05-.95-.26-.95-.26zm-2.34-4.68s-1.75-8.17 5.62-12.8c-.21.72-6.13 3.46-5.12 13.02-1.24-.05-.5-.22-.5-.22zm-1.94-4.44s-3.1-6.25 4.27-10.88c-.21.72-6.07 2.31-3.77 11.09-1.24-.05-.5-.22-.5-.22zm-2.62-5.81s-2.06-4.31 2.38-8.43c-.21.72-4.12 3.18-1.88 8.65-.28 1.18-.5-.22-.5-.22zM249.96 5s22.77 5 27.15 18.9c3.15 11.33-5.73 20.14-5.73 20.14 2.01-.55 24.13-27.1-21.42-39.05z"/></g><g class="C"><path d="m269.43,46.76c1.22,2.88,2.48,4.63,2.48,4.63l-.38.7-2.1-5.33Z"/><path d="M270.79 51.33l.77.76-.55.12-.22-.88z"/></g><g class="B"><path d="M164.16 60.31c-1.36 1.84-3.02 3.5-4.98 4.98s-4.18 2.22-6.66 2.22c-1.36 0-2.7-.34-4.02-1.02s-2.38-1.7-3.18-3.06l-2.16 4.38c-.88 1.64-1.92 3.28-3.12 4.92s-2.54 3.14-4.02 4.5-3.06 2.48-4.74 3.36c-1.44.64-2.64.96-3.6.96-2.88 0-4.32-1.28-4.32-3.84 0-1.44.26-2.92.78-4.44s1.18-3 1.98-4.44 1.66-2.8 2.58-4.08 1.78-2.32 2.58-3.12a25.04 25.04 0 0 1 5.76-4.68c2.16-1.28 4.48-2.04 6.96-2.28.16-.64.4-1.38.72-2.22s.88-1.34 1.68-1.5l1.2-.24c.4-.08.76-.2 1.08-.36.24-.16.48-.18.72-.06s.28.34.12.66c-.56.88-.98 2-1.26 3.36s-.42 2.84-.42 4.44c0 2.24.42 4.08 1.26 5.52s2.3 2.16 4.38 2.16 3.96-.68 5.64-2.04 3.08-2.84 4.2-4.44c.16-.4.42-.52.78-.36s.38.4.06.72zm-19.8.84c-.16-.72-.28-1.56-.36-2.52l-.12-2.76c0-.4-.16-.6-.48-.6-.88 0-1.8.3-2.76.9s-1.92 1.4-2.88 2.4-1.92 2.14-2.88 3.42a42.57 42.57 0 0 0-2.64 3.96 44.47 44.47 0 0 0-2.82 5.7c-.84 2.04-1.22 3.98-1.14 5.82 0 .56.1 1.08.3 1.56s.66.72 1.38.72c1.36 0 2.84-.76 4.44-2.28s3.12-3.3 4.56-5.34 2.66-4.1 3.66-6.18 1.58-3.68 1.74-4.8zm40.18-24.24c-.64.16-1.36.46-2.16.9s-1.4.98-1.8 1.62l-5.34 8.04-4.98 8.4h14.88c.24.16.36.32.36.48s-.08.28-.24.36l-2.88.06-4.2.18-4.68.24-4.2.24c-2.24 4-3.96 7.4-5.16 10.2s-1.8 5.24-1.8 7.32c0 2.88 1.32 4.32 3.96 4.32 1.28 0 2.74-.34 4.38-1.02s3.38-1.58 5.22-2.7c.24-.24.48-.22.72.06s.16.5-.24.66c-2.72 1.76-5.24 3.04-7.56 3.84s-4.68 1.2-7.08 1.2c-1.28 0-2.4-.38-3.36-1.14s-1.44-2.06-1.44-3.9c0-1.6.72-3.96 2.16-7.08s3.56-6.96 6.36-11.52l-3.54.3-2.46.18c-.4 0-.6-.16-.6-.48.32-.56.84-1.12 1.56-1.68l6.12-.12 2.4-4.02 2.64-4.44a113.36 113.36 0 0 1 2.7-4.32c.92-1.4 1.74-2.7 2.46-3.9.88-.4 2.1-.92 3.66-1.56s2.94-1.16 4.14-1.56c.16 0 .28.1.36.3s-.04.38-.36.54z"/><use xlink:href="#B"/><path d="M256.73 65.23c-1.44 2-3.1 4.02-4.98 6.06s-3.88 3.86-6 5.46-4.28 2.92-6.48 3.96-4.34 1.56-6.42 1.56c-.96 0-1.84-.14-2.64-.42s-1.2-.98-1.2-2.1.4-2.54 1.2-4.26l2.82-5.46 3.36-5.88c1.16-2 2.1-3.84 2.82-5.52.16-.4.18-.74.06-1.02s-.38-.3-.78-.06c-.88.56-1.92 1.32-3.12 2.28l-3.66 3.06-3.6 3.3-2.82 3-3.3 5.52-3.42 5.64c-.32.48-.56.72-.72.72-.4 0-.74-.44-1.02-1.32s-.42-1.44-.42-1.68c0-.72.5-1.7 1.5-2.94l3.3-4.14 3.96-8.1 3.48-7.62c.24-.4.6-.6 1.08-.6s.92.2 1.32.6.6.84.6 1.32c0 .32-.58 1.42-1.74 3.3s-2.3 4.06-3.42 6.54l4.98-4.32 5.16-4.2 4.32-3.18c1.24-.84 2.1-1.26 2.58-1.26.32 0 .62.18.9.54s.42.7.42 1.02-.2.8-.6 1.44l-3.24 4.92-3.66 6.18-2.94 6.06c-.8 1.92-1.2 3.44-1.2 4.56 0 .96.2 1.62.6 1.98s1.04.54 1.92.54c1.36 0 2.96-.52 4.8-1.56s3.74-2.34 5.7-3.9 3.82-3.3 5.58-5.22 3.2-3.76 4.32-5.52c.16-.24.4-.3.72-.18s.28.42-.12.9zm23.73-.24c-1.92 2.48-4.12 4.84-6.6 7.08s-4.76 4.04-6.84 5.4c-1.6 1.04-3.24 1.84-4.92 2.4s-3.2.84-4.56.84c-.48 0-1.04-.04-1.68-.12s-1.22-.28-1.74-.6-.96-.74-1.32-1.26-.54-1.22-.54-2.1c0-1.04.4-2.46 1.2-4.26s1.74-3.66 2.82-5.58l3.24-5.52 2.58-3.96c.4-.64 1.1-1.18 2.1-1.62s1.66-.66 1.98-.66c.4 0 .6.12.6.36 0 .16-.06.4-.18.72s-.26.56-.42.72L263 62.11l-2.94 5.58c-.88 1.8-1.58 3.46-2.1 4.98s-.78 2.72-.78 3.6c0 .96.26 1.66.78 2.1s1.22.66 2.1.66c1.6 0 3.36-.54 5.28-1.62s3.82-2.38 5.7-3.9a54.6 54.6 0 0 0 5.22-4.8l3.72-4.32c.4-.4.62-.5.66-.3s-.02.5-.18.9zm27.46-.36c-1.2 1.52-2.56 3.06-4.08 4.62l-4.68 4.44a47.43 47.43 0 0 1-4.92 3.78c-1.68 1.12-3.28 2-4.8 2.64-1.2.48-2.3.82-3.3 1.02s-1.94.3-2.82.3c-4.4 0-6.6-1.84-6.6-5.52 0-1.44.32-2.96.96-4.56 1.52-3.76 3.66-7.1 6.42-10.02s5.74-5.06 8.94-6.42c.96-.4 1.76-.6 2.4-.6 2.96 0 4.44 1.16 4.44 3.48 0 1.2-.28 2.12-.84 2.76-.48.48-1.28 1.16-2.4 2.04l-.36-.12c.24-.64.36-1.32.36-2.04 0-.8-.3-1.56-.9-2.28s-1.54-1.08-2.82-1.08c-1.52 0-2.98.5-4.38 1.5s-2.64 2.32-3.72 3.96-1.94 3.52-2.58 5.64-.96 4.3-.96 6.54c0 1.68.46 2.94 1.38 3.78s2.06 1.26 3.42 1.26c2.24 0 5.26-1.3 9.06-3.9s7.86-6.54 12.18-11.82c.4-.4.7-.5.9-.3s.1.5-.3.9z"/><use xlink:href="#B" x="121.95"/><path d="M397.87 2.47c0 1.12-.44 2.76-1.32 4.92s-2.14 4.66-3.78 7.5-3.64 5.88-6 9.12-5.04 6.46-8.04 9.66-6.3 6.26-9.9 9.18-7.44 5.5-11.52 7.74l-3 5.16a134.72 134.72 0 0 0-3.78 6.84l-3.24 7.08s-1.38 4.28-1.38 5.88c0 2.56 1.16 3.84 3.48 3.84 2 0 4.08-.56 6.24-1.68a35.88 35.88 0 0 0 6.18-4.08c1.96-1.6 3.8-3.3 5.52-5.1s3.18-3.42 4.38-4.86c.56-.56.88-.7.96-.42s-.04.58-.36.9l-5.1 5.64s-4.04 3.84-6.24 5.52-4.5 3.08-6.9 4.2-4.8 1.68-7.2 1.68c-2.08 0-3.58-.5-4.5-1.5s-1.38-2.22-1.38-3.66.62-3.5 1.86-6.18 2.7-5.5 4.38-8.46 3.36-5.76 5.04-8.4l3.72-6 4.26-7.26 4.38-7.38 4.14-6.9 3.66-5.82 4.2-5.88s3.28-3.68 5.52-5.52c3.04-2.56 5.84-4.52 8.4-5.88s4.28-2.04 5.16-2.04c.64 0 1.16.18 1.56.54s.6.9.6 1.62zm-5.4 3.12c0-1.28-.52-1.92-1.56-1.92-.4 0-.84.12-1.32.36s-1.1.74-1.86 1.5-1.68 1.82-2.76 3.18l-4.14 5.28c-.64.88-1.54 2.16-2.7 3.84s-2.64 3.9-4.44 6.66l-6.48 10.2-8.94 14.34c4.8-2.72 9.3-6.02 13.5-9.9s7.82-7.86 10.86-11.94 5.44-8.04 7.2-11.88 2.64-7.08 2.64-9.72z"/><use xlink:href="#C"/></g><path d="M222.81 152.64s-18.44-10.47-9.91-25.47c8.53-15.01 25.76-17.66 27.97-19.63m-16.64 45.91s20.73 4.45 24.34-12.43-7.49-30.32-7.83-33.26" class="F"/><g fill="#fff"><path d="M226.3 147.21s2.62-9.87-10.12-18.68c.24.71 11.14 7.86 8.88 18.8l1.24-.12zm2.58-6.29s-1.47-10.6-9.08-14.84c.24.71 6.21 2.62 8.14 15.15 1.24-.12.94-.31.94-.31zm.9-4.16s1.33-8.25-6.28-12.49c.24.71 6.31 3.14 5.79 12.74 1.24-.12.49-.24.49-.24zm1.98-4.85s2.77-6.4-4.83-10.64c.24.71 6.18 1.99 4.34 10.88 1.24-.12.49-.24.49-.24zm2.04-5.62s1.84-4.41-2.82-8.29c.24.71 4.28 2.96 2.32 8.54.34 1.16.49-.24.49-.24z"/><path d="M225.59 145.78s4.9-8.96 20.21-6.57c-.67.35-13.49-1.98-19.39 7.5l-.81-.94zm2.47-5.27s8.38-6.67 16.81-4.5c-.67.35-6.31-2.38-16.34 5.37-.82-.93-.47-.87-.47-.87zm1.78-4.92s4.73-6.9 13.16-4.73c-.67.35-6.73-2.07-12.97 5.24-.82-.93-.19-.52-.19-.52zm1.89-4.45s2.4-6.55 10.83-4.38c-.67.35-5.85-2.82-10.64 4.9-.82-.93-.19-.52-.19-.52zm2.42-5.9s1.71-4.46 7.76-4.07c-.67.35-5.14-.8-7.57 4.59-1.05.61-.19-.52-.19-.52zm6.77-14.27s12.04 19.97 4.96 32.71c-6.05 10.08-18.56 9.7-18.56 9.7 1.79 1.08 36.27-1.12 13.61-42.41z"/></g><g class="C"><path d="m224,153.82c-1.25,2.86-1.65,4.99-1.65,4.99l-.77.2,2.42-5.19Z"/><path d="M221.62 157.95l-.02 1.08-.46-.32.48-.76zm2.75-3.6s-20.28 6.18-25.31-10.33 4.91-30.84 4.99-33.81m21.88 43.67s17.49-11.99 7.72-26.22-27.16-15.42-29.53-17.2"/></g><g fill="#fff"><path d="M222.83 148.09s-5.36-8.69-20.52-5.51c.68.31 13.37-2.68 19.75 6.49l.76-.98zm-2.79-6.2s-8.71-6.22-17.02-3.62c.68.31 6.18-2.7 16.6 4.51.77-.98.42-.9.42-.9zm-2.4-3.52s-5.08-6.64-13.39-4.04c.68.31 6.61-2.42 13.22 4.56.77-.98.16-.53.16-.53zm-2.17-4.77s-2.74-6.42-11.05-3.81c.68.31 5.7-3.12 10.88 4.34.77-.98.16-.53.16-.53zm-2.67-5.35s-1.94-4.36-7.96-3.66c.68.31 5.09-1.07 7.79 4.19 1.08.56.16-.53.16-.53z"/><path d="M221.3 147.62s-3.13-9.72 9.13-19.18c-.21.72-10.71 8.43-7.89 19.24l-1.24-.05zm-2.13-5.42s.92-10.67 8.3-15.29c-.21.72-6.07 2.94-7.34 15.55-1.24-.05-.95-.26-.95-.26zm-2.34-4.68s-1.75-8.17 5.62-12.8c-.21.72-6.13 3.46-5.12 13.02-1.24-.05-.5-.22-.5-.22zm-1.94-4.43s-3.1-6.25 4.27-10.88c-.21.72-6.07 2.31-3.77 11.09-1.24-.05-.5-.22-.5-.22zm-2.61-5.82s-2.06-4.31 2.38-8.43c-.21.72-4.12 3.18-1.88 8.65-.28 1.18-.5-.22-.5-.22zm-5.7-14.73s22.77 5 27.15 18.9c3.15 11.33-5.73 20.14-5.73 20.14 2.01-.55 24.13-27.1-21.42-39.05z"/></g><g class="C"><path d="m226.04,154.3c1.22,2.88,2.48,4.63,2.48,4.63l-.38.7-2.1-5.33Z"/><path d="M227.4 158.87l.77.75-.55.12-.22-.87z"/></g><use xlink:href="#C" x="144.66" y="80.2" class="B"/><path fill="#dde0ee" stroke="#231f20" stroke-miterlimit="10" d="M.5 215.51h177.21v177.21H.5z"/><path d="M285.82 215.51h177.21v177.21H285.82z" class="C"/><path d="M2.06 490.8h177.21v177.21H2.06z" class="B"/><path d="M285.82 490.8h177.21v177.21H285.82z" class="F"/><text class="B D E"><tspan x="66.91" y="414.76">#586AAF</tspan><tspan x="350.52" y="414.76">#326432</tspan><tspan x="350.52" y="690.24">#597359</tspan><tspan x="65.19" y="690.24">#000000</tspan></text><defs ><path id="B" d="M223.87 64.27l-6.06 6.78c-2.2 2.28-4.42 4.34-6.66 6.18s-4.46 3.32-6.66 4.44-4.22 1.68-6.06 1.68c-1.6 0-2.72-.4-3.36-1.2s-.96-1.8-.96-3c0-1.12.34-2.62 1.02-4.5s1.7-3.9 3.06-6.06l-3.6 4.32c-1.36 1.52-2.76 2.9-4.2 4.14s-2.88 2.28-4.32 3.12-2.72 1.26-3.84 1.26c-1.68 0-2.52-.84-2.52-2.52 0-1.84.72-4.16 2.16-6.96s3.38-5.5 5.82-8.1 5.22-4.84 8.34-6.72 6.36-2.82 9.72-2.82c.4-.8.76-1.36 1.08-1.68s.64-.56.96-.72l3.36-.96.24.12c-.4.4-.78.9-1.14 1.5l-1.14 1.86c.4 0 1 .04 1.8.12s1.4.16 1.8.24c.4.16.6.36.6.6s-.12.36-.36.36c-.48-.16-1.2-.28-2.16-.36s-1.68-.12-2.16-.12c-3.68 6.48-6.38 11.62-8.1 15.42s-2.58 6.62-2.58 8.46c0 .72.18 1.32.54 1.8s1.1.72 2.22.72c1.28 0 2.8-.46 4.56-1.38s3.64-2.2 5.64-3.84 4.06-3.54 6.18-5.7 4.14-4.44 6.06-6.84c.16-.24.32-.3.48-.18s.24.3.24.54zm-18.72-9.12c-2.72 0-5.32.96-7.8 2.88s-4.68 4.18-6.6 6.78-3.46 5.18-4.62 7.74-1.74 4.44-1.74 5.64c0 .64.24.96.72.96s1.22-.32 2.22-.96 2.14-1.5 3.42-2.58 2.58-2.34 3.9-3.78 2.54-3 3.66-4.68a88.59 88.59 0 0 0 3.72-6.12l3.24-5.76-.12-.12z"/><path id="C" d="M99.39 27.31l9.54.3c2.76.2 5.04.66 6.84 1.38s3.16 1.72 4.08 3 1.38 3 1.38 5.16c0 1.12-.28 2.44-.84 3.96s-1.5 3.02-2.82 4.5-3.06 2.88-5.22 4.2-4.8 2.34-7.92 3.06c-.16 0-.24.12-.24.36 0 .16.08.24.24.24l3.72.78c1.36.28 2.64.76 3.84 1.44a10.22 10.22 0 0 1 3.06 2.64c.84 1.08 1.26 2.54 1.26 4.38 0 2.24-.6 4.5-1.8 6.78s-2.9 4.34-5.1 6.18-4.88 3.34-8.04 4.5-6.74 1.74-10.74 1.74c-2.32 0-4.8-.22-7.44-.66s-5.08-1.22-7.32-2.34c-.56-.32-1.08-.58-1.56-.78s-.88-.3-1.2-.3c-.64 0-1.64.32-3 .96s-2.6 1.4-3.72 2.28l-.72-.6 2.1-2.46a25.74 25.74 0 0 0 .9-1.38l3.96-6.78 3.9-6.96 3.6-6.6 3.18-5.7 2.58-4.86 3-5.58 2.88-5.7 2.46-5.1c.08-.16.12-.36.12-.6s-.24-.36-.72-.36c-1.12 0-2.36.08-3.72.24s-2.68.34-3.96.54l-3.6.54c-1.12.16-2 .24-2.64.24-1.28 0-1.92-.4-1.92-1.2 0-.88.24-1.56.72-2.04.16 0 .28.12.36.36.16.24.5.4 1.02.48s1.78.12 3.78.12a138.44 138.44 0 0 0 7.26-.18l8.46-.18zm16.08 8.76c0-1.52-.32-2.78-.96-3.78a6.74 6.74 0 0 0-2.52-2.34c-1.04-.56-2.2-.94-3.48-1.14a24.84 24.84 0 0 0-3.84-.3 9.64 9.64 0 0 0-2.46.3c-.76.2-1.42.66-1.98 1.38-.88 1.12-1.78 2.46-2.7 4.02l-2.58 4.38c-2.64 4.72-5.48 10-8.52 15.84l-9.12 17.76c-.4.8-.64 1.52-.72 2.16 0 .48.2 1.08.6 1.8s1.06 1.42 1.98 2.1 2.1 1.26 3.54 1.74 3.24.72 5.4.72c2.72-.08 5.42-.62 8.1-1.62s5.1-2.36 7.26-4.08a20.65 20.65 0 0 0 5.22-6.12c1.32-2.36 1.98-4.9 1.98-7.62 0-2.32-.88-4.1-2.64-5.34s-4.24-1.94-7.44-2.1c-1.12 0-2.36.14-3.72.42s-2.56.42-3.6.42c-.24-.08-.42-.18-.54-.3s-.18-.42-.18-.9c0-.4.12-.74.36-1.02a1.2 1.2 0 0 1 .96-.42c.88 0 1.72.12 2.52.36s1.64.36 2.52.36c.72 0 1.54-.06 2.46-.18s1.7-.3 2.34-.54c1.44-.64 2.86-1.46 4.26-2.46a19.77 19.77 0 0 0 3.78-3.54c1.12-1.36 2.02-2.88 2.7-4.56s1.02-3.48 1.02-5.4z"/></defs></svg>