<svg width="698" height="792" fill="none" xmlns="http://www.w3.org/2000/svg"><g clip-path="url(#a)"><path fill="#fff" d="M0 0h698v792H0z"/><path d="M50.8 93V58.2H37v-7.7h36.7v7.7H60V93h-9.3Zm30 11.7a35.5 35.5 0 0 1-5.8-.8V98H79c1 0 2-.2 2.8-.7.8-.5 1.5-1.1 2.1-1.9.7-.7 1.1-1.5 1.4-2.4L72.4 60.4h9.1l5.6 15 .8 2.7a109.5 109.5 0 0 1 1.8 6.3h.3a103.4 103.4 0 0 0 1.9-6.8l.6-2 4.7-15.2h8.6l-11 31a35.5 35.5 0 0 1-5 9.3c-1 1.3-2.4 2.2-3.9 2.9-1.4.7-3.1 1-5 1Zm27.9-.7V60.4h7l.8 4.4h.4c1.1-1.8 2.5-3 4.3-4 1.7-.7 3.6-1.2 5.7-1.2 2.7 0 5 .6 7 1.8 2 1.2 3.5 3.1 4.6 5.6a25 25 0 0 1 1.6 9.8c0 3.8-.6 7-1.6 9.5a12 12 0 0 1-4.6 5.6 12.3 12.3 0 0 1-6.7 1.8c-1.4 0-2.7-.1-3.9-.5a9.5 9.5 0 0 1-5.6-3.8h-.4V104h-8.6Zm15.6-17.3c1.7 0 3-.4 4-1 1-.7 1.8-1.8 2.3-3.1.4-1.4.7-3.1.7-5.2V76c0-2-.3-3.8-.7-5.1a5.5 5.5 0 0 0-2.3-3.1 7 7 0 0 0-4-1c-1.7 0-3 .3-4 1-1 .8-1.8 1.8-2.3 3.3-.5 1.4-.8 3-.8 5v1c0 1.5.2 2.9.5 4 .3 1.2.7 2.2 1.2 3a6 6 0 0 0 2.2 2c.9.4 2 .6 3.2.6Zm35.8 7c-3.6 0-6.6-.6-9.1-1.8a12.4 12.4 0 0 1-5.6-5.6c-1.3-2.6-2-5.8-2-9.6 0-4 .7-7.1 2-9.6 1.2-2.5 3.1-4.4 5.6-5.6a20 20 0 0 1 9-1.9c3.7 0 6.7.7 9.2 1.9 2.4 1.2 4.3 3 5.6 5.6a21 21 0 0 1 2 9.6c0 3.8-.7 7-2 9.6a12.4 12.4 0 0 1-5.6 5.6 20.6 20.6 0 0 1-9.1 1.8Zm0-6.7c1.9 0 3.4-.3 4.5-1s2-1.8 2.5-3.2c.6-1.5.8-3.3.8-5.4V76c0-2-.2-3.8-.8-5.3a6.1 6.1 0 0 0-2.5-3.2 8 8 0 0 0-4.5-1.1c-2 0-3.4.4-4.6 1-1 .8-2 1.9-2.5 3.3-.5 1.5-.8 3.2-.8 5.4v1.4c0 2.1.3 4 .8 5.4a6.2 6.2 0 0 0 2.5 3.2c1.2.7 2.7 1 4.6 1Zm27 17.7c-1.5 0-2.9-.4-4.2-1a7.2 7.2 0 0 1-4.3-6.8 6 6 0 0 1 1.6-4.3c1-1 2.3-2 3.6-2.5-1-.5-1.7-1.2-2.3-2-.6-1-1-2-1-3.1 0-1.6.7-3 1.8-3.9 1.2-1 2.6-1.7 4.1-2-1.5-1-2.7-2.1-3.6-3.6a10 10 0 0 1-1.2-5c0-2.3.6-4.3 1.7-5.9a11 11 0 0 1 5.1-3.7 28.2 28.2 0 0 1 14.1-.5 7.7 7.7 0 0 0 4-5.6h8c0 1.5-.2 2.9-.8 4-.5 1-1.3 2-2.4 2.8-1 .7-2.2 1.2-3.7 1.5 1.1 1 2 2 2.5 3.3.6 1.3.9 2.7.9 4.2 0 2.3-.6 4.3-1.7 6a10.6 10.6 0 0 1-4.8 3.6c-2 .9-4.4 1.3-7.3 1.3h-5c-1 0-1.7.2-2.2.6-.5.3-.7.8-.7 1.5 0 .5.2 1 .6 1.4.4.4 1.2.6 2.2.6h13.5a8.6 8.6 0 0 1 9 8.9c0 2-.5 3.7-1.5 5.3-1 1.5-2.5 2.7-4.3 3.6-1.8.8-3.9 1.3-6.3 1.3H187Zm3.5-5.8h11.5c.8 0 1.4-.2 2-.4a3 3 0 0 0 1.4-1.2c.3-.4.5-1 .5-1.6 0-1-.4-1.9-1-2.4-.7-.5-1.5-.8-2.5-.8h-11.9c-1 0-1.8.3-2.4.9a3 3 0 0 0-1 2.3 3 3 0 0 0 1 2.3c.6.6 1.4.9 2.4.9Zm5.7-23c2 0 3.5-.4 4.6-1.3 1-1 1.6-2.3 1.6-4 0-1.8-.6-3.1-1.6-4-1-1-2.6-1.4-4.6-1.4-2 0-3.5.4-4.6 1.4-1 .9-1.6 2.2-1.6 4 0 1 .3 2 .7 2.9.5.8 1.2 1.4 2 1.8 1 .4 2.1.7 3.5.7ZM218 93V60.4h7.1l.7 5h.5c.4-1 .9-2 1.6-2.8.6-1 1.5-1.7 2.4-2.2 1-.5 2.2-.8 3.5-.8a7 7 0 0 1 2 .2l1.2.4V68h-2.6c-1.3 0-2.4.2-3.4.6-1 .3-1.8.8-2.5 1.6-.6.7-1.1 1.6-1.4 2.7-.3 1-.5 2.3-.5 3.8V93H218Zm30.2.7c-1 0-2.2 0-3.5-.3-1.2-.3-2.3-.7-3.4-1.3-1-.7-2-1.6-2.6-2.8a10 10 0 0 1-1-4.7c0-2.3.5-4.2 1.5-5.7s2.4-2.6 4.2-3.4c1.8-1 4-1.5 6.6-1.8 2.6-.4 5.4-.5 8.5-.5v-2.5c0-1-.2-1.7-.5-2.4s-.8-1.3-1.6-1.7c-.8-.4-1.8-.6-3.2-.6-1.3 0-2.5.1-3.3.5-.8.3-1.4.7-1.8 1.3a3 3 0 0 0-.5 1.6v.8h-8.4V68.9c0-2 .5-3.6 1.7-5 1.1-1.3 2.8-2.4 4.9-3.1 2.1-.8 4.6-1.2 7.4-1.2 3 0 5.5.4 7.5 1.2 2.1.8 3.7 2 4.7 3.5a9.5 9.5 0 0 1 1.7 5.8v14.8c0 .7.2 1.3.6 1.7.5.3 1 .4 1.5.4h2v5.7c-.3.2-1 .4-1.9.6a11.6 11.6 0 0 1-6.3-.2c-1-.3-1.7-.8-2.3-1.4-.7-.7-1-1.4-1.3-2.4h-.5c-.7 1-1.5 1.7-2.6 2.3a12 12 0 0 1-3.5 1.6 17 17 0 0 1-4.6.5Zm3-6.5a7.5 7.5 0 0 0 5.4-2c.5-.5 1-1.3 1.3-2.1a7 7 0 0 0 .6-2.8v-1.8c-2.3 0-4.4.2-6.2.5-1.8.3-3.3.8-4.3 1.5-1 .8-1.6 1.8-1.6 3.1 0 .8.2 1.4.6 2 .3.5.9 1 1.6 1.2.7.3 1.5.4 2.5.4Zm23 16.8V60.4h7l.8 4.4h.4c1.1-1.8 2.5-3 4.3-4 1.7-.7 3.6-1.2 5.7-1.2 2.7 0 5 .6 7 1.8 2 1.2 3.5 3.1 4.5 5.6a25 25 0 0 1 1.7 9.8c0 3.8-.6 7-1.7 9.5a12 12 0 0 1-4.5 5.6 12.3 12.3 0 0 1-6.7 1.8c-1.4 0-2.7-.1-3.9-.5a9.5 9.5 0 0 1-5.6-3.8h-.4V104h-8.6Zm15.6-17.3c1.7 0 3-.4 4-1 1-.7 1.8-1.8 2.3-3.1.4-1.4.7-3.1.7-5.2V76c0-2-.3-3.8-.7-5.1a5.5 5.5 0 0 0-2.3-3.1 7 7 0 0 0-4-1c-1.7 0-3 .3-4 1-1 .8-1.8 1.8-2.3 3.3-.5 1.4-.8 3-.8 5v1c0 1.5.2 2.9.5 4 .3 1.2.7 2.2 1.2 3a6 6 0 0 0 2.2 2c.9.4 2 .6 3.2.6Zm20.7 6.3V48.2h8.7V64h.4a12.6 12.6 0 0 1 9.8-4.3c2.1 0 4 .3 5.6 1.1 1.6.8 2.9 2 3.8 3.7.9 1.7 1.3 4 1.3 6.7V93h-8.6V72.5c0-1-.1-1.9-.4-2.6-.2-.7-.6-1.3-1-1.8-.5-.5-1.1-.8-1.8-1-.7-.2-1.5-.3-2.4-.3a6.6 6.6 0 0 0-5.9 3.4c-.5 1.1-.8 2.4-.8 3.8v19h-8.7Zm40.7 11.7a35.6 35.6 0 0 1-5.8-.8V98h3.8c1 0 2-.2 2.8-.7.8-.5 1.5-1.1 2.2-1.9.6-.7 1-1.5 1.3-2.4l-12.7-32.6h9l5.7 15 .8 2.7a106.7 106.7 0 0 1 1.8 6.3h.3a94.5 94.5 0 0 0 1.8-6.8l.6-2 4.7-15.2h8.7l-11.1 31a35.4 35.4 0 0 1-5 9.3 11.5 11.5 0 0 1-9 4Z" fill="#7E92A8"/><path d="M497.2 98.7c-4.4 0-8.2-.7-11.4-2.3-3.1-1.5-5.5-4-7.2-7.2a28.1 28.1 0 0 1-2.4-12.5c0-7.4 1.8-13 5.5-16.5 3.7-3.7 8.8-5.5 15.5-5.5 3.6 0 6.9.6 9.8 1.9a15.2 15.2 0 0 1 9.3 15H507c0-2-.4-3.7-1.2-5.1-.8-1.4-2-2.4-3.4-3.1a11 11 0 0 0-5.1-1.1c-2.6 0-4.8.5-6.6 1.5-1.7 1-3 2.6-3.8 4.6a20 20 0 0 0-1.1 7.3v2c0 3 .4 5.4 1.2 7.5.8 2 2 3.5 3.7 4.5 1.7 1 3.9 1.5 6.5 1.5 2.1 0 3.9-.4 5.4-1a7.8 7.8 0 0 0 3.6-3.2c.8-1.3 1.2-3 1.2-5h9c0 3.8-.9 6.9-2.5 9.4a14.8 14.8 0 0 1-6.8 5.5 25.7 25.7 0 0 1-10 1.8Zm39.3 0c-3.5 0-6.6-.6-9-1.8a12.4 12.4 0 0 1-5.7-5.6c-1.3-2.6-2-5.8-2-9.6 0-4 .7-7.1 2-9.6s3.2-4.4 5.7-5.6a20 20 0 0 1 9-1.9c3.6 0 6.7.7 9.1 1.9 2.5 1.2 4.4 3 5.7 5.6a21 21 0 0 1 1.9 9.6c0 3.8-.7 7-2 9.6a12.4 12.4 0 0 1-5.6 5.6 20.6 20.6 0 0 1-9 1.8Zm0-6.7c2 0 3.4-.3 4.5-1 1.2-.7 2-1.8 2.6-3.2.5-1.5.8-3.3.8-5.4V81c0-2-.3-3.8-.8-5.3a6.1 6.1 0 0 0-2.6-3.2 8 8 0 0 0-4.5-1.1c-1.9 0-3.4.4-4.5 1-1.1.8-2 1.9-2.5 3.3-.5 1.5-.8 3.2-.8 5.4v1.4c0 2.1.3 4 .8 5.4A6.2 6.2 0 0 0 532 91c1.1.7 2.6 1 4.5 1Zm21.7 6V53.2h8.6V98h-8.6Zm30.1.7c-3.5 0-6.5-.6-9-1.8a12.4 12.4 0 0 1-5.7-5.6c-1.2-2.6-1.9-5.8-1.9-9.6 0-4 .7-7.1 2-9.6 1.2-2.5 3.1-4.4 5.6-5.6a20 20 0 0 1 9-1.9c3.7 0 6.7.7 9.1 1.9 2.5 1.2 4.4 3 5.7 5.6a21 21 0 0 1 2 9.6c0 3.8-.7 7-2 9.6a12.4 12.4 0 0 1-5.7 5.6 20.6 20.6 0 0 1-9 1.8Zm0-6.7c2 0 3.4-.3 4.6-1 1.1-.7 2-1.8 2.5-3.2.5-1.5.8-3.3.8-5.4V81c0-2-.3-3.8-.8-5.3a6.1 6.1 0 0 0-2.5-3.2 8 8 0 0 0-4.6-1.1c-1.8 0-3.3.4-4.5 1-1.1.8-2 1.9-2.5 3.3-.5 1.5-.8 3.2-.8 5.4v1.4c0 2.1.3 4 .8 5.4a6.2 6.2 0 0 0 2.5 3.2c1.2.7 2.7 1 4.5 1Zm21.7 6V65.4h7.1l.7 5h.4c.4-1 1-2 1.6-2.8a7.2 7.2 0 0 1 6-3 7 7 0 0 1 2 .2l1.2.4V73h-2.6c-1.3 0-2.5.2-3.5.6-1 .3-1.7.8-2.4 1.6-.6.7-1.1 1.6-1.5 2.7-.3 1-.4 2.3-.4 3.8V98H610ZM280 563v-42.5h9.3V555h21.5v7.9H280Zm49.6.7c-3.5 0-6.6-.6-9-1.8a12.4 12.4 0 0 1-5.7-5.6c-1.3-2.6-1.9-5.8-1.9-9.6 0-4 .6-7.1 2-9.6 1.2-2.5 3-4.4 5.6-5.6a20 20 0 0 1 9-1.9c3.7 0 6.7.7 9.1 1.9 2.5 1.2 4.4 3 5.7 5.6a21 21 0 0 1 1.9 9.6c0 3.8-.6 7-2 9.6a12.4 12.4 0 0 1-5.6 5.6 20.6 20.6 0 0 1-9 1.8Zm0-6.7c2 0 3.4-.3 4.5-1 1.2-.7 2-1.8 2.6-3.2.5-1.5.8-3.3.8-5.4V546c0-2.2-.3-4-.8-5.4a6.1 6.1 0 0 0-2.6-3.2 8 8 0 0 0-4.5-1.1c-1.8 0-3.4.4-4.5 1-1.1.8-2 1.9-2.5 3.3-.5 1.5-.8 3.2-.8 5.4v1.4c0 2.1.3 4 .8 5.4a6.2 6.2 0 0 0 2.5 3.2c1.1.7 2.7 1 4.5 1Zm27 17.7c-1.4 0-2.8-.4-4-1a7.2 7.2 0 0 1-4.3-6.8 6 6 0 0 1 1.5-4.3c1-1 2.3-2 3.6-2.5-1-.5-1.8-1.2-2.4-2-.6-1-.8-2-.8-3.1 0-1.6.5-3 1.7-3.9 1.2-1 2.6-1.7 4-2-1.4-1-2.6-2.1-3.5-3.6a10 10 0 0 1-1.3-5c0-2.3.6-4.3 1.8-5.9a11 11 0 0 1 5-3.7 28.2 28.2 0 0 1 14.1-.5 7.7 7.7 0 0 0 4.1-5.6h8c0 1.5-.3 2.9-.8 4-.6 1-1.4 2-2.4 2.8-1 .7-2.3 1.2-3.7 1.5 1 1 1.9 2 2.5 3.3.5 1.3.8 2.7.8 4.2 0 2.3-.5 4.3-1.6 6a10.6 10.6 0 0 1-4.8 3.6c-2 .9-4.5 1.3-7.3 1.3h-5c-1 0-1.7.2-2.2.6-.5.3-.8.8-.8 1.5 0 .5.2 1 .7 1.4.4.4 1.1.6 2.1.6h13.6a8.6 8.6 0 0 1 9 8.9c0 2-.5 3.7-1.6 5.3-1 1.5-2.4 2.7-4.2 3.6-1.9.8-4 1.3-6.3 1.3h-15.5Zm3.6-5.8h11.5c.7 0 1.4-.2 2-.4a3 3 0 0 0 1.8-2.8c0-1-.3-1.9-1-2.4-.6-.5-1.5-.8-2.5-.8h-11.8c-1 0-1.8.3-2.5.9a3 3 0 0 0-1 2.3 3 3 0 0 0 1 2.3c.7.6 1.5.9 2.5.9Zm5.6-23c2 0 3.6-.4 4.6-1.3 1.1-1 1.6-2.3 1.6-4 0-1.8-.5-3.1-1.6-4-1-1-2.5-1.4-4.6-1.4-2 0-3.5.4-4.5 1.4-1 .9-1.6 2.2-1.6 4 0 1 .2 2 .7 2.9.4.8 1.1 1.4 2 1.8 1 .4 2 .7 3.4.7Zm36.8 17.8c-3.6 0-6.6-.6-9-1.8a12.4 12.4 0 0 1-5.7-5.6c-1.3-2.6-2-5.8-2-9.6 0-4 .7-7.1 2-9.6s3.1-4.4 5.6-5.6a20 20 0 0 1 9-1.9c3.7 0 6.7.7 9.2 1.9 2.5 1.2 4.3 3 5.6 5.6a21 21 0 0 1 2 9.6c0 3.8-.7 7-2 9.6a12.4 12.4 0 0 1-5.6 5.6 20.6 20.6 0 0 1-9.1 1.8Zm0-6.7c1.9 0 3.4-.3 4.5-1 1.2-.7 2-1.8 2.5-3.2.6-1.5.8-3.3.8-5.4V546c0-2.2-.2-4-.8-5.4a6.1 6.1 0 0 0-2.5-3.2 8 8 0 0 0-4.5-1.1c-1.9 0-3.4.4-4.6 1-1 .8-1.9 1.9-2.4 3.3-.6 1.5-.8 3.2-.8 5.4v1.4c0 2.1.2 4 .8 5.4a6.2 6.2 0 0 0 2.4 3.2c1.2.7 2.7 1 4.6 1Z" fill="#000"/><circle cx="476" cy="216" r="39" fill="#181818"/><circle cx="476" cy="306" r="39" fill="#ABCDF5"/><circle cx="476" cy="396" r="39" fill="#7E92A8"/><path d="M70.9 188v-33h8.6v12.7h13.4V155h8.6v33h-8.6v-13.3H79.5V188h-8.6Zm48.5.6c-3 0-5.4-.5-7.4-1.4-2-1-3.5-2.4-4.6-4.4-1-2-1.6-4.4-1.6-7.5 0-3 .5-5.4 1.6-7.4 1-2 2.5-3.4 4.5-4.3 2-1 4.4-1.5 7.2-1.5 2.7 0 5 .5 7 1.4 1.9 1 3.3 2.4 4.3 4.3 1 2 1.5 4.4 1.5 7.4v1.7h-18.1a9 9 0 0 0 .5 3.4c.4 1 1 1.7 1.8 2.1.8.5 1.9.8 3.2.8a7 7 0 0 0 2.1-.3 4 4 0 0 0 2.8-3.9h7.7c0 1.5-.3 2.9-.9 4.1a8 8 0 0 1-2.4 3c-1.1.8-2.4 1.4-4 1.9a20 20 0 0 1-5.2.6Zm-5.6-16h10c0-.9 0-1.6-.3-2.2a3.7 3.7 0 0 0-2.3-2.5 5 5 0 0 0-2-.3c-1 0-2 .1-2.8.5-.8.4-1.4 1-1.8 1.7-.4.7-.7 1.7-.8 2.7Zm29 16c-1.1 0-2.2-.1-3.2-.4-1-.2-2-.5-2.7-1a5.9 5.9 0 0 1-2-2.2c-.4-1-.7-2.1-.7-3.5 0-1.9.4-3.3 1.2-4.5.7-1.1 1.8-2 3.3-2.7 1.4-.7 3.2-1.1 5.3-1.4 2-.2 4.4-.4 7-.4V171c0-.8-.2-1.4-.5-1.9s-.7-.9-1.3-1.1c-.6-.3-1.3-.4-2.2-.4-.9 0-1.6 0-2.2.2-.6.2-1.1.5-1.4.9-.3.4-.5.8-.5 1.3v.4h-7.7v-.8a6 6 0 0 1 1.4-4c1-1 2.3-2 4-2.6 1.8-.6 4-.9 6.4-.9 2.4 0 4.4.3 6.1.9 1.8.6 3.2 1.4 4.2 2.6 1 1.2 1.5 2.8 1.5 4.7V181c0 .5.1 1 .4 1.3.3.3.7.5 1.2.5h1.6v4.8c-.3.2-1 .3-1.7.5-.7.3-1.6.4-2.7.4-1 0-2-.2-2.8-.5-.8-.2-1.5-.6-2-1a4 4 0 0 1-1.1-1.8h-.4a10.7 10.7 0 0 1-5 2.8c-1 .3-2.2.5-3.6.5Zm2.8-5.4c.8 0 1.5-.2 2.1-.4a5 5 0 0 0 1.7-.9c.5-.4.8-1 1-1.5.4-.6.5-1.2.5-1.9V177a25 25 0 0 0-4.7.3c-1.3.3-2.3.7-3 1.2-.7.6-1 1.3-1 2.1 0 .6 0 1.1.4 1.5.3.4.7.7 1.2 1l1.8.2Zm27.8 5.4c-2.2 0-4-.5-5.6-1.5a9.1 9.1 0 0 1-3.6-4.3c-.8-2-1.2-4.5-1.2-7.5s.4-5.4 1.2-7.4c.9-2 2-3.4 3.6-4.3a10 10 0 0 1 5.4-1.5c1 0 2 .1 2.9.4a7.4 7.4 0 0 1 4.3 2.8h.3v-12h7.9V188H182l-.5-3.5h-.4c-.8 1.4-2 2.4-3.3 3a10 10 0 0 1-4.5 1Zm2.4-6.2c1.2 0 2.1-.2 2.8-.7.8-.6 1.3-1.3 1.6-2.3.4-1 .5-2.1.5-3.4v-1.2c0-1 0-1.8-.3-2.6-.1-.8-.4-1.5-.8-2.1a4 4 0 0 0-1.6-1.3c-.6-.4-1.3-.5-2.2-.5-1.1 0-2.1.2-2.8.7a4 4 0 0 0-1.6 2.1c-.3 1-.5 2-.5 3.5v1.6c0 1.4.2 2.5.5 3.4a4 4 0 0 0 1.6 2.2c.7.4 1.7.6 2.8.6Zm17.7-23.1v-6h7.9v6h-8Zm0 28.7v-25.3h7.9V188h-8Zm12.8 0v-25.3h6.4l.6 3.6h.4c.6-.9 1.3-1.6 2.2-2.3.8-.6 1.7-1 2.8-1.4a11.5 11.5 0 0 1 8 .5c1.2.7 2.2 1.7 2.9 3 .7 1.4 1 3.1 1 5.2V188h-7.9v-15.6a4.8 4.8 0 0 0-1-3c-.3-.4-.7-.7-1.2-.8a5.1 5.1 0 0 0-4 .4c-.8.4-1.3 1-1.7 1.7-.5.7-.7 1.6-.7 2.5V188h-7.8Zm33.2 9.5a6.8 6.8 0 0 1-5.6-3c-.6-.8-.9-1.9-.9-3a5 5 0 0 1 1.2-3.5c.9-.9 1.8-1.6 2.8-2-.7-.5-1.3-1-1.8-1.8-.4-.7-.7-1.5-.7-2.4 0-1.3.5-2.3 1.4-3.2a7 7 0 0 1 3.3-1.7 9.6 9.6 0 0 1-2.8-2.8c-.7-1-1.1-2.3-1.1-3.6 0-2 .5-3.6 1.5-4.8 1-1.2 2.5-2 4.4-2.7a19.7 19.7 0 0 1 8.7-.7c.8 0 1.4.1 2 .3a7.3 7.3 0 0 0 2.7-2.4 5 5 0 0 0 .8-2h6.8c0 1.3-.2 2.4-.6 3.3-.5.8-1.1 1.5-2 2-.8.6-1.8 1-3 1.3a7.4 7.4 0 0 1 2.8 5.7 7.5 7.5 0 0 1-5.1 7.4c-1.6.6-3.5 1-5.6 1H245c-.9 0-1.6 0-2 .4-.4.2-.6.6-.6 1s.1.8.5 1.1c.4.3 1 .5 2 .5h9.7c2.5 0 4.4.7 5.7 2 1.3 1.4 2 3.2 2 5.3a7 7 0 0 1-1.4 4.3 8.7 8.7 0 0 1-3.6 2.9c-1.4.7-3 1-5 1h-12.8Zm3.8-4.8h8.3c.5 0 1-.2 1.4-.4l1-.8c.2-.4.4-.8.4-1.3 0-.8-.3-1.4-.8-1.8-.5-.4-1.1-.6-1.9-.6h-8.4c-.8 0-1.4.2-1.9.6-.5.4-.7 1-.7 1.8 0 .7.2 1.3.7 1.7.5.5 1.1.8 1.9.8Zm4-18.5c1.4 0 2.5-.3 3.2-1 .8-.6 1.2-1.5 1.2-2.7 0-1.3-.4-2.2-1.2-2.8-.7-.6-1.8-1-3.2-1-1.3 0-2.3.4-3 1-.8.6-1.2 1.5-1.2 2.8 0 .8.1 1.5.5 2 .3.6.8 1 1.4 1.3.6.3 1.4.4 2.3.4Zm25.8 14.3 1.8-8.3h-4.1v-5h5.2l1.4-6.1H273V164h5.4l2-9.6h5.5l-2.2 9.6h5.6l2-9.6h5.4l-2.1 9.6h4v5h-5l-1.3 6.2h4.5v5h-5.6l-1.8 8.3H284l1.8-8.3h-5.7l-1.7 8.3h-5.4Zm8.2-13.3h5.7l1.3-6.1h-5.7l-1.3 6Zm22.3 12.8v-6.2h7.8v-17.6h-7.9v-4.7a38 38 0 0 0 12.7-4.6h3.1v27h7.5v6.1h-23.2ZM161 260v-7h-15.3v-6.1a67 67 0 0 0 6.5-12.9c1-2.4 1.8-5 2.5-7.6h8a50.5 50.5 0 0 1-6 13.6 78.4 78.4 0 0 1-5 7h9.3v-7.6a42 42 0 0 0 4.1-9h3.6v16.5h4.3v6h-4.3v7.1H161Zm27.3.6c-2.8 0-5.1-.4-7-1.2a8.7 8.7 0 0 1-5.9-8.4c0-2 .4-3.5 1.3-4.7 1-1.3 2.3-2.3 4-3.1-1.6-1-2.7-2.2-3.3-3.4a8 8 0 0 1-1-3.9c0-2 .5-3.6 1.5-5s2.4-2.5 4.2-3.3c1.7-.8 3.8-1.2 6.2-1.2 2.4 0 4.5.4 6.3 1.2 1.8.8 3.2 1.9 4.2 3.3s1.5 3 1.5 5a8 8 0 0 1-1 4 9.9 9.9 0 0 1-3.3 3.3c1.8.8 3 1.8 4 3 .9 1.3 1.3 2.8 1.3 4.7 0 2-.5 3.7-1.5 5.1a9.6 9.6 0 0 1-4.4 3.4c-1.9.8-4.2 1.2-7 1.2Zm0-5.7c1.6 0 2.8-.4 3.7-1.2 1-.8 1.4-1.9 1.4-3.3 0-1.5-.5-2.6-1.4-3.3-1-.8-2.2-1.2-3.7-1.2-1.4 0-2.6.4-3.6 1.2-.9.7-1.4 1.8-1.4 3.3 0 1.4.5 2.5 1.4 3.3.9.8 2.1 1.2 3.6 1.2Zm0-14.5c1.4 0 2.5-.3 3.4-1 1-.7 1.4-1.7 1.4-3.1 0-1.4-.5-2.4-1.3-3.1-1-.7-2-1-3.5-1-1.4 0-2.5.3-3.4 1-.8.7-1.2 1.7-1.2 3 0 1.5.4 2.5 1.3 3.2.8.7 2 1 3.3 1Zm17 28.5v-34.2h6.5l.6 3.5h.4c.8-1.4 2-2.5 3.2-3.1 1.4-.7 2.9-1 4.5-1 2.1 0 4 .5 5.5 1.5 1.6 1 2.8 2.4 3.6 4.3.9 2 1.3 4.5 1.3 7.5s-.4 5.4-1.3 7.4c-.8 2-2 3.4-3.5 4.3a10 10 0 0 1-5.5 1.5c-1 0-2-.1-2.8-.4a7.4 7.4 0 0 1-4.3-2.8h-.3V269h-7.9Zm12.8-14.5a5 5 0 0 0 2.8-.7 4 4 0 0 0 1.6-2.1c.3-1 .5-2 .5-3.4v-1.7c0-1.3-.2-2.5-.5-3.4-.3-1-.9-1.7-1.6-2.1a5 5 0 0 0-2.8-.7c-1.2 0-2.1.2-2.9.8-.7.5-1.2 1.3-1.6 2.2-.3 1-.4 2.1-.4 3.5v1.1c0 1 0 1.8.2 2.6s.5 1.5.9 2.1c.4.6.9 1 1.5 1.4a5 5 0 0 0 2.3.4Zm12.3 5.6 9.4-13.2-8.6-12.1h9.3l4.5 7.2h.2l4.5-7.2h8.8l-8.7 12.1 9.2 13.2H250l-5.2-8.3h-.2l-5.2 8.3h-8.8ZM121.8 322v-22h4.8v8.8h9.7V300h4.8v22h-4.8v-9.2h-9.7v9.2h-4.8Zm30.7.4c-1.9 0-3.4-.3-4.7-1a6.3 6.3 0 0 1-2.8-2.9c-.7-1.3-1-3-1-5s.3-3.6 1-4.9a6.2 6.2 0 0 1 2.8-2.9 10 10 0 0 1 4.6-1c1.7 0 3.1.4 4.3 1 1.2.6 2 1.5 2.7 2.8.6 1.3.9 3 .9 5v1h-11.8c0 1 .2 1.9.5 2.6.2.7.7 1.2 1.2 1.5.6.3 1.3.5 2.3.5.5 0 1 0 1.4-.2a2.7 2.7 0 0 0 1.8-1.5l.2-1.4h4.4c0 1.1-.2 2-.6 2.8-.4.8-1 1.5-1.6 2-.7.5-1.5 1-2.5 1.2-1 .3-2 .4-3.1.4Zm-4-10.6h7.2c0-.7-.1-1.2-.3-1.7a3 3 0 0 0-.6-1.2c-.3-.3-.6-.5-1-.6l-1.3-.2c-.9 0-1.5.1-2 .4-.6.3-1 .7-1.3 1.2-.3.5-.5 1.2-.6 2Zm18.8 10.6c-.6 0-1.2 0-1.8-.2-.6-.1-1.2-.4-1.8-.7a4 4 0 0 1-1.4-1.4c-.3-.7-.5-1.5-.5-2.5 0-1.1.3-2.1.8-2.9a5 5 0 0 1 2.2-1.8c1-.4 2-.7 3.4-.9 1.3-.2 2.8-.2 4.4-.2v-1.3c0-.5-.1-.9-.3-1.3-.1-.3-.4-.6-.8-.8-.4-.2-1-.4-1.6-.4a5 5 0 0 0-1.8.3 2 2 0 0 0-.9.7c-.2.2-.2.5-.2.8v.4h-4.4v-.6c0-1 .3-1.9.9-2.6.6-.7 1.4-1.3 2.5-1.6 1.1-.4 2.4-.6 3.8-.6 1.6 0 2.9.2 4 .6a5 5 0 0 1 2.4 1.8c.5.8.8 1.8.8 3v7.6c0 .4.1.7.4.9l.7.2h1v3a5 5 0 0 1-1 .3 6 6 0 0 1-3.2-.1c-.5-.2-.9-.5-1.2-.8-.3-.3-.5-.7-.7-1.2h-.2c-.4.5-.8.9-1.3 1.2l-1.9.8c-.6.2-1.4.3-2.3.3Zm1.5-3.4c.6 0 1.1 0 1.6-.2l1.2-.8.7-1.1.3-1.5v-.9a18 18 0 0 0-3.2.3c-1 .1-1.7.4-2.3.8-.5.4-.8.9-.8 1.6 0 .4.1.7.3 1 .2.2.5.5.9.6l1.3.2Zm17.8 3.4c-1.4 0-2.6-.3-3.6-1-1-.6-1.8-1.6-2.3-2.9-.6-1.3-.8-3-.8-5s.2-3.6.8-5a6.3 6.3 0 0 1 2.3-2.8c1-.6 2.2-1 3.5-1 .7 0 1.4.2 2 .3.6.2 1.2.4 1.7.8.4.3.9.7 1.2 1.2h.2V299h4.4V322h-3.6l-.4-2.3h-.2c-.5 1-1.3 1.6-2.2 2a7 7 0 0 1-3 .7Zm1.4-3.7c.9 0 1.5-.2 2-.5.6-.4 1-1 1.2-1.7.3-.7.4-1.6.4-2.6v-.6c0-.7 0-1.4-.2-2-.1-.6-.3-1.2-.6-1.6-.3-.4-.7-.7-1.2-1-.4-.2-1-.3-1.6-.3-.9 0-1.6.2-2.1.6-.5.3-1 .9-1.2 1.6-.2.7-.3 1.6-.3 2.6v.8c0 1 .1 2 .3 2.6a3 3 0 0 0 1.2 1.6 4 4 0 0 0 2.1.5Zm11.4-16v-3.8h4.5v3.8h-4.5Zm0 19.3v-16.8h4.5V322h-4.5Zm7.9 0v-16.8h3.7l.3 2.3h.2c.4-.6.9-1 1.4-1.5a7.5 7.5 0 0 1 7-.6c.8.4 1.5 1 2 2 .4.8.6 2 .6 3.3V322h-4.4v-10.6c0-.5 0-1-.2-1.3-.1-.4-.3-.7-.6-1a2 2 0 0 0-.9-.5l-1.2-.1a3.4 3.4 0 0 0-3 1.8 4 4 0 0 0-.5 1.9v9.8h-4.4Zm21.3 6c-.8 0-1.5-.1-2.1-.5-.7-.3-1.2-.7-1.6-1.3-.4-.6-.6-1.3-.6-2.2 0-.9.2-1.6.8-2.2.5-.6 1.1-1 1.8-1.3-.5-.2-.9-.6-1.2-1-.3-.5-.5-1-.5-1.6 0-.9.3-1.5 1-2 .6-.6 1.3-1 2-1a5.5 5.5 0 0 1-1.8-2c-.4-.7-.6-1.5-.6-2.5 0-1.2.3-2.2.9-3 .6-.9 1.4-1.5 2.6-2a14.5 14.5 0 0 1 7.3-.3 4 4 0 0 0 2-2.8h4.2c0 .8-.2 1.5-.5 2-.2.6-.7 1-1.2 1.5l-1.9.8c.6.4 1 1 1.3 1.7.3.6.4 1.3.4 2.1 0 1.2-.3 2.2-.8 3-.6 1-1.4 1.6-2.5 2-1 .5-2.3.7-3.8.7h-2.5c-.6 0-1 0-1.2.3-.2.1-.4.4-.4.7 0 .3.1.6.3.8.3.2.7.3 1.2.3h7a4.4 4.4 0 0 1 4.6 4.6c0 1-.3 1.9-.8 2.7-.5.8-1.3 1.4-2.2 1.8-1 .5-2 .7-3.2.7h-8Zm1.8-3h6c.3 0 .7 0 1-.2.3-.1.5-.3.7-.6l.2-.8c0-.5-.1-1-.5-1.2a2 2 0 0 0-1.3-.5h-6c-.6 0-1 .2-1.4.5-.3.3-.4.7-.4 1.2s.1.9.4 1.2c.4.3.8.4 1.3.4Zm3-11.8c1 0 1.8-.2 2.3-.7.6-.5.8-1.2.8-2 0-1-.2-1.7-.8-2.1-.5-.5-1.3-.8-2.4-.8-1 0-1.8.3-2.3.8-.6.4-.8 1.1-.8 2 0 .6 0 1 .3 1.5.3.4.6.8 1 1 .5.2 1.1.3 1.8.3Zm16.7 9.2 1.1-5.7h-2.4v-3.2h3.1l1-4.2h-2.6v-3.2h3.2l1.4-6.4h3.3L257 306h3.7l1.4-6.4h3.4L264 306h2.5v3.2h-3.2l-.8 4.2h2.6v3.2h-3.3l-1.2 5.7h-3.4l1.2-5.7h-3.8l-1.2 5.7h-3.3Zm5.2-9h3.8l.9-4.1H256l-.8 4.2Zm12.9 8.6v-1.2c0-1 .2-1.8.5-2.6a8 8 0 0 1 1.4-2.2l2-1.8 2.2-1.8c1-.6 1.7-1.3 2.5-2 .8-.6 1.4-1.2 2-2 .4-.7.7-1.5.7-2.4 0-.5-.1-.9-.4-1.3-.2-.4-.5-.8-1-1-.4-.4-1-.5-1.8-.5a4 4 0 0 0-2 .4c-.5.3-.9.6-1.1 1.1-.3.5-.4 1-.4 1.8v1.1h-4.3a6 6 0 0 1-.1-1.1c0-1.6.3-2.9 1-3.9.8-1 1.7-1.7 3-2.2a11.3 11.3 0 0 1 7.7-.1 5.9 5.9 0 0 1 3.5 3.7 6.7 6.7 0 0 1-.2 4.9c-.3.8-.8 1.6-1.4 2.3l-2.3 2.1a60 60 0 0 1-5.2 4 4 4 0 0 0-.7.8h10.3v3.9h-15.9Zm-92.5 48.4c-1.8 0-3.3-.3-4.6-.8a6.2 6.2 0 0 1-2.7-2.4c-.6-1-1-2-1-3.3v-.6h4.4v.6c0 1 .3 1.7 1 2.2.6.6 1.5.8 2.7.8a4 4 0 0 0 2.7-.8c.6-.5 1-1.3 1-2.4 0-.9-.3-1.5-.6-2-.3-.4-.8-.7-1.3-1l-1.8-.2h-2v-3.4h2c.6 0 1 0 1.6-.3.5-.2.8-.6 1.1-1 .3-.5.5-1 .5-1.7a3 3 0 0 0-.5-1.7c-.2-.4-.6-.7-1-1a4 4 0 0 0-1.7-.3c-.6 0-1.2.1-1.7.3-.5.3-.9.6-1.2 1-.2.4-.4 1-.4 1.6v.5H168v-.8c0-1.2.3-2.3.9-3.2.6-.9 1.5-1.6 2.7-2 1.1-.6 2.5-.8 4-.8s2.8.2 4 .7a5.4 5.4 0 0 1 3.6 5.3c0 .8-.2 1.5-.5 2.2-.3.6-.7 1.1-1.2 1.6-.5.4-1.1.8-1.8 1v.2c1.2.3 2.1 1 2.8 1.9.8.9 1.2 2 1.2 3.5 0 1.3-.4 2.4-1 3.3-.7 1-1.6 1.7-2.8 2.2-1.2.5-2.6.8-4.2.8Zm10.3-.4v-1.2a8 8 0 0 1 2-4.8l2-1.8 2.2-1.8 2.5-2c.7-.6 1.4-1.2 1.9-2 .5-.7.7-1.5.7-2.4 0-.5-.1-.9-.3-1.3-.2-.4-.6-.8-1-1-.5-.4-1-.5-1.9-.5a4 4 0 0 0-2 .4c-.4.3-.8.6-1 1.1-.3.5-.5 1-.5 1.8v1.1h-4.3a6 6 0 0 1 0-1.1c0-1.6.3-2.9 1-3.9s1.7-1.7 3-2.2a11.3 11.3 0 0 1 7.6-.1 5.9 5.9 0 0 1 3.5 3.7 6.7 6.7 0 0 1-.1 4.9c-.4.8-.9 1.6-1.5 2.3a60 60 0 0 1-7.5 6 4 4 0 0 0-.7.9H202v3.9h-16Zm18.8 5.7v-22.5h3.7l.4 2.2h.2a5 5 0 0 1 2.2-2c.8-.4 1.8-.6 3-.6 1.3 0 2.5.3 3.5 1 1 .5 1.8 1.5 2.4 2.8.5 1.3.8 3 .8 5s-.3 3.6-.8 5a6.2 6.2 0 0 1-2.4 2.9c-1 .6-2 .9-3.4.9-.7 0-1.4-.1-2-.3a4.9 4.9 0 0 1-3-2h-.1v7.6h-4.5Zm8-9c1 0 1.7-.1 2.2-.5a3 3 0 0 0 1.1-1.6c.3-.7.4-1.6.4-2.6v-.8c0-1-.1-2-.4-2.6-.2-.7-.6-1.3-1.1-1.6-.5-.4-1.3-.6-2.1-.6-.9 0-1.6.2-2 .6-.6.4-1 1-1.3 1.7a8 8 0 0 0-.4 2.6v.5c0 .8.1 1.5.3 2 .1.7.3 1.2.6 1.6.3.5.7.8 1.1 1 .5.2 1 .3 1.7.3Zm8.1 3.3 6.1-8.7-5.6-8.1h5.3l3.2 5h.2l3.2-5h5l-5.7 8 6 8.8h-5.2l-3.6-5.7h-.2l-3.7 5.7h-5ZM93.3 431v-16.5h6.2c.9 0 1.6.2 2.2.5a3.8 3.8 0 0 1 2 3.6 4 4 0 0 1-2.4 3.8 4.3 4.3 0 0 1 2.9 4.2c0 1-.2 1.8-.7 2.4-.4.6-1 1.1-1.7 1.5-.6.3-1.4.5-2.3.5h-6.2Zm2.1-2h3.9c.7 0 1.4-.2 1.9-.6.5-.5.8-1.2.8-2s-.3-1.5-.8-2c-.5-.6-1.2-.9-2-.9h-3.8v5.6Zm0-7.4H99c.8 0 1.5-.2 2-.8.4-.5.7-1 .7-1.8s-.2-1.5-.7-1.9c-.5-.4-1-.6-1.8-.6h-3.7v5.1Zm16.6 9.7c-1.5 0-2.6-.5-3.4-1.6-.8-1-1.1-2.7-1.1-5s.3-4 1.1-5 1.9-1.6 3.4-1.6c1.4 0 2.6.5 3.3 1.6.8 1 1.2 2.7 1.2 5s-.4 4-1.2 5c-.7 1-1.9 1.6-3.3 1.6Zm0-1.8a2 2 0 0 0 1.8-1c.4-.8.6-1.9.6-3.4v-.9c0-1.4-.2-2.5-.6-3.3a2 2 0 0 0-1.8-1 2 2 0 0 0-1.9 1 7 7 0 0 0-.6 3.3v1a7 7 0 0 0 .6 3.2 2 2 0 0 0 1.9 1.1Zm12 1.8c-1.3 0-2.2-.5-3-1.6-.6-1-1-2.7-1-5 0-1.6.2-2.8.5-3.8.4-1 .8-1.7 1.4-2.1a3 3 0 0 1 2-.7c.5 0 1 .1 1.5.4.5.3.9.6 1 1h.2v-5.9h2V431H127l-.3-1.5c-.4.6-.8 1-1.3 1.4a3 3 0 0 1-1.6.4Zm.4-1.8c.7 0 1.3-.3 1.6-1 .4-.8.6-1.9.6-3.4v-.8c0-1.5-.2-2.6-.6-3.3-.3-.8-.9-1.2-1.6-1.2-.8 0-1.4.4-1.7 1-.4.7-.6 1.9-.6 3.4v1c0 1.5.2 2.6.6 3.3.3.7 1 1 1.7 1Zm9.6 5.9a5.8 5.8 0 0 1-1.4-.2v-1.4h.7c.5 0 1-.2 1.4-.6.5-.4.8-1.1 1-2.2l-3.8-12.6h2.2l2 7.5.2.6.2.5.2.6.1.6h.1l.2-.6.1-.6.1-.6.2-.5 1.8-7.5h2l-3.2 12-1 2.4c-.3.8-.7 1.4-1.2 1.9-.6.4-1.2.7-2 .7Zm16.5-9.7v-2.4h6v2.4h-6Zm14 5.3 5.1-16.5h2.8l5.2 16.5h-2.3l-1.1-3.7h-6.6l-1 3.7h-2.2Zm3.7-5.6h5.4l-2.3-7.3a29 29 0 0 1-.3-1.8h-.1l-.1.3a10.3 10.3 0 0 1-.3 1.5l-2.3 7.3Zm12.4 5.6v-12.6h1.5l.3 1.6h.1c.2-.4.4-.9.8-1.3.3-.4.8-.6 1.4-.6a2 2 0 0 1 .9.2v2h-.7c-.4 0-.8.1-1.1.3a2 2 0 0 0-.9 1c-.2.4-.3 1-.3 1.7v7.7h-2Zm12 .3c-1.5 0-2.6-.5-3.3-1.6-.7-1-1-2.7-1-5s.3-4 1-5 1.8-1.6 3.3-1.6c1.3 0 2.3.4 3 1.3.5.8.8 2 .8 3.7h-2c0-1.1-.1-2-.4-2.5-.2-.5-.7-.8-1.4-.8-.8 0-1.4.4-1.8 1.1a8 8 0 0 0-.5 3.3v1a8 8 0 0 0 .5 3.2c.4.8 1 1.1 1.8 1.1.7 0 1.2-.2 1.5-.8.2-.5.4-1.3.4-2.4h2c0 .9-.2 1.7-.5 2.5a3.4 3.4 0 0 1-3.5 2.5Zm7.7-.3v-17.4h2v6.1h.1c.3-.6.7-1 1.2-1.2.5-.3 1-.4 1.6-.4 1 0 1.7.3 2.3.9.6.5.9 1.5.9 2.9v9.1h-2v-9c0-.8-.2-1.4-.5-1.7-.3-.3-.8-.5-1.3-.5-.6 0-1.2.3-1.6 1-.5.6-.7 1.4-.7 2.5v7.7h-2Zm12.9 0v-12.6h2V431h-2Zm0-15v-2.4h2v2.3h-2Zm9.2 15-3.6-12.6h2.1l1.7 6.4a11.4 11.4 0 0 1 .5 1.6l.2.8.2.8a15.4 15.4 0 0 0 .5-1.7 15.4 15.4 0 0 0 .5-1.6l1.7-6.3h2l-3.7 12.6h-2.1Zm13 .3c-1.4 0-2.5-.5-3.3-1.6-.8-1-1.1-2.7-1.1-5s.3-4 1.1-5 2-1.6 3.4-1.6 2.6.5 3.3 1.6c.8 1 1.2 2.7 1.2 5s-.4 4-1.2 5c-.7 1-1.9 1.6-3.3 1.6Zm0-1.8a2 2 0 0 0 1.9-1c.4-.8.6-1.9.6-3.4v-.9c0-1.4-.2-2.5-.6-3.3a2 2 0 0 0-1.8-1 2 2 0 0 0-1.9 1 7 7 0 0 0-.6 3.3v1a7 7 0 0 0 .6 3.2 2 2 0 0 0 1.9 1.1Zm16 1.5v-16.5h1.8l6.1 10.4.4.8.4 1 .2.4v-.5a21.3 21.3 0 0 0 0-1.7v-10.4h1.9V431h-1.7l-6.2-10.5a134 134 0 0 1-.9-1.8l-.2-.4v.4a71.2 71.2 0 0 1 0 1.8V431h-1.8Zm18.2.3a4.3 4.3 0 0 1-2.1-.6 3 3 0 0 1-.8-1.1c-.3-.5-.4-1.1-.4-1.9 0-1.1.3-2 .8-2.6.6-.6 1.4-1 2.3-1.3 1-.2 2.1-.3 3.3-.3V422c0-.6-.1-1.1-.4-1.5-.3-.4-.8-.6-1.6-.6-.7 0-1.2.3-1.5.7-.3.4-.4.9-.4 1.3v.3h-2v-.5c0-1.2.4-2 1.1-2.6.8-.6 1.8-1 3-1s2.2.4 2.8 1c.7.6 1 1.5 1 2.6v7.1c0 .3 0 .5.2.6.1.2.3.2.5.2h.7v1.4l-.5.2h-.8a2 2 0 0 1-1.3-.3c-.3-.3-.5-.7-.7-1.2a3.5 3.5 0 0 1-3.2 1.7Zm.5-1.8a2.5 2.5 0 0 0 2.2-1.4c.3-.4.4-1 .4-1.7v-1.1c-.9 0-1.6 0-2.3.2a3 3 0 0 0-1.5.6c-.3.4-.5.9-.5 1.5 0 .7.1 1.2.4 1.5.3.3.8.4 1.3.4Zm9.4 1.5v-12.6h1.5l.3 1.6h.1c.2-.4.4-.9.8-1.3.3-.4.8-.6 1.4-.6a2 2 0 0 1 .9.2v2h-.7c-.4 0-.8.1-1.1.3a2 2 0 0 0-.9 1c-.2.4-.3 1-.3 1.7v7.7h-2Zm8.2 0v-12.6h1.5l.3 1.6h.1c.2-.4.4-.9.8-1.3.3-.4.8-.6 1.4-.6a2 2 0 0 1 .9.2v2h-.7c-.4 0-.8.1-1.1.3a2 2 0 0 0-.9 1c-.2.4-.3 1-.3 1.7v7.7h-2Zm12.2.3c-1.4 0-2.5-.5-3.3-1.6-.8-1-1.2-2.7-1.2-5s.4-4 1.2-5c.8-1 1.9-1.6 3.3-1.6 1.5 0 2.6.5 3.4 1.6.8 1 1.2 2.7 1.2 5s-.4 4-1.2 5c-.8 1-1.9 1.6-3.4 1.6Zm0-1.8a2 2 0 0 0 1.9-1c.4-.8.6-1.9.6-3.4v-.9c0-1.4-.2-2.5-.6-3.3a2 2 0 0 0-1.9-1 2 2 0 0 0-1.8 1 7 7 0 0 0-.6 3.3v1a7 7 0 0 0 .6 3.2 2 2 0 0 0 1.8 1.1Zm10.3 1.5-3.1-12.6h2.1l1.6 7a18.6 18.6 0 0 1 .5 3h.1v-.4a32.5 32.5 0 0 1 .4-2.5l1.3-7.1h2.3l1.3 7a76.3 76.3 0 0 1 .3 2.8v.3h.1v-.3l.2-.7a66.8 66.8 0 0 1 .3-2l1.6-7.1h2l-3.1 12.6h-2.2l-1.3-7.2a32.5 32.5 0 0 1-.4-2.4v-.5h-.1v.5a31.6 31.6 0 0 1-.4 2.4l-1.3 7.2h-2.2Zm-190 36v-.3a6 6 0 0 1 1.2-3.6l1.7-2a54.5 54.5 0 0 0 3.4-4.3c.4-.7.6-1.5.6-2.3 0-.4 0-.7-.2-1.1-.1-.4-.4-.7-.7-1-.3-.2-.8-.3-1.4-.3-.8 0-1.4.3-1.8 1-.3.5-.5 1.3-.5 2.1v1h-2v-1c0-1.1.1-2.1.5-2.8.4-.8 1-1.3 1.7-1.6.6-.4 1.4-.6 2.2-.6.8 0 1.5.2 2.1.5.7.3 1.2.7 1.6 1.4.4.6.6 1.4.6 2.4a6 6 0 0 1-.5 2.3c-.3.8-.7 1.4-1.1 2l-1.6 2a77.7 77.7 0 0 0-3.1 3.8l-.2.4h6.5v2h-9Zm18.6 0v-4h-6.4v-1.8a44.5 44.5 0 0 0 4.3-11h2a26.2 26.2 0 0 1-2.2 6.7 44.4 44.4 0 0 1-2.2 4.3h4.5V456a20.2 20.2 0 0 0 1-3.3h1v8.5h1.6v1.7h-1.7v4.1h-2Zm7.1 4.2v-16.8h1.5l.3 1.4h.1c.3-.5.7-1 1.2-1.3.5-.3 1-.4 1.6-.4 1.2 0 2.1.5 2.8 1.6.7 1 1 2.7 1 5 0 1.5 0 2.8-.4 3.8s-.8 1.7-1.4 2.1a3 3 0 0 1-1.9.7c-.6 0-1.1-.1-1.6-.4-.5-.2-.8-.6-1-1h-.2v5.3h-2Zm4.3-5.7c.7 0 1.3-.3 1.6-1 .4-.7.6-1.8.6-3.4v-.9c0-1.5-.2-2.7-.6-3.3-.3-.7-.9-1-1.6-1-.8 0-1.4.3-1.7 1-.4.8-.6 1.9-.6 3.3v1c0 1.4.2 2.5.6 3.2.3.8 1 1.1 1.7 1.1Zm7 1.5 3.7-6.4-3.5-6.2h2.4l2.2 4.3 2.4-4.3h2.2l-3.5 6 3.7 6.6h-2.4l-2.5-4.6-2.5 4.6h-2.2Zm20.1 0v-16.5h2.1V467h-2Zm11.4 0 5.3-16.5h2.7l5.2 16.5h-2.3l-1.1-3.7H192l-1.2 3.7h-2Zm3.8-5.6h5.4l-2.2-7.3a29 29 0 0 1-.4-1.5v-.3h-.1v.3a10.3 10.3 0 0 1-.4 1.5l-2.3 7.3Zm18.7 5.6v-16.5h2.1V467h-2Zm13.5-7.6v-2h9.5v2h-9.5Zm0 5v-2h9.5v2h-9.5Zm25 2.9c-1 0-2-.3-2.6-.8a4.7 4.7 0 0 1-1.7-2.5c-.3-1.1-.5-2.7-.5-4.8 0-2.2.2-4 .5-5.4.4-1.3 1-2.2 1.6-2.7.7-.6 1.5-.9 2.5-.9s1.7.3 2.3.8a4 4 0 0 1 1.3 1.9c.2.8.4 1.7.4 2.7h-2c0-1.1-.2-2-.5-2.6-.4-.7-.9-1-1.6-1-.7 0-1.2.3-1.5.8a5 5 0 0 0-.8 2.1l-.2 3.3c.3-.5.8-.8 1.3-1.1.5-.3 1-.4 1.6-.4 1 0 1.7.2 2.3.7a4 4 0 0 1 1.3 1.9c.4.8.5 1.7.5 2.7 0 1-.2 2-.6 2.8-.3.8-.8 1.4-1.5 1.8-.6.5-1.4.7-2.2.7Zm-.2-1.8a2 2 0 0 0 1.8-1c.4-.7.6-1.6.6-2.5 0-1-.2-1.9-.6-2.6a2 2 0 0 0-1.8-1 2 2 0 0 0-1.9 1c-.3.7-.5 1.6-.5 2.6s.2 1.8.5 2.5c.4.7 1 1 1.9 1Zm8.5 1.5v-2.6h2.4v2.6H258Zm11 .3c-1 0-1.9-.2-2.5-.7a4 4 0 0 1-1.5-1.7 6.3 6.3 0 0 1 0-4.8c.4-.7 1-1.2 1.7-1.5-.6-.4-1-1-1.4-1.6-.3-.7-.4-1.4-.4-2.2 0-.8.1-1.6.4-2.3a4 4 0 0 1 1.5-1.6 4 4 0 0 1 2.3-.7c.9 0 1.7.3 2.3.7.6.4 1 1 1.4 1.6.3.7.4 1.5.4 2.3a5 5 0 0 1-.4 2.2c-.3.6-.8 1.2-1.4 1.6.8.3 1.3.8 1.7 1.5a6 6 0 0 1 0 4.8c-.3.7-.8 1.3-1.4 1.7-.7.5-1.6.7-2.6.7Zm0-1.8c.9 0 1.5-.2 2-.8.3-.5.6-1.3.6-2.2 0-1-.3-1.7-.7-2.2-.4-.6-1-.8-1.8-.8-.9 0-1.5.2-2 .8-.3.5-.5 1.2-.5 2.2 0 1 .2 1.7.6 2.2.4.6 1 .8 1.9.8Zm0-7.8a2 2 0 0 0 1.7-.8c.4-.5.6-1.2.6-2 0-1-.2-1.6-.6-2.1a2 2 0 0 0-1.6-.8 2 2 0 0 0-1.6.8c-.4.5-.6 1.2-.6 2 0 1 .2 1.6.6 2.1.4.6.9.8 1.6.8Zm10.2 9.3 10-16.5h1.7l-10 16.5h-1.7Zm1.1-8c-.6 0-1.2-.2-1.6-.5-.5-.2-.8-.7-1-1.3-.3-.6-.5-1.5-.5-2.6s.2-2 .4-2.6c.3-.6.6-1 1-1.3.5-.3 1-.5 1.7-.5a3 3 0 0 1 1.7.5c.4.2.8.7 1 1.3.3.6.4 1.5.4 2.6s-.1 2-.4 2.6c-.2.6-.6 1-1 1.3-.5.3-1 .4-1.7.4Zm0-1.5c.6 0 1-.3 1.1-.8.2-.5.3-1.1.3-2v-.3c0-.8 0-1.5-.3-2-.1-.5-.5-.7-1-.7-.7 0-1 .2-1.2.7-.2.5-.3 1.2-.3 2v.4c0 .8 0 1.4.3 2 .2.4.5.7 1.1.7Zm9.4 9.8c-.6 0-1.2-.1-1.6-.4-.5-.3-.8-.7-1-1.3-.3-.7-.4-1.5-.4-2.6 0-1.2 0-2 .3-2.6.3-.7.6-1.1 1-1.4.5-.2 1-.4 1.7-.4a3 3 0 0 1 1.7.4c.4.3.8.7 1 1.4.3.6.4 1.4.4 2.6 0 1-.1 2-.4 2.6-.2.6-.6 1-1 1.3-.5.3-1 .4-1.7.4Zm0-1.4c.6 0 1-.3 1.2-.8l.2-2v-.3c0-.8 0-1.5-.2-2s-.6-.8-1.2-.8c-.5 0-1 .3-1.1.8-.2.5-.3 1.2-.3 2v.3c0 .8.1 1.5.3 2 .2.5.6.8 1.1.8ZM542.4 413l1-4.3h-1.6v-1.8h2l.8-3.7h-1.8v-1.9h2.2l1.1-5h1.9l-1.2 5h2.2l1.1-5h1.8l-1 5h1.3v1.9h-1.8l-.8 3.7h1.7v1.8h-2.1l-1 4.3h-1.8l1-4.3h-2.2l-1 4.3h-1.8Zm3.2-6.1h2.2l.8-3.7h-2.2l-.8 3.7ZM557 413a19.8 19.8 0 0 1 1.7-8 33.4 33.4 0 0 1 3.2-6.4h-7v-2h9.4v1.2a50.1 50.1 0 0 0-3.4 6.3 26 26 0 0 0-1.2 3.7c-.3 1.3-.4 2.6-.4 4v1.2H557Zm11.5 0v-16.5h10.1v2h-8v5.1h7v2h-7v5.5h8.1v1.9h-10.3Zm18.5.3c-1 0-1.7-.2-2.4-.7-.5-.5-1-1.1-1.3-2-.2-.7-.4-1.7-.4-2.7h2c0 1.2.2 2 .5 2.7.4.6 1 1 1.7 1 .6 0 1.1-.3 1.5-.8a5 5 0 0 0 .7-2.2l.2-3.3c-.4.5-.8.9-1.3 1.2-.5.2-1 .4-1.6.4-1 0-1.7-.3-2.3-.7-.6-.5-1-1.1-1.4-2a8 8 0 0 1 .1-5.5c.4-.8 1-1.4 1.6-1.8a4 4 0 0 1 2.2-.7c1 0 1.8.3 2.5.8s1.3 1.3 1.6 2.5c.4 1.2.6 2.8.6 4.8 0 2.3-.2 4-.5 5.4a5.2 5.2 0 0 1-1.6 2.8c-.6.5-1.5.8-2.4.8Zm-.1-8.1a2 2 0 0 0 1.8-1.1 5 5 0 0 0 .6-2.5 5 5 0 0 0-.6-2.5 2 2 0 0 0-1.8-1.1 2 2 0 0 0-1.8 1c-.4.7-.6 1.6-.6 2.6s.2 1.8.6 2.5c.4.7 1 1 1.8 1Zm8.1 7.8v-.3a6 6 0 0 1 1.2-3.6c.5-.7 1-1.4 1.7-2a54.5 54.5 0 0 0 3.3-4.3c.4-.7.6-1.5.6-2.3 0-.4 0-.7-.2-1.1 0-.4-.3-.7-.6-1-.4-.2-.8-.3-1.4-.3-.8 0-1.4.3-1.8 1-.3.5-.5 1.3-.5 2.1v1h-2v-.3l-.1-.7c0-1.1.2-2.1.6-2.8.4-.8 1-1.3 1.6-1.6.7-.4 1.4-.6 2.2-.6.8 0 1.5.2 2.2.5.6.3 1.2.7 1.5 1.4.4.6.6 1.4.6 2.4a6 6 0 0 1-.4 2.3 18.4 18.4 0 0 1-2.7 3.9 77.7 77.7 0 0 0-3.2 3.9l-.1.4h6.5v2h-9Zm11.7 0 5.2-16.5h2.7l5.2 16.5h-2.2l-1.2-3.7H610l-1.1 3.7h-2.1Zm3.8-5.6h5.3l-2.2-7.3a29 29 0 0 1-.4-1.8l-.2.3a10.3 10.3 0 0 1-.3 1.5l-2.2 7.3Zm16.4 5.9c-1 0-2-.2-2.6-.7a4 4 0 0 1-1.4-1.7 6.3 6.3 0 0 1 0-4.8c.3-.7.9-1.2 1.6-1.5-.6-.4-1-1-1.3-1.6a5.6 5.6 0 0 1 0-4.5 4 4 0 0 1 1.4-1.6 4 4 0 0 1 2.3-.7c1 0 1.7.3 2.3.7.6.4 1.1 1 1.4 1.6.3.7.5 1.5.5 2.3a5 5 0 0 1-.5 2.2c-.3.6-.7 1.2-1.3 1.6.7.3 1.3.8 1.6 1.5.4.7.5 1.5.5 2.4a6 6 0 0 1-.5 2.4c-.3.7-.7 1.3-1.4 1.7-.7.5-1.5.7-2.6.7Zm0-1.8c.8 0 1.4-.2 1.9-.8.4-.5.6-1.3.6-2.2 0-1-.2-1.7-.6-2.2-.5-.6-1-.8-1.9-.8-.8 0-1.4.2-1.9.8-.4.5-.6 1.2-.6 2.2 0 1 .2 1.7.6 2.2.5.6 1.1.8 2 .8Zm0-7.8a2 2 0 0 0 1.6-.8c.4-.5.6-1.2.6-2 0-1-.2-1.6-.6-2.1a2 2 0 0 0-1.6-.8 2 2 0 0 0-1.6.8c-.4.5-.6 1.2-.6 2 0 1 .2 1.6.6 2.1.4.6 1 .8 1.6.8Z" fill="#000"/><g clip-path="url(#b)"><path d="M134.9 730.6V661h-.3L122 716.3h-9L100.5 661h-.3v69.6H86V630.4h19.8l11.8 53.8h.3l11.7-53.8H150v100.2h-15.1Z" fill="#7E92A8"/><path d="m188.9 730.6-2.5-17h-12.5l-2.5 17h-11.3l13-75.1h14.4l13 75h-11.6Zm-13.5-27.4h9.5l-4.6-31.6h-.3l-4.6 31.6ZM224 698.8h-5.2v31.8h-11.3v-75.1h16.3c12.2 0 18.8 6.6 18.8 19v5.3c0 8-2.8 13.6-8 16.6l10.4 34.2h-12l-9-31.8Zm-5.2-10.5h4.6c5.5 0 8-2.9 8-9.2v-3.9c0-6.3-2.6-9.2-8-9.2h-4.6v22.3ZM291.6 730.6h-12.1l-11.1-32.8-5 9.6v23.2h-11.3v-75.1h11.4v31.3h.2l15.7-31.3h11.8L276 685.3l15.7 45.3ZM309.6 666v21.2h16.6v10.6h-16.6V720h20.5v10.5h-31.8v-75.1H330V666h-20.5ZM358.2 666.2v64.4h-11.4v-64.4h-12v-10.7h35.4v10.7h-12Z" fill="#231F20"/><path d="M419.9 651.9v2.9l-14.5 1.4V653c0-6.8-2.6-10-7.9-10-4.4 0-7.5 2.5-7.5 8.2v2.1c0 5.6 2.8 10.2 12.7 19.2 13.3 12.4 18 20.6 18 32.2v4.8c0 14.8-9.3 22.5-23.2 22.5-13.8 0-23.3-8.2-23.3-22.9v-6.6l14.5-1.4v6.8c0 6.8 3.1 10 8.6 10 4.5 0 8.2-2.4 8.2-9.5v-3.2c0-6.3-2.8-10.9-12.7-19.9-13.4-12.4-18-20.6-18-31.4v-2.5c0-14.7 8.6-22.5 22.6-22.5 14 0 22.5 8.2 22.5 23Z" fill="#ACCBEB"/><path d="M453 730.6v-32.8h-13.4v32.8h-11.4v-75.1h11.4v31.6H453v-31.6h11.3v75.1h-11.3ZM501.2 730.6l-2.4-17h-12.5l-2.5 17h-11.3l13-75.1h14.3l13 75h-11.6Zm-13.4-27.4h9.5l-4.6-31.6h-.4l-4.6 31.6ZM536.4 698.8h-5.2v31.8h-11.3v-75.1h16.3c12.2 0 18.8 6.6 18.8 19v5.3c0 8-2.8 13.6-8 16.6l10.3 34.2h-12l-8.9-31.8Zm-5.2-10.5h4.6c5.5 0 7.9-2.9 7.9-9.2v-3.9c0-6.3-2.5-9.2-8-9.2h-4.5v22.3ZM577 666v21.2h16.5v10.6h-16.6V720h20.5v10.5h-31.8v-75.1h31.8V666H577ZM607 730.6v-12h12v12h-12Z" fill="#231F20"/></g><path d="m536.6 314 1-4.3H536v-1.8h2l.8-3.7H537v-1.9h2.2l1.1-5h1.9l-1.2 5h2.2l1.1-5h1.8l-1 5h1.4v1.9h-1.9l-.8 3.7h1.7v1.8h-2.1l-1 4.3h-1.8l1-4.3h-2.2l-1 4.3h-1.8Zm3.2-6.1h2.2l.8-3.7h-2.2l-.8 3.7Zm8.6 6.1 5.2-16.5h2.7l5.2 16.5h-2.2l-1.2-3.7h-6.5l-1.1 3.7h-2.1Zm3.8-5.6h5.3l-2.2-7.3a29 29 0 0 1-.3-1.5v-.3h-.2v.3a10.3 10.3 0 0 1-.4 1.5l-2.2 7.3Zm12.5 5.6v-16.5h6.3c.8 0 1.5.2 2.1.5a3.8 3.8 0 0 1 2.1 3.6 4 4 0 0 1-2.5 3.8 4.3 4.3 0 0 1 2.9 4.2c0 1-.2 1.8-.7 2.4-.4.6-1 1.1-1.6 1.5-.7.3-1.5.5-2.3.5h-6.3Zm2.1-2h3.9c.7 0 1.4-.2 2-.6.4-.5.7-1.2.7-2s-.3-1.5-.8-2c-.5-.6-1.2-.9-2-.9h-3.8v5.6Zm0-7.4h3.5c.8 0 1.5-.2 2-.8.4-.5.7-1 .7-1.8s-.2-1.5-.7-1.9c-.5-.4-1-.6-1.8-.6h-3.7v5.1Zm18.6 9.7c-2.1 0-3.7-.7-4.9-2.1-1-1.4-1.6-3.6-1.6-6.4 0-2.9.6-5 1.6-6.4 1.2-1.4 2.8-2.2 4.9-2.2 1.1 0 2.1.3 3 .7.8.5 1.5 1.2 2 2.1.5 1 .7 2 .7 3.5H589c0-1.5-.4-2.5-1-3.2-.6-.7-1.5-1.1-2.6-1.1-1.4 0-2.5.5-3.2 1.5-.7 1-1 2.5-1 4.5v1.2c0 2 .3 3.5 1 4.5s1.8 1.4 3.2 1.4c1.1 0 2-.3 2.6-1 .7-.7 1-1.8 1-3.2h2.1c0 1.4-.2 2.6-.7 3.5-.5 1-1.2 1.6-2 2-.9.5-1.9.7-3 .7Zm10-.3v-16.5h5.1c2 0 3.5.7 4.6 2 1.1 1.4 1.7 3.4 1.7 6 0 2.8-.6 5-1.7 6.4a5.5 5.5 0 0 1-4.6 2.1h-5Zm2.1-2h2.8c1.3 0 2.4-.4 3.1-1.4.8-1 1.2-2.5 1.2-4.5V305c0-1.8-.4-3.2-1.2-4-.7-1-1.8-1.4-3-1.4h-2.9V312Zm13.8 2v-16.5h9.5v2h-7.4v5.3h6.5v1.9h-6.5v7.3h-2.1Zm17.5.3c-1.4 0-2.5-.5-3.4-1.5-.8-1-1.2-2.2-1.2-4h2c0 1.2.3 2.1.8 2.8.5.6 1 1 1.8 1 .7 0 1.3-.4 1.8-1a5 5 0 0 0 .7-3c0-1.1-.2-2-.6-2.6a2 2 0 0 0-1.7-1c-.6 0-1 .2-1.5.6-.4.4-.7.8-1 1.4l-1.8-.3.5-9.2h7.5v2h-5.8l-.3 5 1.1-.8c.5-.3 1.1-.4 1.8-.4a3.5 3.5 0 0 1 3.4 2.3c.3.8.5 1.8.5 3 0 1.8-.4 3.2-1.2 4.2-.9 1-2 1.5-3.4 1.5ZM531.6 216l1-4.3H531v-1.8h2l.8-3.7h-1.9v-1.9h2.3l1.1-5h1.8l-1.1 5h2.2l1-5h2l-1.2 5h1.4v1.9h-1.8l-.8 3.7h1.7v1.8h-2.1l-1 4.3h-1.8l1-4.3h-2.2l-1 4.3h-1.8Zm3.2-6.1h2.1l.9-3.7h-2.2l-.8 3.7Zm9.8 6.1v-1.8h3.9v-11.7h-4v-1.2l1.6-.3a17.7 17.7 0 0 0 3.6-1.5h.8v14.7h3.6v1.8h-9.5Zm16.8.3c-1 0-1.9-.2-2.6-.7a4 4 0 0 1-1.4-1.7 6.3 6.3 0 0 1 0-4.8c.4-.7.9-1.2 1.6-1.5-.6-.4-1-1-1.3-1.6a5.6 5.6 0 0 1 0-4.5 4 4 0 0 1 1.4-1.6 4 4 0 0 1 2.3-.7c1 0 1.7.3 2.3.7.6.4 1.1 1 1.4 1.6.3.7.5 1.5.5 2.3a5 5 0 0 1-.5 2.2c-.2.6-.7 1.2-1.3 1.6.8.3 1.3.8 1.6 1.5.4.7.5 1.5.5 2.4a6 6 0 0 1-.4 2.4c-.4.7-.8 1.3-1.5 1.7-.6.5-1.5.7-2.6.7Zm0-1.8c.8 0 1.5-.2 1.9-.8.4-.5.6-1.3.6-2.2 0-1-.2-1.7-.6-2.2-.4-.6-1-.8-1.9-.8-.8 0-1.4.2-1.9.8-.4.5-.6 1.2-.6 2.2 0 1 .2 1.7.6 2.2.5.6 1.1.8 2 .8Zm0-7.8a2 2 0 0 0 1.6-.8c.4-.5.7-1.2.7-2 0-1-.3-1.6-.7-2.1a2 2 0 0 0-1.6-.8 2 2 0 0 0-1.6.8c-.4.5-.6 1.2-.6 2 0 1 .2 1.6.6 2.1.4.6 1 .8 1.6.8Zm8.3 9.3v-1.8h4v-11.7h-4v-1.2l1.6-.3a17.7 17.7 0 0 0 3.5-1.5h.8v14.7h3.6v1.8h-9.5Zm16.9.3c-1 0-2-.2-2.6-.7a4 4 0 0 1-1.5-1.7 6.3 6.3 0 0 1 0-4.8c.4-.7 1-1.2 1.7-1.5-.6-.4-1-1-1.4-1.6-.3-.7-.4-1.4-.4-2.2 0-.8.2-1.6.5-2.3a4 4 0 0 1 1.4-1.6 4 4 0 0 1 2.3-.7c.9 0 1.7.3 2.3.7.6.4 1 1 1.4 1.6.3.7.5 1.5.5 2.3a5 5 0 0 1-.5 2.2c-.3.6-.7 1.2-1.3 1.6.7.3 1.2.8 1.6 1.5a6 6 0 0 1 0 4.8c-.3.7-.8 1.3-1.4 1.7-.7.5-1.6.7-2.6.7Zm0-1.8c.8 0 1.4-.2 1.8-.8.5-.5.7-1.3.7-2.2 0-1-.2-1.7-.7-2.2-.4-.6-1-.8-1.8-.8s-1.5.2-1.9.8c-.4.5-.6 1.2-.6 2.2 0 1 .2 1.7.6 2.2.4.6 1 .8 1.9.8Zm0-7.8a2 2 0 0 0 1.6-.8c.4-.5.6-1.2.6-2 0-1-.2-1.6-.6-2.1a2 2 0 0 0-1.6-.8 2 2 0 0 0-1.6.8c-.4.5-.6 1.2-.6 2 0 1 .2 1.6.6 2.1.4.6.9.8 1.6.8Zm8.3 9.3v-1.8h3.9v-11.7h-4v-1.2l1.6-.3a17.7 17.7 0 0 0 3.6-1.5h.8v14.7h3.6v1.8h-9.5Zm16.8.3c-1 0-1.9-.2-2.6-.7a4 4 0 0 1-1.4-1.7 6.3 6.3 0 0 1 0-4.8c.4-.7.9-1.2 1.6-1.5-.6-.4-1-1-1.3-1.6-.3-.7-.4-1.4-.4-2.2 0-.8.1-1.6.4-2.3a4 4 0 0 1 1.4-1.6 4 4 0 0 1 2.3-.7c1 0 1.7.3 2.3.7.7.4 1.1 1 1.4 1.6.3.7.5 1.5.5 2.3a5 5 0 0 1-.4 2.2c-.3.6-.8 1.2-1.4 1.6.8.3 1.3.8 1.6 1.5.4.7.5 1.5.5 2.4a6 6 0 0 1-.4 2.4c-.3.7-.8 1.3-1.5 1.7-.6.5-1.5.7-2.6.7Zm0-1.8c.8 0 1.5-.2 1.9-.8.4-.5.6-1.3.6-2.2 0-1-.2-1.7-.6-2.2-.4-.6-1-.8-1.9-.8-.8 0-1.4.2-1.8.8-.5.5-.7 1.2-.7 2.2 0 1 .2 1.7.7 2.2.4.6 1 .8 1.8.8Zm0-7.8a2 2 0 0 0 1.6-.8c.5-.5.7-1.2.7-2 0-1-.2-1.6-.7-2.1a2 2 0 0 0-1.6-.8 2 2 0 0 0-1.6.8c-.4.5-.6 1.2-.6 2 0 1 .2 1.6.6 2.1.4.6 1 .8 1.6.8Z" fill="#000"/></g><path stroke="#000" stroke-width="5" d="M2.5 2.5h693v787H2.5z"/><defs><clipPath id="a"><path fill="#fff" d="M0 0h698v792H0z"/></clipPath><clipPath id="b"><path fill="#fff" transform="translate(86 629)" d="M0 0h533v103H0z"/></clipPath></defs></svg>